<?xml version="1.0" encoding="UTF-8" standalone="no"?>
<!-- Created with Inkscape (http://www.inkscape.org/) -->
<svg
   xmlns:dc="http://purl.org/dc/elements/1.1/"
   xmlns:cc="http://web.resource.org/cc/"
   xmlns:rdf="http://www.w3.org/1999/02/22-rdf-syntax-ns#"
   xmlns:svg="http://www.w3.org/2000/svg"
   xmlns="http://www.w3.org/2000/svg"
   xmlns:sodipodi="http://sodipodi.sourceforge.net/DTD/sodipodi-0.dtd"
   xmlns:inkscape="http://www.inkscape.org/namespaces/inkscape"
   id="svg2281"
   sodipodi:version="0.32"
   inkscape:version="0.45+devel"
   width="1051"
   height="645"
   version="1.0"
   sodipodi:docbase="C:\Users\sento\Desktop"
   sodipodi:docname="alca.jpg"
   sodipodi:modified="true">
  <metadata
     id="metadata2286">
    <rdf:RDF>
      <cc:Work
         rdf:about="">
        <dc:format>image/svg+xml</dc:format>
        <dc:type
           rdf:resource="http://purl.org/dc/dcmitype/StillImage" />
      </cc:Work>
    </rdf:RDF>
  </metadata>
  <defs
     id="defs2284" />
  <sodipodi:namedview
     inkscape:window-height="575"
     inkscape:window-width="842"
     inkscape:pageshadow="2"
     inkscape:pageopacity="0.0"
     guidetolerance="10.0"
     gridtolerance="10.0"
     objecttolerance="10.0"
     borderopacity="1.0"
     bordercolor="#666666"
     pagecolor="#ffffff"
     id="base"
     inkscape:zoom="0.58449612"
     inkscape:cx="711.02101"
     inkscape:cy="245.58237"
     inkscape:window-x="175"
     inkscape:window-y="175"
     inkscape:current-layer="svg2281" />
  <path
     style="fill:#000000"
     d="M 367.65805,618.64431 C 363.06897,616.69211 358.83979,615.87911 349.65805,615.18407 C 335.20639,614.0901 305.04024,612.68578 303.69031,613.04414 C 303.1589,613.18521 287.51593,612.59166 281.99734,611.98652 C 262.24147,609.82019 253.85332,609.5345 157.6565,608.66514 C 121.16639,608.33537 92.477028,607.6641 89.477048,607.06989 C 74.141037,604.03228 60.282868,590.67859 55.320233,574.1565 C 53.170383,566.99901 52.360347,552.04128 51.583535,505.1565 C 50.93686,466.12617 51.613878,456.82844 56.037117,443.99387 C 58.422207,437.07324 78.159389,393.41554 86.831549,375.87806 C 90.310271,368.84313 93.156499,362.89387 93.156499,362.65748 C 93.156499,362.42109 95.663799,357.14916 98.728269,350.94209 C 103.76001,340.75032 121.03139,304.28806 129.88948,285.1565 C 131.79939,281.0315 135.39682,273.3815 137.88376,268.1565 C 140.3707,262.9315 143.52873,256.1815 144.9016,253.1565 C 146.27447,250.1315 148.75499,244.7315 150.41386,241.1565 C 154.76042,231.78933 164.95661,209.58478 167.86322,203.1565 C 170.60196,197.09948 172.52343,192.95079 180.07689,176.78568 C 182.87068,170.80673 185.1565,165.75071 185.1565,165.55008 C 185.1565,165.34945 187.57645,160.11632 190.53416,153.9209 C 193.49188,147.72548 196.92326,140.4065 198.15947,137.6565 C 199.39567,134.9065 202.5508,128.1565 205.17086,122.6565 C 207.79093,117.1565 212.74795,106.5815 216.18647,99.156499 C 219.62499,91.731499 224.84991,80.567731 227.79741,74.348126 C 230.74491,68.12852 233.1565,62.826206 233.1565,62.565205 C 233.1565,62.304204 235.64658,57.1003 238.69002,51.000973 C 243.98607,40.387184 247.8992,34.701786 254.82892,27.552725 C 260.02101,20.62824 269.68929,17.773895 276.39903,16.409536 C 291.69353,11.860429 310.35318,18.132106 321.87582,22.194566 C 331.10519,25.531591 343.1565,29.845154 348.6565,31.780262 C 354.1565,33.715369 360.86806,36.211025 363.57107,37.326162 C 366.27408,38.4413 374.37408,41.36836 381.57107,43.830739 C 388.76806,46.293119 396.9327,49.607403 399.71473,51.195816 C 417.19364,61.175498 424.22717,81.294242 417.05553,100.79758 C 413.11832,111.50485 409.93849,114.65071 373.1565,144.22759 C 361.3315,153.73622 346.9315,165.3655 341.1565,170.07042 C 318.16245,188.80377 307.371,197.57948 301.27465,202.50271 C 297.76463,205.33729 294.38963,208.13139 293.77465,208.71182 C 293.15967,209.29224 287.2565,214.07094 280.6565,219.33114 C 274.0565,224.59134 267.92143,229.74145 267.02301,230.77582 C 263.48517,234.84903 261.1565,241.08155 261.1565,246.47712 C 261.1565,252.5168 263.15862,256.27188 270.58272,264.1565 C 275.63101,269.51794 280.4576,277.17914 282.16302,282.5378 C 284.1634,288.82324 283.01023,300.89124 279.77795,307.49779 C 276.31311,314.57968 271.09989,319.23507 250.31025,333.81243 C 241.15069,340.23497 226.9065,350.22231 218.6565,356.00652 C 191.94593,374.73373 183.12966,383.46422 175.21767,399.02267 C 169.33897,410.58277 164.93734,430.20133 165.72548,441.33045 C 166.99649,459.27797 168.70091,466.00767 174.79096,477.12436 C 178.26225,483.46081 187.14808,495.1068 190.8397,498.15824 C 199.10947,504.99392 202.51439,507.41899 208.25241,510.56001 C 223.48441,518.89808 240.89689,522.42951 256.7962,520.40519 C 261.66937,519.78474 266.3315,519.10076 267.1565,518.88524 C 275.04371,516.82484 278.96388,515.35128 287.09997,511.38865 C 294.24938,507.90657 298.1991,505.1629 303.3589,500.09439 C 313.52478,490.10837 315.19942,485.7273 327.03435,438.1565 C 332.57604,415.8815 339.13845,389.7815 341.61747,380.1565 C 345.72705,364.20078 358.94102,310.73087 359.65791,307.1565 C 359.82337,306.3315 361.4091,299.8065 363.18174,292.6565 C 374.10418,248.60066 377.12884,239.62951 386.19037,224.41277 C 396.93287,206.37326 413.47047,189.62023 429.1565,180.88695 C 431.6315,179.50898 439.65021,174.95591 446.97585,170.76902 C 454.30149,166.58214 460.46488,163.1565 460.67227,163.1565 C 460.87966,163.1565 463.66096,161.64716 466.85292,159.8024 C 470.04489,157.95765 475.8065,154.74127 479.6565,152.6549 C 483.5065,150.56853 490.4815,146.7427 495.1565,144.15307 C 508.83542,136.57587 520.08746,131.53104 528.6565,129.1334 C 542.15373,125.35685 564.24525,126.06288 578.40557,130.72334 C 583.67925,132.45902 620.10315,148.19271 647.1565,160.42103 C 655.1315,164.02579 666.6065,169.07031 672.6565,171.63108 C 683.38979,176.17412 694.13593,180.95031 708.99563,187.78224 C 713.03216,189.63808 716.49415,191.1565 716.68894,191.1565 C 716.88374,191.1565 724.60613,194.80032 733.84981,199.25387 C 743.09349,203.70742 755.3815,209.51191 761.1565,212.15273 C 785.8736,223.4555 797.68407,229.37343 802.32954,232.78352 C 813.898,241.27555 825.01194,259.90603 827.82298,275.51858 C 829.26024,283.50118 829.19518,286.00343 827.20693,299.20992 C 824.57791,316.67267 810.03973,336.18855 793.66812,344.23203 C 783.25771,349.34673 771.63044,352.28028 762.74169,352.03474 C 751.07482,351.71246 739.05337,348.03008 702.6565,333.62959 C 671.05698,321.12719 666.93446,319.7399 660.22483,319.35067 C 656.13741,319.11355 650.28741,319.46966 647.22483,320.14202 C 639.32848,321.87558 636.7514,323.92564 607.60862,351.6565 C 594.21115,363.35382 582.04147,375.44341 569.36028,387.71798 C 561.8232,394.8141 550.9315,405.14418 545.1565,410.67371 C 539.3815,416.20323 530.61288,424.53644 525.67067,429.19195 C 512.34411,441.74543 506.49561,448.21241 502.53821,454.77067 C 488.48879,478.05358 490.68039,510.0457 506.78578,516.77496 C 511.2727,518.64972 515.03656,518.51426 523.49282,516.17371 C 545.67851,510.03308 552.85937,508.09081 554.6565,507.7446 C 555.7565,507.53269 562.9565,505.54438 570.6565,503.32613 C 578.3565,501.10788 590.2815,497.72007 597.1565,495.79767 C 610.36689,492.10375 632.27725,485.96377 640.6565,483.60759 C 643.4065,482.83431 654.8815,479.69024 666.1565,476.62077 C 677.4315,473.55129 692.0565,469.52736 698.6565,467.6787 C 705.2565,465.83004 716.7315,462.66598 724.1565,460.64747 C 731.5815,458.62895 746.2065,454.58054 756.6565,451.65102 C 767.1065,448.72149 783.3065,444.23265 792.6565,441.67583 C 802.0065,439.119 813.82509,435.71388 818.92004,434.10888 C 824.01498,432.50388 829.18998,430.96707 830.42004,430.69373 C 833.10962,430.09607 840.21628,428.25366 853.6565,424.66964 C 872.21626,419.72044 875.43846,419.10908 883.55854,418.99626 C 894.72434,418.84113 902.10614,420.5564 912.74964,425.77925 C 923.9496,431.27516 932.31659,439.11655 960.1565,470.20808 C 964.2815,474.81487 968.33412,479.27798 969.16232,480.1261 C 969.99052,480.97422 979.03044,492.01552 989.25104,504.66232 C 1009.2651,529.42741 1010.4842,531.54085 1013.6054,546.88444 C 1015.7811,557.57978 1015.1834,573.43238 1012.3204,580.96722 C 1009.5178,588.3431 1004.8612,595.25548 1000.1378,599.05129 C 995.7886,602.54643 988.50581,606.09979 984.28243,606.78735 C 979.39152,607.58358 944.92978,608.09307 860.6565,608.61504 C 814.4565,608.9012 775.9815,609.29472 775.1565,609.48953 C 774.3315,609.68435 772.5315,610.12082 771.1565,610.45949 C 769.7815,610.79815 765.9565,611.34625 762.6565,611.6775 C 759.3565,612.00875 755.3065,612.45575 753.6565,612.67083 C 749.25766,613.24423 742.46962,613.99336 735.6565,614.65731 C 732.3565,614.9789 726.59592,615.68044 722.85521,616.21629 C 719.11449,616.75213 713.71449,617.41255 710.85521,617.68388 C 707.99592,617.95521 703.6315,618.51004 701.1565,618.91685 C 698.6815,619.32366 626.6815,619.6565 541.1565,619.6565 C 455.6315,619.6565 382.9565,620.0029 379.6565,620.42628 C 374.42255,621.09778 372.89065,620.87026 367.65805,618.64431 z M 538.6565,614.6565 C 680.60613,614.6565 694.58266,614.51103 704.6565,612.92869 C 710.7065,611.9784 717.3756,611.0968 719.47672,610.96958 C 721.57785,610.84236 723.49179,610.423 723.72993,610.03768 C 723.96808,609.65236 681.29898,609.3467 628.90971,609.35844 C 576.52044,609.37018 490.74659,609.30196 438.30114,609.20684 C 385.85569,609.11172 342.76212,609.21755 342.53764,609.44202 C 342.31317,609.66649 347.19809,610.1435 353.39301,610.50203 C 362.72758,611.04227 365.51277,611.59501 369.6565,613.7296 C 373.93626,615.93426 375.30471,616.18653 379.1565,615.48089 C 381.6315,615.02748 453.4065,614.6565 538.6565,614.6565 z M 463.32983,593.44264 C 497.90297,592.58066 522.82758,593.08317 545.12132,593.1565 L 624.1565,593.1565 L 624.1565,586.6565 L 624.1565,580.1565 L 628.57317,580.1565 C 631.00233,580.1565 633.15314,579.66657 633.35275,579.06776 C 633.60433,578.31302 635.50035,578.44506 639.53317,579.49818 C 642.7328,580.33372 645.56535,581.23202 645.82774,581.49441 C 646.31162,581.97829 636.26593,585.1565 634.25259,585.1565 C 633.64974,585.1565 633.1565,584.7065 633.1565,584.1565 C 633.1565,583.6065 631.8065,583.1565 630.1565,583.1565 C 627.22317,583.1565 627.1565,583.26761 627.1565,588.1565 L 627.1565,593.1565 L 631.6565,593.1565 C 686.18398,593.10554 742.6115,593.21956 797.9065,592.73136 C 840.33866,593.48799 882.5917,592.27106 925.00523,592.22896 C 989.40713,592.18561 985.98068,592.57132 993.02159,584.57243 C 995.3979,581.87282 997.58,577.8708 998.8142,573.94885 C 1003.4063,559.35602 998.0125,535.89049 986.98554,522.48903 C 985.15457,520.26379 982.7565,517.30433 981.6565,515.91244 C 979.80684,513.57198 964.91792,497.19131 959.1565,491.15813 C 957.7815,489.71827 953.2815,484.76182 949.1565,480.14379 C 928.19669,456.67881 919.09268,447.70762 910.34363,441.89717 C 902.77349,436.86965 899.38995,435.54069 890.73266,434.19452 C 884.25414,433.18713 871.20903,434.99166 858.6565,438.63162 C 855.3565,439.58854 851.3065,440.7498 849.6565,441.2122 C 848.0065,441.6746 843.7315,442.90788 840.1565,443.95283 C 836.5815,444.99778 826.9065,447.78009 818.6565,450.13574 C 810.4065,452.49139 796.6815,456.42548 788.1565,458.87817 C 779.6315,461.33087 771.9815,463.49709 771.1565,463.69201 C 768.31037,464.36445 743.63369,471.14396 735.1565,473.58242 C 730.4815,474.92718 723.0565,477.00705 718.6565,478.20435 C 714.2565,479.40165 708.6315,480.97772 706.1565,481.70673 C 703.6815,482.43574 693.7815,485.11215 684.1565,487.6543 C 674.5315,490.19646 662.72389,493.4063 657.91736,494.78729 C 649.81254,496.84992 645.84632,498.18987 638.1565,500.26353 C 634.0315,501.39651 628.4065,502.90573 625.6565,503.61737 C 622.9065,504.32901 612.3315,507.2516 602.1565,510.11202 C 567.06792,519.97621 547.6216,525.31539 536.40209,528.16552 C 530.21217,529.73797 524.19331,531.32743 523.02686,531.69765 C 519.83737,532.16106 514.18526,532.56128 509.2815,532.74069 C 506.29722,532.39322 500.52636,530.13923 498.60875,528.51048 C 496.08113,526.83967 493.44091,525.64685 490.97726,523.1565 C 488.03695,523.1565 482.42495,513.3709 479.62943,503.36938 C 477.22741,494.77569 478.01314,474.46087 481.08807,465.6565 C 487.19579,448.16845 494.01777,438.17688 509.91515,423.43597 C 516.30899,417.50726 526.10737,408.1565 531.68934,402.6565 C 537.27132,397.1565 547.36052,387.4815 554.10979,381.1565 C 566.57105,369.47858 568.14977,367.98159 585.74775,351.1565 C 600.23013,337.31018 620.19415,318.7851 623.6565,315.98008 C 635.20732,306.62221 643.34315,303.67515 657.6565,303.66417 C 668.25102,303.65604 667.67403,303.50761 689.6565,311.89643 C 694.6065,313.78542 701.5815,316.44378 705.1565,317.8039 C 708.7315,319.16402 713.6815,321.11431 716.1565,322.13787 C 736.59862,330.59194 751.1565,335.52312 751.1565,333.9934 C 751.1565,333.45453 751.86364,333.72079 752.72793,334.58507 C 754.58591,336.44305 766.92883,336.72928 774.1565,335.08199 C 790.05842,331.45772 804.10945,318.86872 810.34776,302.6565 C 812.25084,297.71074 812.6471,294.81158 812.60298,286.1565 C 812.5393,273.66202 810.72567,267.79005 803.63682,257.1269 C 797.94949,248.57193 792.70454,244.42656 779.6565,238.17392 C 760.675,229.07797 743.62393,220.91355 733.6565,216.14812 C 728.1565,213.51857 719.1565,209.34061 713.6565,206.86375 C 708.1565,204.3869 699.6065,200.47417 694.6565,198.1688 C 689.7065,195.86343 678.0065,190.68459 668.6565,186.66026 C 651.60771,179.32231 634.99818,172.00299 625.6565,167.71146 C 622.9065,166.44812 617.7315,164.17041 614.1565,162.64988 C 610.5815,161.12936 602.0315,157.28643 595.1565,154.11005 C 583.18934,148.581 574.50417,145.55453 563.6565,143.13342 C 557.0834,141.66636 540.94995,141.65129 534.69304,143.10637 C 527.9128,144.68315 516.08677,149.50889 507.6565,154.13893 C 503.8065,156.25341 498.6315,159.09024 496.1565,160.44299 C 491.54713,162.96233 489.72615,163.97185 456.1565,182.6183 C 427.77695,198.38188 422.54955,202.22062 411.19416,215.63636 C 396.38777,233.12923 389.7002,246.66797 383.7695,271.1565 C 381.37779,281.03216 362.03814,359.72653 353.54146,394.1565 C 331.79449,482.27885 329.9308,488.90106 324.27986,498.1311 C 316.66073,510.57593 305.21058,520.1034 288.71271,527.72588 C 268.36969,537.12493 241.50322,538.75832 219.1565,531.95464 C 205.58266,527.82196 190.74747,518.72506 179.57667,507.6844 C 167.5909,495.83827 160.81288,484.3613 155.03126,466.12256 C 151.85419,456.10015 151.71274,454.97826 151.69425,439.6565 C 151.67705,425.39758 151.96318,422.61179 154.32366,414.05589 C 159.88571,393.89551 168.32812,379.03764 181.42352,366.36265 C 188.11938,359.88176 193.97086,355.33823 210.93221,343.44989 C 218.48057,338.15919 226.4565,332.54829 228.6565,330.98122 C 230.8565,329.41416 236.4815,325.614 241.1565,322.53641 C 251.64828,315.6296 259.86539,309.45065 262.93941,306.1565 C 268.56534,300.1277 269.89832,290.80722 266.23732,283.09668 C 264.26626,278.94535 262.56303,276.71114 254.98602,268.33778 C 248.24367,260.8868 245.02448,249.30865 247.10767,240.00249 C 249.88443,227.59791 255.07245,221.2447 276.14107,204.44837 C 276.97456,203.7839 284.1815,197.91705 292.1565,191.41094 C 300.1315,184.90482 310.4815,176.50021 315.1565,172.73401 C 319.8315,168.96782 325.6815,164.20253 328.1565,162.14448 C 343.64797,149.2628 361.30878,134.84386 382.0527,118.14161 C 390.40596,111.41588 398.33773,104.47439 399.67885,102.71608 C 405.29763,95.349479 406.54119,85.932452 403.10722,76.754337 C 399.89474,68.168222 395.27822,64.816789 378.1565,58.640984 C 374.0315,57.153097 367.2815,54.6716 363.1565,53.126547 C 359.0315,51.581495 350.4815,48.450076 344.1565,46.167838 C 337.8315,43.885601 325.6815,39.385184 317.1565,36.166913 C 308.6315,32.948641 299.16496,29.779599 296.11974,29.124596 C 288.21718,27.424817 278.80112,29.061909 270.8574,33.516749 C 261.24509,38.907335 257.2398,44.060218 250.16427,60.138841 C 248.00847,65.03774 243.9748,73.822611 241.20057,79.660776 C 238.42633,85.498941 236.1565,90.414591 236.1565,90.584444 C 236.1565,90.754297 233.4565,96.563299 230.1565,103.49334 C 226.8565,110.42338 224.1565,116.30246 224.1565,116.55796 C 224.1565,116.81345 221.05715,123.46515 217.26906,131.3395 C 213.48098,139.21385 209.37474,147.9065 208.1441,150.6565 C 206.91346,153.4065 203.2628,161.19735 200.03153,167.96951 C 196.80027,174.74166 194.1565,180.44475 194.1565,180.64305 C 194.1565,180.84134 191.2315,187.13041 187.6565,194.61876 C 184.0815,202.10711 181.1565,208.45068 181.1565,208.7156 C 181.1565,208.98051 179.40813,212.90059 177.27124,217.42688 C 167.54563,238.0273 158.1565,258.30979 158.1565,258.71871 C 158.1565,258.96546 154.84318,266.02741 150.79357,274.41193 C 146.74396,282.79644 142.7302,291.2315 141.8741,293.1565 C 138.99718,299.62549 126.7199,325.67775 116.6449,346.69261 C 112.96287,354.37275 107.95389,365.08643 105.51384,370.50079 C 103.07379,375.91515 98.452789,385.59015 95.244949,392.00079 C 90.408257,401.6666 84.24561,414.89962 71.550846,442.87905 C 70.746675,444.65145 69.103505,449.60145 67.899356,453.87905 C 65.863113,461.11256 65.712887,463.75463 65.751368,491.6565 C 65.80027,527.11445 66.871903,563.23652 68.021351,568.17198 C 70.163085,577.36808 76.819024,585.90894 85.156499,590.1597 C 89.094147,592.16726 91.258196,592.47239 102.47344,592.60142 C 109.52276,592.68253 126.64104,592.80451 131.62702,592.34973 C 176.26686,593.11491 197.27522,593.08941 237.6565,593.08062 L 463.32983,593.44264 z "
     id="path2290"
     sodipodi:nodetypes="cssssssssssssssssssssssssscccsssssssssssssssssssssssssssssssssssssssssssssssssssssccsssssssssssssssssssssssssssssssssssssccssssssssscccccccsssssscccccssssssssssssssssssccsssccccsssssssssssssssssssssssssssssssssssssssssssssssssssssssssssssssssssssssssssssssssssssccc" />
</svg>
