<?xml version="1.0" encoding="utf-8"?>
<!-- Generator: Adobe Illustrator 28.0.0, SVG Export Plug-In . SVG Version: 6.00 Build 0)  -->
<svg version="1.1" id="Capa_1" xmlns="http://www.w3.org/2000/svg" xmlns:xlink="http://www.w3.org/1999/xlink" x="0px" y="0px"
	 viewBox="0 0 210 121" style="enable-background:new 0 0 210 121;" xml:space="preserve">
<style type="text/css">
	.st0{fill:#585E65;}
	.st1{fill:#9FA0A4;}
	.st2{fill:#08161F;}
	.st3{enable-background:new    ;}
	.st4{fill:none;}
	.st5{fill:#E6E6E6;}
	.st6{fill:#C80502;}
	.st7{fill:#EDEDED;}
	.st8{fill:#323232;}
	.st9{fill:#FAFAFA;}
</style>
<path class="st0" d="M84.3,55.7c-0.8,0-1.5-0.1-2.1-0.2c-3.1-0.9-4.2-5.8-5.1-9.8c-0.3-1.4-0.6-2.7-0.9-3.4l1.3-0.6
	c0.4,0.8,0.7,2.2,1,3.7c0.8,3.4,1.9,8.1,4.1,8.7c2.1,0.6,5.9-0.2,8.4-1.6c1.2-0.7,1.9-1.5,2.1-2.2c0-0.1,0.1-0.7-1.5-2.7
	c-1.1-1.4-2.6-2.9-3.9-4.3c-1.4-1.5-2.7-2.8-3.1-3.6l1.2-0.7c0.4,0.7,1.6,2,2.9,3.3c3.7,3.9,6.2,6.6,5.7,8.3
	c-0.3,1.2-1.3,2.2-2.8,3.1C89.7,54.9,86.7,55.7,84.3,55.7L84.3,55.7z"/>
<path class="st1" d="M74,113.8c-1.8,0-4.3-1.4-7.9-4.2l-0.2-0.1c-8.8-7.1-30.1-24.1-37-29.4c-0.7-0.6-3.3-2.6-8.2-6.6l0,0
	c-1.7-1.3-3.4-2.7-4.9-3.9c-2.4-1.9-4.2-3.4-4.7-3.8c-1.6-1.3-2.3-2.5-2.1-3.7c0.2-1.8,2.3-2.8,4-3.6c8.2-3.8,20-8.6,20.8-8.9
	c0,0,0,0,0.1,0c4.1-1.8,6.2,0.2,7.1,1.5c1.8,2.7,7.3,10.3,10.5,14.6c1.9,2.7,4.7,4.5,7.8,5.1c3.3,0.7,6.3,0.1,9-1.8
	c8.1-5.6,8.3-9.5,6.3-13.6c-2.4-4.8-7-12.8-7.5-13.7C67,41.6,67,41.5,67,41.4v-0.1c-0.2-0.5-0.8-1.9,0.1-3.1
	c0.8-1.1,2.6-1.3,5.5-0.9c4.7,0.8,7.8,8.6,8.3,10.2c0.2,0.7,0.9,1.3,1.8,1.7c1.8,0.8,4.2,0.7,6.2-0.1c0.4-0.2,0.6-0.3,0.6-0.5
	c0.2-0.9-1.3-3.1-2.7-5c-0.4-0.6-0.8-1.1-1.2-1.8c-1.4-2.1-2.9-4.1-4.1-5.7c-1.6-2.1-2.4-3.3-2.7-3.9c-0.4-0.8-0.8-1.9-0.2-2.9
	c0.7-1.2,2.3-1.8,5.7-2l1.5-0.1c14.2-1.1,40.6-3.3,60-7.7c26.2-6,39.5-9.8,47.4-12.1c1-0.3,1.9-0.6,2.8-0.8c3.3-0.9,5-0.8,5.8,0.3
	c1,1.5-0.4,3.8-3.4,7.4c-0.5,0.6-2.1,2.5-4.3,5.1c-5.1,6-12.8,15.1-16.8,19.9c-1.6,2-2.9,2.2-6.5,2.8c-1.5,0.3-3.3,0.6-5.8,1.1
	c-1.8,0.4-3.3,0.8-4.5,1c-4.8,1.1-6.5,1.5-8-1.3c-0.7-1.4-2.2-3.1-4-3.4c-1.3-0.2-2.6,0.2-3.8,1.4c-1,0.9-2,2-2.9,2.9
	c-3.3,3.5-6.6,7.1-11.9,4.4c-1.2-0.6-2.3-1.3-3.3-1.8c-4.4-2.5-6.8-3.9-11.6-1.2c-5,2.8-5.6,5.4-5.9,8.1c-0.5,4.9-1.9,7.9-7.9,9.7
	c-3,0.9-4,3.4-5,6c-0.5,1.4-1,2.7-1.8,3.7c-1.7,2.1-5.8,4.5-10.2,6.9c-1.8,1-3.7,2.1-5.3,3.1l-0.4,0.2c-3.3,2-7.1,4.3-6.3,10.9
	c0.2,2.2,3,10.5,4,13.4l0,0c0.2,0.7,1.3,4.5-0.7,5.9C75.1,113.7,74.6,113.8,74,113.8L74,113.8z M22.1,72c3,2.5,7.2,5.8,8.1,6.6
	c6.9,5.3,28.2,22.3,37,29.4l0.2,0.1c5.5,4.4,6.8,3.8,6.9,3.7c0.5-0.3,0.4-2.2-0.1-3.6c-0.2-0.6-3.8-11-4.1-13.9
	c-0.9-7.8,4.1-10.8,7.3-12.8l0.4-0.2c1.7-1,3.6-2.1,5.4-3.1c4-2.3,8.2-4.6,9.6-6.4c0.6-0.8,1.1-2,1.6-3.2c1-2.7,2.3-6,6.3-7.2
	c5-1.5,6-3.6,6.4-8c0.3-3,1.1-6.5,6.9-9.7s9-1.3,13.6,1.2c1,0.6,2.1,1.2,3.2,1.8c3.7,1.9,5.9-0.2,9.4-4c0.9-1,1.9-2,3-3
	c2.2-2,4.2-2.2,5.6-1.9c2.2,0.4,4.2,2,5.4,4.5c0.7,1.3,0.7,1.4,5.7,0.2c1.2-0.3,2.8-0.7,4.6-1c2.5-0.5,4.5-0.9,5.9-1.1
	c3.7-0.7,4.2-0.8,5.3-2.1c4-4.8,11.7-13.9,16.8-20c2.1-2.5,3.8-4.4,4.3-5.1c2.8-3.3,3.2-4.5,3.2-4.9c-0.2-0.1-1-0.2-3.5,0.5
	c-0.9,0.2-1.8,0.5-2.8,0.8c-7.9,2.3-21.2,6.1-47.5,12.1c-19.6,4.5-46.1,6.6-60.3,7.8l-1.5,0.1c-3.4,0.3-4,0.9-4.1,1
	c0,0.1-0.1,0.3,0.2,1c0.2,0.5,1.3,2,2.5,3.6c1.2,1.6,2.7,3.7,4.1,5.8c0.4,0.6,0.8,1.2,1.2,1.7c1.9,2.8,3.5,4.9,3,6.8
	c-0.2,0.8-0.8,1.4-1.8,1.8c-2.5,1.1-5.5,1.1-7.8,0.1c-1.5-0.6-2.5-1.6-2.9-2.9c-1-2.9-3.7-8.4-6.7-8.9s-3.5,0.1-3.6,0.1
	c-0.1,0.1-0.1,0.3,0.2,1c0,0.1,0.1,0.1,0.1,0.2c0.5,1,5.2,9,7.5,13.8c3,6,0.9,10.8-6.9,16.2c-3.2,2.2-6.7,2.9-10.6,2.1
	c-3.6-0.7-6.8-2.8-9.1-5.9c-3.2-4.3-8.7-12-10.5-14.7c-1-1.5-2.4-1.7-4.5-0.8c-0.1,0-0.1,0.1-0.2,0.1C33.7,52,22,56.8,13.8,60.6
	c-1,0.5-2.7,1.2-2.8,2c0,0.2,0,0.7,1.4,1.8c0.5,0.4,2.4,1.9,4.7,3.8C18.7,69.2,20.4,70.6,22.1,72L22.1,72L22.1,72z"/>
<circle class="st2" cx="80.6" cy="116.3" r="3.5"/>
<g class="st3">
	<path class="st1" d="M79.6,117.4h0.8v-2.1l0,0l-0.7,0.2l-0.1-0.6l1-0.3h0.6v2.8h0.7v0.5h-2.2v-0.5H79.6z"/>
</g>
<circle class="st2" cx="77.9" cy="91.1" r="3.5"/>
<g class="st3">
	<path class="st1" d="M76.9,92.2c0-0.7,0.2-1,0.8-1.2l0.4-0.1c0.3-0.1,0.4-0.2,0.4-0.5l0,0c0-0.3-0.2-0.4-0.5-0.4s-0.7,0.1-0.8,0.2
		l-0.1-0.5c0.2-0.1,0.6-0.2,1.1-0.2c0.7,0,1.1,0.3,1.1,1v0.1c0,0.6-0.2,0.8-0.7,1L78,91.5c-0.4,0.1-0.5,0.3-0.5,0.5v0.2H79v0.5h-2.2
		L76.9,92.2L76.9,92.2z"/>
</g>
<circle class="st2" cx="97.7" cy="77.7" r="3.5"/>
<g class="st3">
	<path class="st1" d="M96.6,79.2l0.1-0.5c0.2,0.1,0.6,0.2,0.9,0.2c0.4,0,0.6-0.1,0.6-0.5l0,0c0-0.4-0.2-0.5-0.6-0.5h-0.4v-0.5h0.3
		c0.4,0,0.6-0.1,0.6-0.4l0,0c0-0.3-0.2-0.4-0.5-0.4s-0.6,0.1-0.8,0.2l-0.2-0.5c0.3-0.1,0.7-0.2,1.1-0.2c0.6,0,1.1,0.2,1.1,0.8V77
		c0,0.3-0.2,0.6-0.5,0.7l0,0c0.3,0.1,0.6,0.3,0.6,0.8v0.1c0,0.7-0.5,1-1.3,1C97.2,79.4,96.8,79.3,96.6,79.2z"/>
</g>
<circle class="st2" cx="102.7" cy="68.8" r="3.5"/>
<g class="st3">
	<path class="st1" d="M103,69.8h-1.6v-0.4l1.1-2.3h0.8l-1.1,2.1h0.8v-1h0.7v1h0.4v0.6h-0.4v0.7H103V69.8z"/>
</g>
<circle class="st2" cx="110.5" cy="64.5" r="3.5"/>
<g class="st3">
	<path class="st1" d="M111.7,65.1L111.7,65.1c0,0.8-0.4,1.1-1.2,1.1c-0.6,0-0.9-0.1-1.2-0.3l0.2-0.5c0.3,0.2,0.6,0.3,0.9,0.3
		c0.4,0,0.6-0.1,0.6-0.5l0,0c0-0.4-0.2-0.5-0.6-0.5c-0.2,0-0.5,0-0.7,0l-0.2-0.2l0.1-1.7h1.9v0.6h-1.3l-0.1,0.7c0.1,0,0.2,0,0.3,0
		C111.2,64.1,111.7,64.3,111.7,65.1z"/>
</g>
<circle class="st2" cx="117" cy="50.8" r="3.5"/>
<g class="st3">
	<path class="st1" d="M118.3,51.4L118.3,51.4c0,0.8-0.4,1.1-1.2,1.1c-1,0-1.2-0.5-1.2-1.6v-0.1c0-1.4,0.5-1.7,1.3-1.7
		c0.3,0,0.6,0.1,0.8,0.1l-0.1,0.5c-0.2-0.1-0.4-0.1-0.7-0.1c-0.4,0-0.7,0.1-0.7,0.8c0.2,0,0.4,0,0.6,0
		C117.8,50.4,118.3,50.6,118.3,51.4z M117.6,51.4c0-0.4-0.1-0.5-0.5-0.5c-0.2,0-0.3,0-0.5,0c0,0.7,0.1,1,0.5,1
		C117.4,52,117.6,51.8,117.6,51.4L117.6,51.4z"/>
</g>
<circle class="st2" cx="134.8" cy="55" r="3.5"/>
<g class="st3">
	<path class="st1" d="M135.3,53.9h-1.6v-0.6h2.4v0.5l-1.3,2.9H134L135.3,53.9z"/>
</g>
<circle class="st2" cx="147.6" cy="46" r="3.5"/>
<g class="st3">
	<path class="st1" d="M148.9,46.8L148.9,46.8c0,0.7-0.4,1-1.2,1c-0.9,0-1.2-0.3-1.2-1l0,0c0-0.4,0.2-0.6,0.5-0.8
		c-0.2-0.1-0.4-0.4-0.4-0.7l0,0c0-0.6,0.4-0.9,1.2-0.9c0.7,0,1.1,0.3,1.1,0.9l0,0c0,0.3-0.1,0.6-0.4,0.7
		C148.8,46.1,148.9,46.3,148.9,46.8z M148.2,46.7c0-0.3-0.1-0.5-0.5-0.5l0,0c-0.3,0-0.5,0.1-0.5,0.5l0,0c0,0.3,0.1,0.5,0.5,0.5
		C148.1,47.2,148.2,47.1,148.2,46.7L148.2,46.7z M147.3,45.3c0,0.3,0.1,0.4,0.4,0.4l0,0c0.3,0,0.4-0.2,0.4-0.4l0,0
		c0-0.3-0.1-0.4-0.4-0.4C147.4,44.8,147.3,45,147.3,45.3L147.3,45.3z"/>
</g>
<circle class="st2" cx="154.9" cy="50.8" r="3.5"/>
<g class="st3">
	<path class="st1" d="M156.2,50.4V51c0,0.9-0.2,1.5-1.2,1.5c-0.4,0-0.7-0.1-1-0.1l0.1-0.6c0.2,0.1,0.6,0.1,0.8,0.1
		c0.4,0,0.6-0.2,0.6-0.7c-0.2,0-0.4,0-0.6,0c-0.8,0-1.1-0.3-1.1-1.1V50c0-0.7,0.4-1.1,1.2-1.1C155.8,49.1,156.2,49.5,156.2,50.4z
		 M155,50.7c0.2,0,0.4,0,0.5,0v-0.1c0-0.8-0.1-1-0.5-1s-0.5,0.2-0.5,0.5l0,0C154.5,50.6,154.6,50.7,155,50.7z"/>
</g>
<circle class="st2" cx="179.9" cy="44.7" r="3.5"/>
<g class="st3">
	<path class="st1" d="M177.6,45.8h0.8v-2.1l0,0l-0.7,0.2l-0.1-0.6l1-0.3h0.6v2.8h0.7v0.5h-2.2v-0.5H177.6z"/>
	<path class="st1" d="M180.5,46.1c-0.2-0.2-0.3-0.6-0.3-1.4v-0.1c0-0.7,0.1-1.1,0.3-1.4c0.2-0.2,0.5-0.3,0.9-0.3
		c0.5,0,0.8,0.1,1,0.3c0.2,0.3,0.3,0.6,0.3,1.3v0.1c0,0.8-0.1,1.1-0.3,1.3s-0.5,0.3-0.9,0.3C181,46.4,180.7,46.3,180.5,46.1z
		 M181.8,45.7c0.1-0.2,0.2-0.5,0.2-1v-0.1c0-0.5,0-0.8-0.1-1c-0.1-0.1-0.2-0.1-0.4-0.1s-0.4,0-0.4,0.1c-0.1,0.2-0.1,0.5-0.1,1v0.1
		c0,0.5,0,0.8,0.1,1c0.1,0.1,0.2,0.2,0.4,0.2C181.6,45.8,181.7,45.8,181.8,45.7z"/>
</g>
<circle class="st2" cx="206.5" cy="4" r="3.5"/>
<g class="st3">
	<path class="st1" d="M204.1,5.1h0.8V3l0,0l-0.7,0.2L204,2.6l1-0.3h0.6v2.8h0.7v0.5h-2.2V5.1z"/>
	<path class="st1" d="M206.9,5.1h0.8V3l0,0L207,3.2l-0.1-0.6l1-0.3h0.6v2.8h0.7v0.5H207V5.1H206.9z"/>
</g>
<circle class="st2" cx="74.7" cy="25.2" r="3.5"/>
<g class="st3">
	<path class="st1" d="M72.4,26.3h0.8v-2.1l0,0l-0.7,0.2l-0.1-0.6l1-0.3H74v2.8h0.7v0.5h-2.2v-0.5H72.4z"/>
	<path class="st1" d="M75.1,26.3c0-0.7,0.2-1,0.8-1.2l0.4-0.1c0.3-0.1,0.4-0.2,0.4-0.5l0,0c0-0.3-0.2-0.4-0.5-0.4s-0.7,0.1-0.8,0.2
		l-0.1-0.5c0.2-0.1,0.6-0.2,1.1-0.2c0.7,0,1.1,0.3,1.1,1v0.1c0,0.6-0.2,0.8-0.7,1l-0.4,0.1c-0.4,0.1-0.5,0.3-0.5,0.5v0.2h1.5V27
		h-2.2v-0.7H75.1z"/>
</g>
<circle class="st2" cx="99.1" cy="51.5" r="3.5"/>
<g class="st3">
	<path class="st1" d="M96.7,52.6h0.8v-2.1l0,0l-0.7,0.2l-0.1-0.6l1-0.3h0.6v2.8H99v0.5h-2.2v-0.5H96.7z"/>
	<path class="st1" d="M99.4,53l0.1-0.5c0.2,0.1,0.6,0.2,0.9,0.2c0.4,0,0.6-0.1,0.6-0.5l0,0c0-0.4-0.2-0.5-0.6-0.5H100v-0.5h0.3
		c0.4,0,0.6-0.1,0.6-0.4l0,0c0-0.3-0.2-0.4-0.5-0.4s-0.6,0.1-0.8,0.2L99.4,50c0.3-0.1,0.7-0.2,1.1-0.2c0.6,0,1.1,0.2,1.1,0.8v0.1
		c0,0.3-0.2,0.6-0.5,0.7l0,0c0.3,0.1,0.6,0.3,0.6,0.8v0.1c0,0.7-0.5,1-1.3,1C100,53.2,99.6,53.1,99.4,53z"/>
</g>
<circle class="st2" cx="83.4" cy="60.1" r="3.5"/>
<g class="st3">
	<path class="st1" d="M81,61.2h0.8v-2.1l0,0l-0.7,0.2L81,58.7l1-0.3h0.6v2.8h0.7v0.5H81V61.2z"/>
	<path class="st1" d="M85.2,61.1h-1.6v-0.4l1.1-2.3h0.8l-1.1,2.1h0.8v-1h0.7v1h0.4v0.6h-0.4v0.7h-0.7C85.2,61.8,85.2,61.1,85.2,61.1
		z"/>
</g>
<circle class="st2" cx="68.2" cy="32.5" r="3.5"/>
<g class="st3">
	<path class="st1" d="M65.9,33.6h0.8v-2.1l0,0L66,31.7l-0.1-0.6l1-0.3h0.6v2.8H68v0.5h-2.2L65.9,33.6L65.9,33.6z"/>
	<path class="st1" d="M70.9,33.1L70.9,33.1c0,0.8-0.4,1.1-1.2,1.1c-0.6,0-0.9-0.1-1.2-0.3l0.2-0.5c0.3,0.2,0.6,0.3,0.9,0.3
		c0.4,0,0.6-0.1,0.6-0.5l0,0c0-0.4-0.2-0.5-0.6-0.5c-0.2,0-0.5,0-0.7,0l-0.2-0.2l0.1-1.7h1.9v0.6h-1.3l-0.1,0.7c0.1,0,0.2,0,0.3,0
		C70.4,32.1,70.9,32.3,70.9,33.1z"/>
</g>
<circle class="st2" cx="69.4" cy="57.9" r="3.5"/>
<g class="st3">
	<path class="st1" d="M67.1,59h0.8v-2.1l0,0l-0.7,0.2L67,56.5l1-0.3h0.6V59h0.7v0.5h-2.2V59z"/>
	<path class="st1" d="M72.1,58.5L72.1,58.5c0,0.8-0.4,1.1-1.2,1.1c-1,0-1.2-0.5-1.2-1.6v-0.1c0-1.4,0.5-1.7,1.3-1.7
		c0.3,0,0.6,0.1,0.8,0.1l-0.1,0.5c-0.2-0.1-0.4-0.1-0.7-0.1c-0.4,0-0.7,0.1-0.7,0.8c0.2,0,0.4,0,0.6,0
		C71.7,57.4,72.1,57.7,72.1,58.5z M71.4,58.5c0-0.4-0.1-0.5-0.5-0.5c-0.2,0-0.3,0-0.5,0c0,0.7,0.1,1,0.5,1
		C71.3,59.1,71.4,58.9,71.4,58.5L71.4,58.5z"/>
</g>
<circle class="st2" cx="77.5" cy="71.8" r="3.5"/>
<g class="st3">
	<path class="st1" d="M75.1,72.9h0.8v-2.1l0,0L75.1,71L75,70.5l1-0.3h0.6V73h0.7v0.6h-2.2V72.9z"/>
	<path class="st1" d="M79.4,70.7h-1.6v-0.6h2.4v0.5l-1.3,2.9H78L79.4,70.7z"/>
</g>
<circle class="st2" cx="59.8" cy="65.2" r="3.5"/>
<g class="st3">
	<path class="st1" d="M57.5,66.3h0.8v-2.1l0,0l-0.7,0.2l-0.1-0.6l1-0.3H59v2.8h0.7v0.5h-2.2V66.3z"/>
	<path class="st1" d="M62.5,65.9L62.5,65.9c0,0.7-0.4,1-1.2,1c-0.9,0-1.2-0.3-1.2-1l0,0c0-0.4,0.2-0.6,0.5-0.8
		c-0.2-0.1-0.4-0.4-0.4-0.7l0,0c0-0.6,0.4-0.9,1.2-0.9c0.7,0,1.1,0.3,1.1,0.9l0,0c0,0.3-0.1,0.6-0.4,0.7
		C62.4,65.2,62.5,65.5,62.5,65.9z M61.8,65.8c0-0.3-0.1-0.5-0.5-0.5l0,0c-0.3,0-0.5,0.1-0.5,0.5l0,0c0,0.3,0.1,0.5,0.5,0.5
		S61.8,66.2,61.8,65.8L61.8,65.8z M60.9,64.4c0,0.3,0.1,0.4,0.4,0.4l0,0c0.3,0,0.4-0.2,0.4-0.4l0,0c0-0.3-0.1-0.4-0.4-0.4
		C61,63.9,60.9,64.1,60.9,64.4L60.9,64.4z"/>
</g>
<circle class="st2" cx="38.5" cy="43.4" r="3.5"/>
<g class="st3">
	<path class="st1" d="M36.1,44.5h0.8v-2.1l0,0l-0.7,0.2L36,42l1-0.3h0.6v2.8h0.7V45h-2.2V44.5z"/>
	<path class="st1" d="M41.2,42.9v0.7c0,0.9-0.2,1.5-1.2,1.5c-0.4,0-0.7-0.1-1-0.1l0.1-0.6c0.2,0.1,0.6,0.1,0.8,0.1
		c0.4,0,0.6-0.2,0.6-0.7c-0.2,0-0.4,0-0.6,0c-0.8,0-1.1-0.3-1.1-1.1v-0.1c0-0.7,0.4-1.1,1.2-1.1C40.8,41.6,41.2,42,41.2,42.9z
		 M40,43.3c0.2,0,0.4,0,0.5,0v-0.1c0-0.8-0.1-1-0.5-1s-0.5,0.2-0.5,0.5l0,0C39.5,43.1,39.6,43.3,40,43.3z"/>
</g>
<circle class="st2" cx="3.5" cy="62.3" r="3.5"/>
<g class="st3">
	<path class="st1" d="M1,63.3c0-0.7,0.2-1,0.8-1.2L2.2,62c0.3-0.1,0.4-0.2,0.4-0.5l0,0c0-0.3-0.2-0.4-0.5-0.4s-0.7,0.1-0.8,0.2
		L1,60.8c0.2-0.1,0.6-0.2,1.1-0.2c0.7,0,1.1,0.3,1.1,1v0.1c0,0.6-0.2,0.8-0.7,1l-0.4,0.1c-0.4,0.1-0.5,0.3-0.5,0.5v0.2h1.5v0.6H1
		V63.3z"/>
	<path class="st1" d="M4.1,63.7c-0.2-0.2-0.3-0.6-0.3-1.4v-0.1c0-0.7,0.1-1.1,0.3-1.4c0.2-0.2,0.5-0.3,0.9-0.3c0.5,0,0.8,0.1,1,0.3
		c0.2,0.3,0.3,0.6,0.3,1.3v0.1c0,0.8-0.1,1.1-0.3,1.3C5.7,63.9,5.4,64,5,64S4.3,63.9,4.1,63.7z M5.4,63.3c0.1-0.2,0.2-0.5,0.2-1
		v-0.1c0-0.5,0-0.8-0.1-1c-0.1-0.1-0.2-0.1-0.4-0.1c-0.2,0-0.4,0-0.4,0.1c-0.1,0.2-0.1,0.5-0.1,1v0.1c0,0.5,0,0.8,0.1,1
		c0.1,0.1,0.2,0.2,0.4,0.2C5.2,63.4,5.3,63.4,5.4,63.3z"/>
</g>
<line class="st4" x1="23.6" y1="70.3" x2="18.1" y2="77"/>
<rect x="16.5" y="73.3" transform="matrix(0.6389 -0.7693 0.7693 0.6389 -49.1555 42.6293)" class="st5" width="8.6" height="0.7"/>
<path class="st6" d="M20.4,76.5h-8.6l0,0v7.8h8.6V76.5z"/>
<g class="st3">
	<path class="st7" d="M13.4,78.9c0-0.6,0.3-0.9,0.9-0.9h2.1v0.8h-1.7c-0.1,0-0.2,0.1-0.2,0.2v0.9h1.8v0.8h-1.8v2h-1L13.4,78.9
		L13.4,78.9z"/>
	<path class="st7" d="M17.3,82v-4h1v3.8c0,0.1,0,0.1,0.1,0.1h1.4v0.8H18C17.5,82.7,17.3,82.5,17.3,82z"/>
</g>
<rect x="119.4" y="52" transform="matrix(0.4406 -0.8977 0.8977 0.4406 23.0155 141.5723)" class="st7" width="11.4" height="0.7"/>
<path class="st6" d="M128.6,54H120l0,0v7.8h8.6V54z"/>
<g class="st3">
	<path class="st7" d="M122,55.2h1v1h-1V55.2z M122,56.6h0.9v3.6H122V56.6z"/>
	<path class="st7" d="M124.1,59.4h1.1v-3l0,0l-1,0.3l-0.2-0.8l1.4-0.4h0.9v4h1v0.8h-3.1v-0.9H124.1z"/>
</g>
<rect x="60.1" y="44" transform="matrix(0.9094 -0.416 0.416 0.9094 -12.4393 31.5594)" class="st7" width="12.2" height="0.7"/>
<path class="st6" d="M61.7,42.9h-8.6l0,0v7.8h8.6C61.7,50.7,61.7,42.9,61.7,42.9z"/>
<g class="st3">
	<path class="st7" d="M55.1,44.2h1v1h-1V44.2z M55.1,45.6H56v3.6h-0.9V45.6z"/>
	<path class="st7" d="M56.9,49l0.1-0.8c0.3,0.2,0.8,0.3,1.3,0.3c0.6,0,0.9-0.2,0.9-0.7v-0.1c0-0.5-0.3-0.7-0.8-0.7h-0.6v-0.8h0.4
		c0.6,0,0.8-0.1,0.8-0.6v-0.1c0-0.4-0.3-0.5-0.7-0.5c-0.5,0-0.9,0.1-1.2,0.3L57,44.7c0.4-0.2,0.9-0.3,1.6-0.3c0.9,0,1.6,0.3,1.6,1.2
		v0.1c0,0.5-0.2,0.9-0.7,1l0,0c0.5,0.1,0.8,0.5,0.8,1.1v0.1c0,1-0.6,1.4-1.8,1.4C57.8,49.2,57.3,49.1,56.9,49z"/>
</g>
<rect x="166.8" y="6.6" transform="matrix(0.9801 -0.1985 0.1985 0.9801 0.8237 33.4291)" class="st7" width="0.7" height="12"/>
<path class="st6" d="M170.9,2.8h-8.6l0,0v7.8h8.6V2.8z"/>
<g class="st3">
	<path class="st7" d="M164.3,4.1h1v1h-1V4.1z M164.3,5.5h0.9v3.6h-0.9V5.5z"/>
	<path class="st7" d="M166.2,8.2c0-1,0.3-1.4,1.1-1.6l0.6-0.2c0.4-0.1,0.6-0.2,0.6-0.7l0,0c0-0.4-0.3-0.6-0.8-0.6s-0.9,0.1-1.2,0.3
		l-0.2-0.8c0.4-0.2,0.9-0.3,1.5-0.3c0.9,0,1.6,0.4,1.6,1.4v0.1c0,0.8-0.3,1.2-1,1.4l-0.6,0.2c-0.5,0.1-0.7,0.4-0.7,0.8v0.2h2.2v0.8
		h-3.1L166.2,8.2L166.2,8.2z"/>
</g>
<rect x="122.1" y="19" transform="matrix(0.9723 -0.2338 0.2338 0.9723 -2.066 29.2771)" class="st7" width="0.7" height="8.7"/>
<path class="st7" d="M124.2,13.1h-6l0,0v6.5h6V13.1z"/>
<g class="st3">
	<path class="st8" d="M120,18.1l0.2-0.6c0.3,0.1,0.7,0.2,1,0.2c0.5,0,0.7-0.1,0.7-0.5l0,0c0-0.3-0.1-0.4-0.5-0.5l-0.4-0.1
		c-0.7-0.2-1-0.4-1-1.1v-0.1c0-0.9,0.5-1.1,1.4-1.1c0.4,0,0.9,0.1,1.2,0.2l-0.2,0.7c-0.3-0.1-0.7-0.2-1-0.2c-0.4,0-0.6,0-0.6,0.4
		l0,0c0,0.3,0.1,0.4,0.5,0.4l0.5,0.1c0.7,0.1,0.9,0.4,0.9,1.1v0.1c0,0.9-0.5,1.2-1.5,1.2C120.8,18.4,120.2,18.3,120,18.1z"/>
</g>
<rect x="11" y="79.1" class="st9" width="0.9" height="5.2"/>
<rect x="11" y="80" width="0.9" height="0.9"/>
<rect x="11" y="81.7" width="0.9" height="0.9"/>
<rect x="11" y="83.4" width="0.9" height="0.9"/>
<rect x="10.1" y="79.1" class="st9" width="0.9" height="5.2"/>
<rect x="10.1" y="79.1" width="0.9" height="0.9"/>
<rect x="10.1" y="80.8" width="0.9" height="0.9"/>
<rect x="10.1" y="82.6" width="0.9" height="0.9"/>
<rect x="11" y="76.5" class="st9" width="0.9" height="2.6"/>
<rect x="11" y="76.5" width="0.9" height="0.9"/>
<rect x="11" y="78.2" width="0.9" height="0.9"/>
<rect x="10.1" y="76.5" class="st9" width="0.9" height="2.6"/>
<rect x="10.1" y="77.3" width="0.9" height="0.9"/>
</svg>
