<?xml version="1.0" encoding="utf-8"?>
<!-- Generator: Adobe Illustrator 28.0.0, SVG Export Plug-In . SVG Version: 6.00 Build 0)  -->
<svg version="1.1" id="Capa_1" xmlns="http://www.w3.org/2000/svg" xmlns:xlink="http://www.w3.org/1999/xlink" x="0px" y="0px"
	 viewBox="0 0 210 188" style="enable-background:new 0 0 210 188;" xml:space="preserve">
<style type="text/css">
	.st0{fill:#585E65;}
	.st1{fill:#9E9FA3;}
	.st2{fill:#08161F;}
	.st3{enable-background:new    ;}
	.st4{fill:#9FA0A4;}
	.st5{fill:none;}
	.st6{fill:#E5E5E5;}
	.st7{fill:#C70502;}
	.st8{fill:#ECECEC;}
	.st9{fill:#323232;}
	.st10{fill:#FAFAFA;}
</style>
<path class="st0" d="M195,58.5c-4.2,0-8.6-1.9-10.6-4.6c-2.1-2.9-2.4-7.3-1.6-9.6c0.7-1.9,3.6-6.7,4.7-8.5l0.2-0.4l1.2,0.7l-0.2,0.4
	c-1,1.6-3.9,6.4-4.6,8.2c-0.6,1.7-0.5,5.6,1.4,8.3c1.9,2.6,6.5,4.3,10.6,3.9c4.7-0.5,5.9-5,6-5.2c0.3-1.2,0.1-5.2,0-6.6
	c-0.1-0.5-1.3-12.1-1.4-14.9l1.4-0.1c0.2,2.8,1.4,14.7,1.4,14.9c0.1,0.6,0.4,5.4,0,7.1c-0.6,2.1-2.7,5.8-7.2,6.2
	C195.9,58.5,195.4,58.5,195,58.5L195,58.5z"/>
<path class="st1" d="M24,179.6c-3,0-5.5-1.8-7-2.8c-0.3-0.2-0.5-0.3-0.7-0.5c-1.2-0.8-4-3.2-5.8-6.8c-2.2-4.5-2-9.1,0.6-13.4
	c5.8-9.3,13.1-18.1,15.2-20.6l0.1-0.1c0.5-0.6,1-1.2,1.4-1.7c1.8-2.2,2.6-3.3,5.3-4.2c2.9-1,11.8-4.5,19.6-7.5
	c5.9-2.3,11.6-4.5,13.8-5.3c1.1-0.4,2.2-0.6,3.2-0.7c0.9-0.1,2.6-0.2,4.4-0.4c3.4-0.2,8.6-0.6,10-1.2c1.8-0.8,3.7-1.7,5.4-2.5
	c4.9-2.2,9.5-4.3,10.7-5.4c3.4-3.2,5.8-6.4,7.2-21.5c1.3-14.6,2-21.2,3-22.7c1-1.4,2.5-1.5,3.9-1.5c1.6-0.1,2.6-0.2,3.3-1.4
	c0.4-0.8,0.8-1.5,1.2-2.1c2.2-3.9,2.7-4.7,6.7-8.2c1.1-1,4.6-3.5,10.5-7.8l0.6,0.8l-0.6-0.8c14.9-10.6,40.9-28.6,41.5-29
	c0.3-0.2,0.6-0.4,1-0.7c2.5-1.8,5.7-4,9.2-0.9c3,2.6,9.2,8.5,12.4,11.7c1.1,1.1,1.8,2,1.9,3.6c0.1,1.3,0.3,3.1,0.3,4.9
	c0.1,1.4,0.1,3,0.2,4.8c0.1,2.8,0.3,5.6,0.3,7.8c0,4.1-1.5,7.2-4.5,8.9c-3.1,1.9-8.8,1.4-12.3-2.3c-3.6-3.8-3.9-8.2-0.7-12.1
	c3.7-4.6,4-6.9,3.9-7.9c-0.1-0.5-0.3-1-0.7-1.3c-0.4-0.4-1-0.7-1.7-0.5c-0.9,0.2-2.5,1.1-4.8,4.6c-2,3.2-3.6,7-5.2,10.8
	c-1.6,3.9-3.1,7.5-4.9,9.6c-0.4,0.5-1.4,1.8-2.9,3.8c-3.6,4.9-10.4,14-17.1,22.2c-5.5,6.7-9.9,11.8-13.4,15.9
	c-2.4,2.8-4.5,5.2-6.3,7.5c-0.6,0.8-1.4,1.4-2.3,1.9c-0.7,0.3-3.6,1.8-6.9,3.6c-5.1,2.6-11.4,5.9-12,6.2c-6.3,3.5-6.8,8.5-7.9,17.4
	c-0.2,1.8-0.4,3.9-0.8,6.1c-0.1,0.8-0.2,1.7-0.3,2.7c-0.5,4.8-1.1,10.3-5,13c-2.4,1.7-5.8,2.1-10.2,1.1c-6.9-1.6-9.8-1.4-15.1-1.2
	c-2.3,0.1-5.3,0.3-9.2,0.3c-4.5,0-9.8-0.5-14.1-0.9c-3.6-0.4-7-0.7-8.1-0.5c-3.8,0.7-4.8,3.4-5.9,7.6c-0.3,1.2-0.6,2.7-1,4.2
	c-1.3,5.9-2.8,12.6-6.1,14.5C26.4,179.3,25.1,179.6,24,179.6L24,179.6z M184.1,11.4c-1.3,0-2.6,0.9-4.3,2.1c-0.3,0.2-0.7,0.5-1,0.7
	c-0.6,0.4-26.5,18.3-41.5,29c-5.8,4.2-9.3,6.7-10.4,7.6c-3.8,3.3-4.1,3.9-6.3,7.7c-0.3,0.6-0.7,1.3-1.2,2.1
	c-1.2,2.2-3.4,2.3-4.9,2.4c-1.2,0.1-2,0.1-2.4,0.7c-0.8,1.2-1.7,11.1-2.7,21.7c-1.4,15.8-4,19.3-7.8,22.8c-1.3,1.2-5.1,3-11.2,5.7
	c-1.8,0.8-3.6,1.6-5.4,2.5c-1.6,0.8-5.6,1.1-10.7,1.4c-1.8,0.1-3.4,0.2-4.3,0.4c-1.1,0.2-1.9,0.3-2.8,0.6c-2.3,0.8-7.9,3-13.8,5.3
	c-7.9,3.1-16.8,6.6-19.7,7.6c-2.1,0.7-2.6,1.4-4.3,3.5c-0.4,0.5-0.9,1.1-1.4,1.7l-0.1,0.1c-2.1,2.5-9.3,11.2-15,20.4
	c-2.3,3.7-2.5,7.5-0.6,11.4c1.6,3.3,4.3,5.5,5.1,6c0.2,0.1,0.5,0.3,0.7,0.5c1.9,1.4,5.1,3.6,8.4,1.7c2.6-1.5,4-8,5.1-13.2
	c0.3-1.6,0.6-3,1-4.3c1.8-6.8,4-8.5,7.5-9.1c1.4-0.2,4.5,0.1,8.7,0.5s9.5,0.9,13.9,0.9c3.9,0,6.8-0.2,9.1-0.3
	c5.4-0.3,8.4-0.4,15.6,1.2c3.8,0.9,6.6,0.6,8.5-0.8c3.1-2.2,3.6-7.2,4.1-11.6c0.1-0.9,0.2-1.9,0.3-2.7c0.3-2.2,0.5-4.2,0.8-6.1
	c1-9,1.7-15,8.9-19c0.7-0.4,6.7-3.5,12.1-6.2c3.4-1.7,6.3-3.2,6.9-3.6s1.2-0.8,1.7-1.4c1.9-2.3,3.9-4.7,6.4-7.5
	c3.5-4.1,7.9-9.2,13.4-15.9c6.7-8.2,13.4-17.2,17.1-22.1c1.5-2,2.5-3.4,2.9-3.9c1.6-1.9,3-5.4,4.6-9.1c1.5-3.7,3.3-7.8,5.4-11.1
	c2.2-3.4,4.2-5.2,6.1-5.5c1.7-0.3,2.9,0.6,3.3,1c0.8,0.6,1.3,1.6,1.4,2.6c0.3,2.3-1.2,5.5-4.3,9.4c-2.5,3.2-2.3,6.3,0.6,9.4
	c2.9,3.1,7.7,3.3,9.7,2c2.3-1.4,3.5-3.8,3.5-7.2c0-2.1-0.2-4.9-0.3-7.7c-0.1-1.8-0.2-3.4-0.2-4.8c-0.1-1.8-0.2-3.5-0.3-4.7
	c-0.1-1-0.4-1.5-1.4-2.4c-3.2-3.1-9.4-9-12.3-11.6C185.6,11.7,184.9,11.4,184.1,11.4L184.1,11.4z"/>
<circle class="st2" cx="184.5" cy="3.7" r="3.5"/>
<g class="st3">
	<path class="st4" d="M183.5,4.8h0.8V2.7l0,0l-0.7,0.2l-0.1-0.6l1-0.3h0.6v2.8h0.7v0.5h-2.2V4.8H183.5z"/>
</g>
<circle class="st2" cx="206.5" cy="21.5" r="3.5"/>
<g class="st3">
	<path class="st4" d="M205.4,22.6c0-0.7,0.2-1,0.8-1.2l0.4-0.1c0.3-0.1,0.4-0.2,0.4-0.5l0,0c0-0.3-0.2-0.4-0.5-0.4s-0.7,0.1-0.8,0.2
		l-0.1-0.5c0.2-0.1,0.6-0.2,1.1-0.2c0.7,0,1.1,0.3,1.1,1V21c0,0.6-0.2,0.8-0.7,1l-0.4,0.1c-0.4,0.1-0.5,0.3-0.5,0.5v0.2h1.5v0.5
		h-2.2v-0.7H205.4z"/>
</g>
<circle class="st2" cx="202.2" cy="61.2" r="3.5"/>
<g class="st3">
	<path class="st4" d="M201.1,62.7l0.1-0.5c0.2,0.1,0.6,0.2,0.9,0.2c0.4,0,0.6-0.1,0.6-0.5l0,0c0-0.4-0.2-0.5-0.6-0.5h-0.4v-0.5h0.3
		c0.4,0,0.6-0.1,0.6-0.4l0,0c0-0.3-0.2-0.4-0.5-0.4s-0.6,0.1-0.8,0.2l-0.2-0.5c0.3-0.1,0.7-0.2,1.1-0.2c0.6,0,1.1,0.2,1.1,0.8v0.1
		c0,0.3-0.2,0.6-0.5,0.7l0,0c0.3,0.1,0.6,0.3,0.6,0.8v0.1c0,0.7-0.5,1-1.3,1C201.7,62.9,201.3,62.8,201.1,62.7z"/>
</g>
<circle class="st2" cx="178.7" cy="50" r="3.5"/>
<g class="st3">
	<path class="st4" d="M179,51h-1.6v-0.4l1.1-2.3h0.8l-1.1,2.1h0.8v-1h0.7v1h0.4V51h-0.4v0.7H179V51z"/>
</g>
<circle class="st2" cx="188.8" cy="21.5" r="3.5"/>
<g class="st3">
	<path class="st4" d="M190,22.1L190,22.1c0,0.8-0.4,1.1-1.2,1.1c-0.6,0-0.9-0.1-1.2-0.3l0.2-0.5c0.3,0.2,0.6,0.3,0.9,0.3
		c0.4,0,0.6-0.1,0.6-0.5l0,0c0-0.4-0.2-0.5-0.6-0.5c-0.2,0-0.5,0-0.7,0l-0.2-0.2l0.1-1.7h1.9v0.6h-1.3l-0.1,0.7c0.1,0,0.2,0,0.3,0
		C189.5,21.1,190,21.3,190,22.1z"/>
</g>
<circle class="st2" cx="110.8" cy="122.5" r="3.5"/>
<g class="st3">
	<path class="st4" d="M111.3,121.4h-1.6v-0.6h2.4v0.5l-1.3,2.9H110L111.3,121.4z"/>
</g>
<circle class="st2" cx="101.9" cy="157.1" r="3.5"/>
<g class="st3">
	<path class="st4" d="M103.2,157.8L103.2,157.8c0,0.7-0.4,1-1.2,1c-0.9,0-1.2-0.3-1.2-1l0,0c0-0.4,0.2-0.6,0.5-0.8
		c-0.2-0.1-0.4-0.4-0.4-0.7l0,0c0-0.6,0.4-0.9,1.2-0.9c0.7,0,1.1,0.3,1.1,0.9l0,0c0,0.3-0.1,0.6-0.4,0.7
		C103,157.2,103.2,157.4,103.2,157.8z M102.5,157.8c0-0.3-0.1-0.5-0.5-0.5l0,0c-0.3,0-0.5,0.1-0.5,0.5l0,0c0,0.3,0.1,0.5,0.5,0.5
		C102.3,158.3,102.5,158.1,102.5,157.8L102.5,157.8z M101.5,156.3c0,0.3,0.1,0.4,0.4,0.4l0,0c0.3,0,0.4-0.2,0.4-0.4l0,0
		c0-0.3-0.1-0.4-0.4-0.4C101.6,155.9,101.5,156,101.5,156.3L101.5,156.3z"/>
</g>
<circle class="st2" cx="41.3" cy="158.1" r="3.5"/>
<g class="st3">
	<path class="st4" d="M42.5,157.7v0.7c0,0.9-0.2,1.5-1.2,1.5c-0.4,0-0.7-0.1-1-0.1l0.1-0.6c0.2,0.1,0.6,0.1,0.8,0.1
		c0.4,0,0.6-0.2,0.6-0.7c-0.2,0-0.4,0-0.6,0c-0.8,0-1.1-0.3-1.1-1.1v-0.1c0-0.7,0.4-1.1,1.2-1.1C42.2,156.4,42.5,156.8,42.5,157.7z
		 M41.4,158c0.2,0,0.4,0,0.5,0v-0.1c0-0.8-0.1-1-0.5-1s-0.5,0.2-0.5,0.5l0,0C40.8,157.9,41,158,41.4,158z"/>
</g>
<circle class="st2" cx="28.8" cy="184.3" r="3.5"/>
<g class="st3">
	<path class="st4" d="M26.4,185.4h0.8v-2.1l0,0l-0.7,0.2l-0.1-0.6l1-0.3H28v2.8h0.7v0.5h-2.2L26.4,185.4L26.4,185.4z"/>
	<path class="st4" d="M29.4,185.7c-0.2-0.2-0.3-0.6-0.3-1.4v-0.1c0-0.7,0.1-1.1,0.3-1.4c0.2-0.2,0.5-0.3,0.9-0.3
		c0.5,0,0.8,0.1,1,0.3c0.2,0.3,0.3,0.6,0.3,1.3v0.1c0,0.8-0.1,1.1-0.3,1.3c-0.2,0.2-0.5,0.3-0.9,0.3C29.9,186,29.6,185.9,29.4,185.7
		z M30.7,185.3c0.1-0.2,0.2-0.5,0.2-1v-0.1c0-0.5,0-0.8-0.1-1c-0.1-0.1-0.2-0.1-0.4-0.1c-0.2,0-0.4,0-0.4,0.1
		c-0.1,0.2-0.1,0.5-0.1,1v0.1c0,0.5,0,0.8,0.1,1c0.1,0.1,0.2,0.2,0.4,0.2C30.5,185.5,30.6,185.4,30.7,185.3z"/>
</g>
<circle class="st2" cx="3.5" cy="163.7" r="3.5"/>
<g class="st3">
	<path class="st4" d="M1.1,164.8h0.8v-2.1l0,0l-0.7,0.2L1,162.3l1-0.3h0.6v2.8h0.7v0.5H1.1V164.8z"/>
	<path class="st4" d="M4,164.8h0.8v-2.1l0,0L4,162.9l-0.1-0.6l1-0.3h0.6v2.8h0.7v0.5H4V164.8z"/>
</g>
<circle class="st2" cx="28.9" cy="125.1" r="3.5"/>
<g class="st3">
	<path class="st4" d="M26.5,126.2h0.8v-2.1l0,0l-0.7,0.2l-0.1-0.6l1-0.3H28v2.8h0.7v0.5h-2.2V126.2z"/>
	<path class="st4" d="M29.2,126.2c0-0.7,0.2-1,0.8-1.2l0.4-0.1c0.3-0.1,0.4-0.2,0.4-0.5l0,0c0-0.3-0.2-0.4-0.5-0.4s-0.7,0.1-0.8,0.2
		l-0.1-0.5c0.2-0.1,0.6-0.2,1.1-0.2c0.7,0,1.1,0.3,1.1,1v0.1c0,0.6-0.2,0.8-0.7,1l-0.4,0.1c-0.4,0.1-0.5,0.3-0.5,0.5v0.2h1.5v0.5
		h-2.2L29.2,126.2L29.2,126.2z"/>
</g>
<circle class="st2" cx="67" cy="110.8" r="3.5"/>
<g class="st3">
	<path class="st4" d="M64.7,111.9h0.8v-2.1l0,0l-0.7,0.2l-0.1-0.6l1-0.3h0.6v2.8H67v0.5h-2.2v-0.5H64.7z"/>
	<path class="st4" d="M67.3,112.3l0.1-0.5c0.2,0.1,0.6,0.2,0.9,0.2c0.4,0,0.6-0.1,0.6-0.5l0,0c0-0.4-0.2-0.5-0.6-0.5h-0.4v-0.5h0.3
		c0.4,0,0.6-0.1,0.6-0.4l0,0c0-0.3-0.2-0.4-0.5-0.4s-0.6,0.1-0.8,0.2l-0.2-0.5c0.3-0.1,0.7-0.2,1.1-0.2c0.6,0,1.1,0.2,1.1,0.8v0.1
		c0,0.3-0.2,0.6-0.5,0.7l0,0c0.3,0.1,0.6,0.3,0.6,0.8v0.1c0,0.7-0.5,1-1.3,1C67.9,112.5,67.5,112.4,67.3,112.3z"/>
</g>
<circle class="st2" cx="82.1" cy="109.1" r="3.5"/>
<g class="st3">
	<path class="st4" d="M79.7,110.2h0.8V108l0,0l-0.7,0.2l-0.1-0.6l1-0.3h0.6v2.8H82v0.5h-2.2v-0.4H79.7z"/>
	<path class="st4" d="M83.8,110.1h-1.6v-0.4l1.1-2.3h0.8l-1.1,2.1h0.8v-1h0.7v1h0.4v0.6h-0.4v0.7h-0.7
		C83.8,110.8,83.8,110.1,83.8,110.1z"/>
</g>
<circle class="st2" cx="98.1" cy="100.6" r="3.5"/>
<g class="st3">
	<path class="st4" d="M95.7,101.7h0.8v-2.1l0,0l-0.7,0.2l-0.1-0.6l1-0.3h0.6v2.8H98v0.5h-2.2v-0.5H95.7z"/>
	<path class="st4" d="M100.7,101.2L100.7,101.2c0,0.8-0.4,1.1-1.2,1.1c-0.6,0-0.9-0.1-1.2-0.3l0.2-0.5c0.3,0.2,0.6,0.3,0.9,0.3
		c0.4,0,0.6-0.1,0.6-0.5l0,0c0-0.4-0.2-0.5-0.6-0.5c-0.2,0-0.5,0-0.7,0l-0.2-0.2l0.1-1.7h1.9v0.6h-1.3l-0.1,0.7c0.1,0,0.2,0,0.3,0
		C100.3,100.1,100.7,100.4,100.7,101.2z"/>
</g>
<circle class="st2" cx="106" cy="58.8" r="3.5"/>
<g class="st3">
	<path class="st4" d="M103.6,59.9h0.8v-2.1l0,0l-0.7,0.2l-0.1-0.6l1-0.3h0.6v2.8h0.7v0.5h-2.2v-0.5H103.6z"/>
	<path class="st4" d="M108.7,59.4L108.7,59.4c0,0.8-0.4,1.1-1.2,1.1c-1,0-1.2-0.5-1.2-1.6v-0.1c0-1.4,0.5-1.7,1.3-1.7
		c0.3,0,0.6,0.1,0.8,0.1l-0.1,0.5c-0.2-0.1-0.4-0.1-0.7-0.1c-0.4,0-0.7,0.1-0.7,0.8c0.2,0,0.4,0,0.6,0
		C108.3,58.3,108.7,58.6,108.7,59.4z M108,59.4c0-0.4-0.1-0.5-0.5-0.5c-0.2,0-0.3,0-0.5,0c0,0.7,0.1,1,0.5,1
		C107.9,60,108,59.8,108,59.4L108,59.4z"/>
</g>
<circle class="st2" cx="122.5" cy="65.8" r="3.5"/>
<g class="st3">
	<path class="st4" d="M120.1,66.9h0.8v-2.1l0,0l-0.7,0.2l-0.1-0.6l1-0.3h0.6v2.8h0.7v0.5h-2.2v-0.5H120.1z"/>
	<path class="st4" d="M124.4,64.7h-1.6v-0.6h2.4v0.5l-1.3,2.9h-0.8L124.4,64.7z"/>
</g>
<circle class="st2" cx="118.2" cy="48.4" r="3.5"/>
<g class="st3">
	<path class="st4" d="M115.8,49.5h0.8v-2.1l0,0l-0.7,0.2l-0.1-0.6l1-0.3h0.6v2.8h0.7V50h-2.2v-0.5H115.8z"/>
	<path class="st4" d="M120.9,49.1L120.9,49.1c0,0.7-0.4,1-1.2,1c-0.9,0-1.2-0.3-1.2-1l0,0c0-0.4,0.2-0.6,0.5-0.8
		c-0.2-0.1-0.4-0.4-0.4-0.7l0,0c0-0.6,0.4-0.9,1.2-0.9c0.7,0,1.1,0.3,1.1,0.9l0,0c0,0.3-0.1,0.6-0.4,0.7
		C120.7,48.4,120.9,48.7,120.9,49.1z M120.2,49c0-0.3-0.1-0.5-0.5-0.5l0,0c-0.3,0-0.5,0.1-0.5,0.5l0,0c0,0.3,0.1,0.5,0.5,0.5
		C120,49.5,120.2,49.4,120.2,49L120.2,49z M119.2,47.6c0,0.3,0.1,0.4,0.4,0.4l0,0c0.3,0,0.4-0.2,0.4-0.4l0,0c0-0.3-0.1-0.4-0.4-0.4
		C119.3,47.2,119.2,47.3,119.2,47.6L119.2,47.6z"/>
</g>
<circle class="st2" cx="135.1" cy="108.1" r="3.5"/>
<g class="st3">
	<path class="st4" d="M136.3,108.6L136.3,108.6c0,0.8-0.4,1.1-1.2,1.1c-1,0-1.2-0.5-1.2-1.6V108c0-1.4,0.5-1.7,1.3-1.7
		c0.3,0,0.6,0.1,0.8,0.1l-0.1,0.6c-0.2-0.1-0.4-0.1-0.7-0.1c-0.4,0-0.7,0.1-0.7,0.8c0.2,0,0.4,0,0.6,0
		C135.9,107.6,136.3,107.8,136.3,108.6z M135.7,108.7c0-0.4-0.1-0.5-0.5-0.5c-0.2,0-0.3,0-0.5,0c0,0.7,0.1,1,0.5,1
		C135.5,109.2,135.7,109,135.7,108.7L135.7,108.7z"/>
</g>
<line class="st5" x1="132.9" y1="36.6" x2="138.5" y2="44.8"/>
<rect x="135.4" y="35.7" transform="matrix(0.8271 -0.5621 0.5621 0.8271 0.6058 83.3443)" class="st6" width="0.7" height="10"/>
<path class="st7" d="M137,30.3h-8.6l0,0v7.8h8.6V30.3z"/>
<g class="st3">
	<path class="st8" d="M130,32.7c0-0.6,0.3-0.9,0.9-0.9h2.1v0.8h-1.7c-0.1,0-0.2,0.1-0.2,0.2v0.9h1.8v0.8H131v2h-1V32.7z"/>
	<path class="st8" d="M133.9,35.8v-4h1v3.8c0,0.1,0,0.1,0.1,0.1h1.4v0.8h-1.8C134.1,36.6,133.9,36.3,133.9,35.8z"/>
</g>
<rect x="172.8" y="48.3" transform="matrix(0.5831 -0.8124 0.8124 0.5831 29.0193 162.8251)" class="st8" width="0.7" height="9.7"/>
<path class="st7" d="M181.3,55.5h-8.6l0,0v7.8h8.6V55.5z"/>
<g class="st3">
	<path class="st8" d="M174.7,56.8h1v1h-1V56.8z M174.7,58.2h0.9v3.6h-0.9V58.2z"/>
	<path class="st8" d="M176.8,61h1.1v-3l0,0l-1,0.3l-0.2-0.8l1.4-0.4h0.9v4h1v0.8h-3.1L176.8,61L176.8,61z"/>
</g>
<rect x="26.5" y="129.2" transform="matrix(0.573 -0.8196 0.8196 0.573 -98.2912 79.2437)" class="st8" width="0.7" height="9.5"/>
<path class="st7" d="M23.5,126.4H15l0,0v7.8h8.6C23.5,134.3,23.5,126.4,23.5,126.4z"/>
<g class="st3">
	<path class="st8" d="M16.9,127.7h1v1h-1V127.7z M16.9,129.1h0.9v3.6h-0.9V129.1z"/>
	<path class="st8" d="M18.7,132.5l0.1-0.8c0.3,0.2,0.8,0.3,1.3,0.3c0.6,0,0.9-0.2,0.9-0.7v-0.1c0-0.5-0.3-0.7-0.8-0.7h-0.6v-0.8H20
		c0.6,0,0.8-0.1,0.8-0.6V129c0-0.4-0.3-0.5-0.7-0.5c-0.5,0-0.9,0.1-1.2,0.3l-0.2-0.8c0.4-0.2,0.9-0.3,1.6-0.3c0.9,0,1.6,0.3,1.6,1.2
		v0.1c0,0.5-0.2,0.9-0.7,1l0,0c0.5,0.1,0.8,0.5,0.8,1.1v0.1c0,1-0.6,1.4-1.8,1.4C19.6,132.7,19.1,132.6,18.7,132.5z"/>
</g>
<rect x="102.1" y="135.4" transform="matrix(0.1452 -0.9894 0.9894 0.1452 -50.695 220.7605)" class="st8" width="0.7" height="8.7"/>
<path class="st7" d="M113.2,136.2h-8.6l0,0v7.8h8.6V136.2z"/>
<g class="st3">
	<path class="st8" d="M106.6,137.5h1v1h-1V137.5z M106.6,138.9h0.9v3.6h-0.9V138.9z"/>
	<path class="st8" d="M108.5,141.6c0-1,0.3-1.4,1.1-1.6l0.6-0.2c0.4-0.1,0.6-0.2,0.6-0.7l0,0c0-0.4-0.3-0.6-0.8-0.6
		s-0.9,0.1-1.2,0.3l-0.2-0.8c0.4-0.2,0.9-0.3,1.5-0.3c0.9,0,1.6,0.4,1.6,1.4v0.1c0,0.8-0.3,1.2-1,1.4l-0.6,0.2
		c-0.5,0.1-0.7,0.4-0.7,0.8v0.2h2.2v0.8h-3.1V141.6z"/>
</g>
<rect x="146.6" y="81.8" transform="matrix(0.6191 -0.7853 0.7853 0.6191 -12.1055 148.4086)" class="st8" width="0.7" height="9.7"/>
<path class="st8" d="M155.5,85.9h-6l0,0v6.5h6V85.9z"/>
<g class="st3">
	<path class="st9" d="M151.3,90.9l0.2-0.6c0.3,0.1,0.7,0.2,1,0.2c0.5,0,0.7-0.1,0.7-0.5l0,0c0-0.3-0.1-0.4-0.5-0.5l-0.4-0.1
		c-0.7-0.2-1-0.4-1-1.1v-0.1c0-0.9,0.5-1.1,1.4-1.1c0.4,0,0.9,0.1,1.2,0.2l-0.2,0.7c-0.3-0.1-0.7-0.2-1-0.2c-0.4,0-0.6,0-0.6,0.4
		l0,0c0,0.3,0.1,0.4,0.5,0.4l0.5,0.1c0.7,0.1,0.9,0.4,0.9,1.1v0.1c0,0.9-0.5,1.2-1.5,1.2C152.1,91.1,151.5,91,151.3,90.9z"/>
</g>
<rect x="127.6" y="32.9" class="st10" width="0.9" height="5.2"/>
<rect x="127.6" y="33.8" width="0.9" height="0.9"/>
<rect x="127.6" y="35.5" width="0.9" height="0.9"/>
<rect x="127.6" y="37.3" width="0.9" height="0.9"/>
<rect x="126.7" y="32.9" class="st10" width="0.9" height="5.2"/>
<rect x="126.7" y="32.9" width="0.9" height="0.9"/>
<rect x="126.7" y="34.7" width="0.9" height="0.9"/>
<rect x="126.7" y="36.4" width="0.9" height="0.9"/>
<rect x="127.6" y="30.3" class="st10" width="0.9" height="2.6"/>
<rect x="127.6" y="30.3" width="0.9" height="0.9"/>
<rect x="127.6" y="32" width="0.9" height="0.9"/>
<rect x="126.7" y="30.3" class="st10" width="0.9" height="2.6"/>
<rect x="126.7" y="31.2" width="0.9" height="0.9"/>
</svg>
