<?xml version="1.0" encoding="utf-8"?>
<!-- Generator: Adobe Illustrator 28.0.0, SVG Export Plug-In . SVG Version: 6.00 Build 0)  -->
<svg version="1.1" id="Capa_1" xmlns="http://www.w3.org/2000/svg" xmlns:xlink="http://www.w3.org/1999/xlink" x="0px" y="0px"
	 viewBox="0 0 210 78" style="enable-background:new 0 0 210 78;" xml:space="preserve">
<style type="text/css">
	.st0{fill:#585E65;}
	.st1{fill:#9FA0A4;}
	.st2{fill:#08161F;}
	.st3{enable-background:new    ;}
	.st4{fill:#E6E6E6;}
	.st5{fill:#C80502;}
	.st6{fill:#EDEDED;}
	.st7{fill:#323232;}
	.st8{fill:#FAFAFA;}
</style>
<path class="st0" d="M40.3,65.9c-3.6,0-6.2-0.7-8-2c-2.7-2.1-3-5.3-3-9c-0.1-3.1-3.7-4.8-7.6-6.6c-1.9-0.9-3.9-1.8-5.5-3
	c-5.3-3.7-6.3-8.9-6.6-12.5l1.4-0.1c0.6,6.8,3.5,9.7,6,11.4c1.5,1.1,3.4,2,5.3,2.8c4.1,1.9,8.3,3.9,8.4,7.9c0.1,3.9,0.5,6.3,2.5,7.9
	s5.7,2.1,10.8,1.5l0.2,1.4C42.7,65.8,41.5,65.9,40.3,65.9L40.3,65.9z"/>
<path class="st1" d="M167.6,66.2c-2.4,0-5.4,0-9,0C124.7,66.1,50.3,66,41.9,66h-0.1h-0.1c-2.4,0.2-6.7-1-7.2-6.4
	c-0.1-1.2-0.2-2.3-0.2-3.2c-0.3-4.2-0.4-5.6-2.8-7.4c-0.8-0.6-2.5-1.2-4.5-2c-6-2.2-15-5.6-17.2-14.2c-1.4-5.3-0.5-10.1,2.7-14.5
	c2.6-3.6,6.2-6.1,8.7-7.5c3.7-2.1,8.6-3.4,14.9-3.8C37.5,6.8,67,6.8,70.2,7.3c2.5,0.3,4.7,1.7,6,3.7c1.1,1.6,2.1,4.5,0.8,8.8
	c-1.2,4-3.9,6.8-8.2,8.5c-3.4,1.3-7.2,1.5-10.1,1.6c-0.5,0-21.2,0-21.5,0c0,0-3.7,0.1-3.9,3.5c-0.2,2,1.4,3.2,2.6,4.1l0.2,0.1
	c4.5,3.4,17.4,12.5,23.2,13.7c6.3,1.3,11.8,1.2,19.3,1.1h1c0.2,0,3.9-0.1,4.1-4.6c0-0.6,0-1.2,0.1-1.7c0.1-4.6,0.2-6.2,2.4-9.9
	c2.3-3.9,13.1-18.8,14.3-20.3c1.2-1.6,3.4-3.7,6.3-4.9c3.6-1.5,7.3-1.3,10.7,0.6c2.6,1.4,9.1,5.2,16.6,9.7c5.1,3,10.8,6.4,16.1,9.4
	c6.5,3.8,12.7,7.6,17.6,10.7c5.2,3.2,9.3,5.8,10.7,6.3c1.3,0.5,2.3,0.5,3.2-0.2c1.2-0.9,1.9-3,1.7-4.9c-1.1-9.7-6.4-11.2-10.6-12.4
	c-0.3-0.1-0.7-0.2-1-0.3c-1.5-0.4-4.2-1.5-6.2-3.8c-1.9-2.2-2.6-4.9-1.9-7.8c0.6-2.8,2.1-4.9,4.4-6.1c2.5-1.3,5.7-1.4,8.7-0.3
	c2.5,0.9,5.8,2,9.1,3.1c5.2,1.7,10.2,3.3,11.8,4.4c0.6,0.4,5.8,3.9,5.8,10.2c0,7.7-0.3,22.7-0.3,22.8s-0.1,3.3-1.7,6.5
	c-1.5,3-4.7,6.7-11.3,7c-1.9,0.1-7.1,0.1-15.5,0.2C173.4,66.1,171,66.1,167.6,66.2L167.6,66.2z M158.6,64.1c8.6,0,13.9,0,15.9,0
	c8.4,0,13.5-0.1,15.4-0.2c4.5-0.2,7.7-2.2,9.5-5.9c1.4-2.8,1.5-5.6,1.5-5.7c0-0.2,0.3-15.2,0.3-22.8c0-5.3-4.4-8.2-4.9-8.5
	c-1.4-0.9-6.5-2.6-11.3-4.1c-3.3-1.1-6.6-2.2-9.2-3.1c-1.9-0.7-4.7-1.1-7,0.2c-1.7,0.9-2.8,2.5-3.3,4.8c-1.4,6.3,5.3,8.7,6.7,9.1
	c0.3,0.1,0.6,0.2,0.9,0.3c4.3,1.2,10.9,3.1,12.1,14.2c0.3,2.7-0.7,5.5-2.5,6.8c-1.4,1.1-3.3,1.3-5.2,0.5c-1.6-0.6-5.5-3.1-11-6.5
	c-5-3.1-11.1-6.9-17.6-10.7c-5.2-3.1-11-6.4-16.1-9.4c-7.5-4.4-13.9-8.2-16.5-9.6c-2.9-1.6-5.9-1.8-8.9-0.5c-2.5,1-4.5,2.9-5.5,4.2
	c-1,1.4-11.9,16.3-14.2,20.1c-1.9,3.2-2,4.3-2.1,8.9c0,0.5,0,1.1-0.1,1.7c-0.2,5.1-4,6.5-6.1,6.5h-1c-7.4,0.2-13.2,0.3-19.7-1.1
	c-7.4-1.6-23.8-14-24-14.1l-0.2-0.1c-1.4-1-3.6-2.7-3.4-5.9c0.3-4.2,4.2-5.5,6-5.4c0.5,0,20.8,0,21.4,0c2.7-0.1,6.2-0.3,9.4-1.5
	c3.7-1.4,5.9-3.7,6.9-7.1c0.8-2.8,0.6-5.3-0.6-7.1c-1-1.5-2.7-2.6-4.6-2.8c-3-0.4-32.4-0.4-33.7-0.3c-6,0.4-10.6,1.6-14.1,3.5
	C17.1,15.4,9,21.8,11.7,32.3c2,7.6,10.4,10.7,15.9,12.8c2.2,0.8,3.9,1.5,5,2.2c3.2,2.3,3.4,4.7,3.7,8.9c0.1,0.9,0.1,2,0.2,3.1
	c0.4,4.6,4.2,4.6,5,4.5c0.1,0,0.2,0,0.2,0h0.1C50.3,63.9,124.7,64.1,158.6,64.1L158.6,64.1z"/>
<circle class="st2" cx="32.4" cy="69.9" r="3.5"/>
<g class="st3">
	<path class="st1" d="M31.4,71h0.8v-2.2l0,0L31.5,69l-0.1-0.6l1-0.3H33V71h0.7v0.6h-2.2V71H31.4z"/>
</g>
<circle class="st2" cx="23.6" cy="55.9" r="3.5"/>
<g class="st3">
	<path class="st1" d="M22.6,56.9c0-0.7,0.2-1,0.8-1.2l0.4-0.1c0.3-0.1,0.4-0.2,0.4-0.5l0,0c0-0.3-0.2-0.4-0.5-0.4s-0.7,0.1-0.8,0.2
		l-0.1-0.5c0.2-0.1,0.6-0.2,1.1-0.2c0.7,0,1.1,0.3,1.1,1v0.1c0,0.6-0.2,0.8-0.7,1l-0.4,0.1c-0.4,0.1-0.5,0.3-0.5,0.5V57h1.5v0.6
		h-2.2L22.6,56.9L22.6,56.9z"/>
</g>
<circle class="st2" cx="3.5" cy="26.3" r="3.5"/>
<g class="st3">
	<path class="st1" d="M2.3,27.8l0.1-0.6c0.2,0.1,0.6,0.2,0.9,0.2C3.8,27.4,4,27.3,4,27l0,0c0-0.4-0.2-0.5-0.6-0.5H3v-0.6h0.3
		c0.4,0,0.6-0.1,0.6-0.4l0,0c0-0.3-0.2-0.4-0.5-0.4s-0.6,0.1-0.8,0.2l-0.2-0.6c0.3-0.1,0.7-0.2,1.1-0.2c0.6,0,1.1,0.2,1.1,0.8v0.1
		c0,0.3-0.2,0.6-0.5,0.7l0,0c0.3,0.1,0.6,0.3,0.6,0.8V27c0,0.7-0.5,1-1.3,1C3,28,2.6,27.9,2.3,27.8z"/>
</g>
<circle class="st2" cx="82.3" cy="10.2" r="3.5"/>
<g class="st3">
	<path class="st1" d="M82.7,11.2H81v-0.4l1.1-2.3h0.8l-1.1,2.1h0.8v-1h0.7v1h0.4v0.6h-0.4v0.7h-0.7L82.7,11.2L82.7,11.2z"/>
</g>
<circle class="st2" cx="42.7" cy="35.4" r="3.5"/>
<g class="st3">
	<path class="st1" d="M43.9,36L43.9,36c0,0.8-0.4,1.1-1.2,1.1c-0.6,0-0.9-0.1-1.2-0.3l0.2-0.5c0.3,0.2,0.6,0.3,0.9,0.3
		c0.4,0,0.6-0.1,0.6-0.5l0,0c0-0.4-0.2-0.5-0.6-0.5c-0.2,0-0.5,0-0.7,0l-0.2-0.2l0.1-1.7h1.9v0.6h-1.3V35c0.1,0,0.2,0,0.3,0
		C43.5,35,43.9,35.2,43.9,36z"/>
</g>
<circle class="st2" cx="52.1" cy="56.7" r="3.5"/>
<g class="st3">
	<path class="st1" d="M53.4,57.3L53.4,57.3c0,0.8-0.4,1.1-1.2,1.1c-1,0-1.2-0.5-1.2-1.6v-0.1c0-1.4,0.6-1.7,1.3-1.7
		c0.3,0,0.7,0.1,0.8,0.1L53,55.7c-0.2-0.1-0.4-0.1-0.7-0.1c-0.4,0-0.7,0.1-0.7,0.8c0.2,0,0.4,0,0.6,0C53,56.3,53.4,56.5,53.4,57.3z
		 M52.7,57.3c0-0.4-0.1-0.5-0.5-0.5c-0.2,0-0.3,0-0.5,0c0,0.7,0.1,1,0.5,1C52.6,57.9,52.7,57.7,52.7,57.3L52.7,57.3z"/>
</g>
<circle class="st2" cx="78" cy="46.7" r="3.5"/>
<g class="st3">
	<path class="st1" d="M78.5,45.5h-1.6V45h2.4v0.5L78,48.4h-0.8L78.5,45.5z"/>
</g>
<circle class="st2" cx="91.8" cy="42" r="3.5"/>
<g class="st3">
	<path class="st1" d="M93,42.7L93,42.7c0,0.7-0.4,1-1.2,1c-0.9,0-1.2-0.3-1.2-1l0,0c0-0.4,0.2-0.6,0.5-0.8c-0.2-0.1-0.4-0.4-0.4-0.7
		l0,0c0-0.6,0.4-0.9,1.2-0.9c0.7,0,1.1,0.3,1.1,0.9l0,0c0,0.3-0.1,0.6-0.4,0.7C92.9,42,93,42.3,93,42.7z M92.3,42.6
		c0-0.3-0.1-0.5-0.5-0.5l0,0c-0.3,0-0.5,0.1-0.5,0.5l0,0c0,0.3,0.1,0.5,0.5,0.5C92.2,43.1,92.3,43,92.3,42.6L92.3,42.6z M91.3,41.2
		c0,0.3,0.1,0.4,0.4,0.4l0,0c0.3,0,0.4-0.2,0.4-0.4l0,0c0-0.3-0.1-0.4-0.4-0.4C91.5,40.7,91.3,40.9,91.3,41.2L91.3,41.2z"/>
</g>
<circle class="st2" cx="106.4" cy="5.1" r="3.5"/>
<g class="st3">
	<path class="st1" d="M107.7,4.7v0.7c0,0.9-0.2,1.5-1.2,1.5c-0.4,0-0.8-0.1-1-0.1l0.1-0.6c0.2,0.1,0.6,0.1,0.8,0.1
		c0.4,0,0.6-0.2,0.6-0.7c-0.2,0-0.4,0-0.6,0c-0.8,0-1.1-0.3-1.1-1.1l0,0c0-0.7,0.4-1.1,1.2-1.1C107.3,3.4,107.7,3.8,107.7,4.7z
		 M106.5,5c0.2,0,0.4,0,0.5,0V4.9c0-0.8-0.1-1-0.5-1S106,4.1,106,4.4l0,0C106,4.9,106.1,5,106.5,5z"/>
</g>
<circle class="st2" cx="187.9" cy="52" r="3.5"/>
<g class="st3">
	<path class="st1" d="M185.6,53.1h0.8V51l0,0l-0.7,0.2l-0.1-0.6l1-0.3h0.6v2.8h0.7v0.6h-2.2v-0.6H185.6z"/>
	<path class="st1" d="M188.5,53.5c-0.2-0.2-0.3-0.6-0.3-1.4V52c0-0.7,0.1-1.1,0.3-1.4c0.2-0.2,0.5-0.3,0.9-0.3c0.5,0,0.8,0.1,1,0.3
		c0.2,0.3,0.3,0.6,0.3,1.3V52c0,0.8-0.1,1.1-0.3,1.4c-0.2,0.2-0.5,0.3-0.9,0.3C189,53.7,188.7,53.7,188.5,53.5z M189.8,53
		c0.1-0.2,0.2-0.5,0.2-1l0,0c0-0.5,0-0.8-0.1-1c-0.1-0.1-0.2-0.1-0.4-0.1s-0.4,0-0.4,0.1c-0.1,0.2-0.1,0.5-0.1,1l0,0
		c0,0.5,0,0.8,0.1,1c0.1,0.1,0.2,0.2,0.4,0.2C189.6,53.2,189.8,53.1,189.8,53z"/>
</g>
<circle class="st2" cx="179.8" cy="24.6" r="3.5"/>
<g class="st3">
	<path class="st1" d="M177.4,25.7h0.8v-2.2l0,0l-0.7,0.2l-0.1-0.6l1-0.3h0.6v2.8h0.7v0.6h-2.2v-0.5H177.4z"/>
	<path class="st1" d="M180.2,25.7h0.8v-2.2l0,0l-0.7,0.2l-0.1-0.6l1-0.3h0.6v2.8h0.7v0.6h-2.2v-0.5H180.2z"/>
</g>
<circle class="st2" cx="157.7" cy="17.6" r="3.5"/>
<g class="st3">
	<path class="st1" d="M155.3,18.7h0.8v-2.2l0,0l-0.7,0.2l-0.1-0.6l1-0.3h0.6v2.8h0.7v0.6h-2.2v-0.5H155.3z"/>
	<path class="st1" d="M158.1,18.7c0-0.7,0.2-1,0.8-1.2l0.4-0.1c0.3-0.1,0.4-0.2,0.4-0.5l0,0c0-0.3-0.2-0.4-0.5-0.4s-0.7,0.1-0.8,0.2
		l-0.1-0.5c0.2-0.1,0.6-0.2,1.1-0.2c0.7,0,1.1,0.3,1.1,1v0.1c0,0.6-0.2,0.8-0.7,1l-0.4,0.1c-0.4,0.1-0.5,0.3-0.5,0.5v0.2h1.5v0.6
		h-2.2v-0.8H158.1z"/>
</g>
<circle class="st2" cx="206.5" cy="20.9" r="3.5"/>
<g class="st3">
	<path class="st1" d="M204.1,22h0.8v-2.2l0,0l-0.7,0.2l-0.1-0.6l1-0.3h0.6V22h0.7v0.6h-2.2V22H204.1z"/>
	<path class="st1" d="M206.7,22.4l0.1-0.6c0.2,0.1,0.6,0.2,0.9,0.2c0.4,0,0.6-0.1,0.6-0.5l0,0c0-0.4-0.2-0.5-0.6-0.5h-0.4v-0.6h0.3
		c0.4,0,0.6-0.1,0.6-0.4l0,0c0-0.3-0.2-0.4-0.5-0.4s-0.6,0.1-0.8,0.2l-0.2-0.6c0.3-0.1,0.7-0.2,1.1-0.2c0.6,0,1.1,0.2,1.1,0.8V20
		c0,0.3-0.2,0.6-0.5,0.7l0,0c0.3,0.1,0.6,0.3,0.6,0.8v0.1c0,0.7-0.5,1-1.3,1C207.4,22.6,207,22.5,206.7,22.4z"/>
</g>
<circle class="st2" cx="204.2" cy="64.8" r="3.5"/>
<g class="st3">
	<path class="st1" d="M201.9,65.9h0.8v-2.2l0,0l-0.7,0.2l-0.1-0.6l1-0.3h0.6v2.8h0.7v0.6H202v-0.5H201.9z"/>
	<path class="st1" d="M206,65.8h-1.6v-0.4l1.1-2.3h0.8l-1.1,2.1h0.8v-1h0.7v1h0.4v0.6h-0.4v0.7H206V65.8z"/>
</g>
<rect x="158.2" y="62.1" class="st4" width="0.7" height="7.7"/>
<path class="st5" d="M162.8,69.5h-8.6l0,0v7.9h8.6V69.5z"/>
<g class="st3">
	<path class="st6" d="M155.8,71.9c0-0.6,0.3-0.9,0.9-0.9h2.1v0.8H157c-0.1,0-0.2,0.1-0.2,0.2v1h1.8v0.8h-1.8v2h-1V71.9z"/>
	<path class="st6" d="M159.7,75.1v-4h1v3.8c0,0.1,0,0.1,0.1,0.1h1.4v0.8h-1.8C159.9,75.8,159.7,75.6,159.7,75.1z"/>
</g>
<rect x="20.9" y="42.9" transform="matrix(0.437 -0.8995 0.8995 0.437 -25.072 46.388)" class="st6" width="7.2" height="0.7"/>
<path class="st5" d="M29.8,33.2h-8.6l0,0v7.9h8.6C29.8,41.1,29.8,33.2,29.8,33.2z"/>
<g class="st3">
	<path class="st6" d="M23.1,34.5h1v1h-1V34.5z M23.2,35.9h0.9v3.6h-0.9V35.9z"/>
	<path class="st6" d="M25.2,38.7h1.1v-3l0,0l-1,0.3l-0.2-0.8l1.4-0.4h0.9v4h1v0.8h-3.1L25.2,38.7L25.2,38.7z"/>
</g>
<rect x="163.4" y="43.1" transform="matrix(0.3461 -0.9382 0.9382 0.3461 69.5165 186.6059)" class="st6" width="10.5" height="0.7"/>
<path class="st5" d="M174.3,31.5h-8.6l0,0v7.9h8.6V31.5z"/>
<g class="st3">
	<path class="st6" d="M167.7,32.8h1v1h-1V32.8z M167.7,34.2h0.9v3.6h-0.9V34.2z"/>
	<path class="st6" d="M169.5,37.6l0.1-0.8c0.3,0.2,0.8,0.3,1.3,0.3c0.6,0,0.9-0.2,0.9-0.7v-0.1c0-0.5-0.3-0.7-0.8-0.7h-0.6v-0.8h0.4
		c0.6,0,0.8-0.1,0.8-0.6v-0.1c0-0.4-0.3-0.5-0.7-0.5c-0.5,0-0.9,0.1-1.2,0.3l-0.2-0.8c0.4-0.2,0.9-0.3,1.6-0.3
		c0.9,0,1.6,0.3,1.6,1.2v0.1c0,0.5-0.2,0.9-0.7,1l0,0c0.5,0.1,0.8,0.5,0.8,1.1v0.1c0,1-0.6,1.4-1.8,1.4
		C170.5,37.9,169.9,37.8,169.5,37.6z"/>
</g>
<rect x="55.1" y="51.2" transform="matrix(0.283 -0.9591 0.9591 0.283 -7.1463 93.4883)" class="st6" width="7.7" height="0.7"/>
<path class="st5" d="M64.5,41.1h-8.6l0,0V49h8.6V41.1z"/>
<g class="st3">
	<path class="st6" d="M57.9,42.4h1v1h-1V42.4z M57.9,43.8h0.9v3.6h-0.9V43.8z"/>
	<path class="st6" d="M59.8,46.5c0-1,0.3-1.4,1.1-1.6l0.6-0.2c0.4-0.1,0.6-0.2,0.6-0.7l0,0c0-0.4-0.3-0.6-0.8-0.6s-0.9,0.1-1.2,0.3
		l-0.2-0.8c0.4-0.2,0.9-0.3,1.5-0.3c0.9,0,1.6,0.4,1.6,1.4v0c0,0.8-0.3,1.2-1,1.4l-0.6,0.2c-0.5,0.1-0.7,0.4-0.7,0.8v0.2H63v0.8
		h-3.1v-0.9H59.8z"/>
</g>
<rect x="80.3" y="61.8" class="st6" width="0.7" height="7.7"/>
<path class="st6" d="M83.7,69.5h-6l0,0v6.6h6V69.5z"/>
<g class="st3">
	<path class="st7" d="M79.5,74.5l0.2-0.7c0.3,0.1,0.7,0.2,1,0.2c0.5,0,0.7-0.1,0.7-0.5l0,0c0-0.3-0.1-0.4-0.5-0.5h-0.4
		c-0.7-0.2-1-0.4-1-1.1v-0.1c0-0.9,0.5-1.1,1.4-1.1c0.4,0,0.9,0.1,1.2,0.2l-0.2,0.7c-0.3-0.1-0.7-0.2-1-0.2c-0.4,0-0.6,0-0.6,0.4
		l0,0c0,0.3,0.1,0.4,0.5,0.4l0.5,0.1c0.7,0.1,0.9,0.4,0.9,1.1v0.1c0,0.9-0.5,1.2-1.5,1.2C80.3,74.8,79.7,74.7,79.5,74.5z"/>
</g>
<rect x="153.3" y="72.2" class="st8" width="0.9" height="5.3"/>
<rect x="153.3" y="73" width="0.9" height="0.9"/>
<rect x="153.3" y="74.8" width="0.9" height="0.9"/>
<rect x="153.3" y="76.6" width="0.9" height="0.9"/>
<rect x="152.4" y="72.2" class="st8" width="0.9" height="5.3"/>
<rect x="152.4" y="72.2" width="0.9" height="0.9"/>
<rect x="152.4" y="73.9" width="0.9" height="0.9"/>
<rect x="152.4" y="75.7" width="0.9" height="0.9"/>
<rect x="153.3" y="69.5" class="st8" width="0.9" height="2.6"/>
<rect x="153.3" y="69.5" width="0.9" height="0.9"/>
<rect x="153.3" y="71.3" width="0.9" height="0.9"/>
<rect x="152.4" y="69.5" class="st8" width="0.9" height="2.6"/>
<rect x="152.4" y="70.4" width="0.9" height="0.9"/>
</svg>
