<?xml version="1.0" encoding="utf-8"?>
<!-- Generator: Adobe Illustrator 28.0.0, SVG Export Plug-In . SVG Version: 6.00 Build 0)  -->
<svg version="1.1" id="Capa_1" xmlns="http://www.w3.org/2000/svg" xmlns:xlink="http://www.w3.org/1999/xlink" x="0px" y="0px"
	 viewBox="0 0 210 124" style="enable-background:new 0 0 210 124;" xml:space="preserve">
<style type="text/css">
	.st0{fill:#585E65;}
	.st1{fill:#9E9FA3;}
	.st2{fill:#08161F;}
	.st3{enable-background:new    ;}
	.st4{fill:#9FA0A4;}
	.st5{fill:none;}
	.st6{fill:#E5E5E5;}
	.st7{fill:#C70502;}
	.st8{fill:#ECECEC;}
	.st9{fill:#323232;}
	.st10{fill:#FAFAFA;}
</style>
<path class="st0" d="M47.7,95.6c-2.7,0-7.4-0.8-14.2-2.4c-3-0.7-5-1.9-5.9-3.6c-0.9-1.6-0.8-3.6,0.2-6.2c1.4-3.8,6.4-9.4,6.6-9.6
	l1.1,0.9c0,0.1-5,5.6-6.4,9.1c-0.8,2.2-0.9,3.8-0.3,5c0.7,1.3,2.3,2.3,4.9,2.9c7.9,1.9,13.2,2.7,15,2.3c2.1-0.5,6.5-1.5,9.6-11.5
	l1.9-5.8l1.3,0.4L59.9,83c-3.3,10.8-8.4,11.9-10.6,12.4C48.8,95.5,48.3,95.5,47.7,95.6L47.7,95.6z"/>
<path class="st1" d="M13.4,116.3c-0.8,0-1.7-0.2-2.4-0.7c-2.3-1.8-1.8-3.8-0.9-7.4v-0.1c0.4-1.5,1.5-6.7,3.4-15.4l1,0.2l-1-0.2
	c2.7-12.2,6.4-29.3,9.4-42.9c2.7-12.5,4.7-21.5,4.8-22.1l0.1-0.3c1.2-5,1.9-7.5,6.9-7.5l0,0c0.4,0,3.5,0,8.7,0.1
	c20.3,0.2,68,0.7,74.5,0.5c20.3-0.6,39.2-2.9,53-4.6c5.5-0.7,10.3-1.2,14.2-1.6c1.1-0.1,2.1-0.2,3.1-0.3c4-0.5,6.7-0.8,9.5,1
	c1.8,1.1,3.2,3.8,3.4,6.4s-0.7,5-2.6,6.6c-2.8,2.5-5.9,2.7-11.1,3c-1.4,0.1-2.9,0.2-4.7,0.3c-0.3,0-0.9,0.1-1.8,0.1
	c-5.3,0.4-19.5,1.5-40.2,3.2c-14,1.2-29.1,2.4-42,3.5c-17.3,1.4-30.9,2.5-33.3,2.7h-0.1c-0.1,0-0.1,0-0.2,0H65c-0.1,0-0.2,0-0.3,0
	c-2.1,0.3-8.3,1.1-13,8.7c-5,8.2-19.8,31.2-19.9,31.4c0,0-1.3,2-0.6,3.8c0.5,1.3,1.9,2.3,4.1,2.9c6.8,2,12.3,2.9,16.8,1.1
	c5.1-2.1,7.2-9.1,7.8-12.1c0.3-1.2,0.5-2.6,0.8-3.8c0.9-4.4,1.7-8.6,3.1-10.9c2.2-3.5,4.6-5,6.2-5.9c3.3-1.8,6.6-2.3,12.8-2.8
	c6.4-0.5,19.6-2,28.3-3c3.7-0.4,6.7-0.8,7.8-0.9c5.8-0.6,10.3,2.3,11.9,7.6c0.2,0.5,5.2,13.3,6.6,16.5c0.7,1.7,1.4,3.7,1,6.4
	c-0.5,3-3,6.3-6,7.7c-4.5,2.1-8.5-0.1-11.8-2.5c-0.1,0-0.2-0.1-0.3-0.2c-4.8-3.8-9.8-5.3-14.6-4.4c-6.3,1.1-10.3,5-14.1,8.8
	c-1.2,1.2-2.5,2.4-3.8,3.6c-3.1,2.6-5.2,3.2-11.1,4.8c-1.7,0.5-3.6,1-6,1.7c-1.1,0.3-3.8,1.2-7.6,2.3c-4.2,1.3-9.8,3.1-16.4,5.1
	c-14.6,4.4-29.4,8.8-30.2,9.1C16,115.9,14.7,116.3,13.4,116.3L13.4,116.3z M34.7,21.9L34.7,21.9c-3.3,0-3.6,0.9-4.9,6l-0.1,0.3
	c-0.1,0.5-2.2,10-4.8,22c-3,13.7-6.7,30.7-9.4,42.9c-1.9,8.8-3.1,13.8-3.4,15.4v0.1c-0.9,3.7-1,4.4,0.2,5.4c0.6,0.5,2.4,0.2,3.3-0.2
	h0.1c0.1,0,15.3-4.5,30.2-9.1c6.6-2,12.3-3.8,16.4-5.1c3.9-1.2,6.5-2,7.6-2.3c2.4-0.7,4.4-1.2,6.1-1.7c5.7-1.6,7.6-2.1,10.3-4.4
	c1.2-1.1,2.4-2.2,3.7-3.5c4-4,8.2-8.1,15.2-9.3c3.7-0.7,9.6-0.4,16.2,4.8c0.1,0.1,0.2,0.1,0.2,0.2c4.1,3,6.9,3.7,9.8,2.3
	c2.3-1.1,4.5-3.8,4.8-6.2c0.3-2.2-0.2-3.8-0.9-5.3c-1.3-2.9-6.6-16.4-6.7-16.7c-1.4-4.4-4.9-6.7-9.8-6.2c-1.1,0.1-4,0.4-7.8,0.9
	c-8.8,1-22,2.5-28.4,3c-5.9,0.5-9,1-12,2.6c-1.4,0.8-3.5,2.1-5.4,5.2c-1.2,2-2,6.2-2.8,10.3c-0.2,1.3-0.5,2.6-0.8,3.9
	c-0.7,3.3-3,11.1-9,13.5c-5.1,2-11,1.1-18.2-1c-2.9-0.8-4.7-2.2-5.4-4.2c-1-2.8,0.7-5.5,0.8-5.6c0.1-0.2,14.9-23.2,19.9-31.4
	c5.2-8.4,12.2-9.3,14.5-9.7c0.1,0,0.2,0,0.3,0c0.1,0,0.2,0,0.3,0h0.1H65c2.4-0.2,15.9-1.3,33.3-2.8c12.9-1.1,27.9-2.3,42-3.5
	c20.7-1.7,34.9-2.8,40.2-3.2c0.9-0.1,1.5-0.1,1.8-0.1c1.8-0.1,3.3-0.2,4.7-0.3c4.9-0.3,7.6-0.4,9.9-2.4c1.8-1.6,2-3.6,1.9-5
	c-0.2-2.3-1.4-4.2-2.5-4.9c-2.2-1.4-4.3-1.1-8.1-0.7c-0.9,0.1-2,0.2-3.1,0.3c-3.9,0.4-8.7,1-14.2,1.6c-13.9,1.7-32.8,4-53.2,4.6
	c-6.5,0.2-54.2-0.3-74.6-0.5C38.3,21.9,35,21.9,34.7,21.9L34.7,21.9z"/>
<circle class="st2" cx="26.9" cy="16.7" r="3.5"/>
<g class="st3">
	<path class="st4" d="M25.9,17.8h0.8v-2.1l0,0L26,15.9l-0.1-0.6l1-0.3h0.6v2.8h0.7v0.5H26v-0.5H25.9z"/>
</g>
<circle class="st2" cx="130.7" cy="14.2" r="3.5"/>
<g class="st3">
	<path class="st4" d="M129.6,15.3c0-0.7,0.2-1,0.7-1.2l0.4-0.1c0.3-0.1,0.4-0.2,0.4-0.5l0,0c0-0.3-0.2-0.4-0.5-0.4s-0.7,0.1-0.8,0.2
		l-0.1-0.5c0.2-0.1,0.6-0.2,1.1-0.2c0.7,0,1.1,0.3,1.1,1v0.1c0,0.6-0.2,0.8-0.7,1l-0.4,0.1c-0.4,0.1-0.5,0.3-0.5,0.5v0.2h1.5V16
		h-2.2V15.3z"/>
</g>
<circle class="st2" cx="206.5" cy="20.8" r="3.5"/>
<g class="st3">
	<path class="st4" d="M205.4,22.3l0.1-0.5c0.2,0.1,0.6,0.2,0.9,0.2c0.4,0,0.6-0.1,0.6-0.5l0,0c0-0.4-0.2-0.5-0.6-0.5H206v-0.5h0.3
		c0.4,0,0.6-0.1,0.6-0.4l0,0c0-0.3-0.2-0.4-0.5-0.4s-0.6,0.1-0.8,0.2l-0.2-0.5c0.3-0.1,0.7-0.2,1.1-0.2c0.6,0,1.1,0.2,1.1,0.8l0,0
		c0,0.3-0.2,0.6-0.5,0.7l0,0c0.3,0.1,0.6,0.3,0.6,0.8v0.1c0,0.7-0.4,1-1.2,1C206,22.5,205.6,22.4,205.4,22.3z"/>
</g>
<circle class="st2" cx="51.3" cy="38.3" r="3.5"/>
<g class="st3">
	<path class="st4" d="M51.6,39.3H50v-0.4l1.1-2.2h0.8l-1.1,2.1h0.8v-0.9h0.7v0.9h0.4v0.6h-0.4V40h-0.7V39.3z"/>
</g>
<circle class="st2" cx="23.5" cy="91.8" r="3.5"/>
<g class="st3">
	<path class="st4" d="M24.6,92.3L24.6,92.3c0,0.8-0.4,1.1-1.2,1.1c-0.6,0-0.9-0.1-1.2-0.3l0.2-0.5c0.3,0.2,0.6,0.3,0.9,0.3
		c0.4,0,0.6-0.1,0.6-0.5l0,0c0-0.4-0.2-0.5-0.6-0.5c-0.2,0-0.5,0-0.7,0l-0.1-0.2l0.1-1.7h1.9v0.6h-1.3l-0.1,0.7c0.1,0,0.2,0,0.3,0
		C24.2,91.3,24.6,91.5,24.6,92.3z"/>
</g>
<circle class="st2" cx="60.5" cy="93.6" r="3.5"/>
<g class="st3">
	<path class="st4" d="M61.8,94.1L61.8,94.1c0,0.8-0.4,1.1-1.2,1.1c-1,0-1.2-0.5-1.2-1.6v-0.1c0-1.4,0.5-1.7,1.3-1.7
		c0.3,0,0.6,0.1,0.8,0.1l-0.1,0.5c-0.2-0.1-0.4-0.1-0.7-0.1c-0.4,0-0.6,0.1-0.7,0.8c0.2,0,0.4,0,0.6,0
		C61.3,93.1,61.8,93.4,61.8,94.1z M61.1,94.2c0-0.4-0.1-0.5-0.5-0.5c-0.2,0-0.3,0-0.5,0c0,0.7,0.1,1,0.5,1
		C60.9,94.7,61.1,94.5,61.1,94.2L61.1,94.2z"/>
</g>
<circle class="st2" cx="63.6" cy="53.3" r="3.5"/>
<g class="st3">
	<path class="st4" d="M64.1,52.2h-1.6v-0.6h2.4v0.5L63.5,55h-0.8L64.1,52.2z"/>
</g>
<circle class="st2" cx="130.3" cy="46.9" r="3.5"/>
<g class="st3">
	<path class="st4" d="M131.6,47.6L131.6,47.6c0,0.7-0.4,1-1.2,1s-1.2-0.3-1.2-1l0,0c0-0.4,0.2-0.6,0.5-0.8c-0.2-0.1-0.4-0.4-0.4-0.7
		l0,0c0-0.6,0.4-0.9,1.2-0.9c0.7,0,1.1,0.3,1.1,0.9l0,0c0,0.3-0.1,0.6-0.4,0.7C131.4,47,131.6,47.2,131.6,47.6z M130.9,47.6
		c0-0.3-0.1-0.5-0.5-0.5l0,0c-0.3,0-0.5,0.1-0.5,0.5l0,0c0,0.3,0.1,0.5,0.5,0.5C130.7,48.1,130.9,48,130.9,47.6L130.9,47.6z
		 M129.9,46.2c0,0.3,0.1,0.4,0.4,0.4l0,0c0.3,0,0.4-0.2,0.4-0.4l0,0c0-0.3-0.1-0.4-0.4-0.4C130,45.7,129.9,45.9,129.9,46.2
		L129.9,46.2z"/>
</g>
<circle class="st2" cx="136.9" cy="91.4" r="3.5"/>
<g class="st3">
	<path class="st4" d="M138.1,91v0.6c0,0.9-0.2,1.5-1.2,1.5c-0.4,0-0.7-0.1-1-0.1l0.1-0.6c0.2,0.1,0.6,0.1,0.8,0.1
		c0.4,0,0.6-0.2,0.6-0.7c-0.2,0-0.4,0-0.6,0c-0.8,0-1.1-0.3-1.1-1.1v-0.1c0-0.7,0.4-1.1,1.2-1.1C137.8,89.7,138.1,90.1,138.1,91z
		 M136.9,91.4c0.2,0,0.4,0,0.5,0v-0.1c0-0.8-0.1-1-0.5-1s-0.5,0.2-0.5,0.5l0,0C136.4,91.2,136.6,91.4,136.9,91.4z"/>
</g>
<circle class="st2" cx="107.4" cy="85.9" r="3.5"/>
<g class="st3">
	<path class="st4" d="M105,87h0.8v-2.1l0,0l-0.7,0.2l-0.1-0.6l1-0.3h0.6V87h0.7v0.5H105V87z"/>
	<path class="st4" d="M108,87.3c-0.2-0.2-0.3-0.6-0.3-1.4v-0.1c0-0.7,0.1-1.1,0.3-1.4c0.2-0.2,0.5-0.3,0.9-0.3c0.5,0,0.8,0.1,1,0.3
		c0.2,0.3,0.3,0.6,0.3,1.3v0.1c0,0.8-0.1,1.1-0.3,1.3c-0.2,0.2-0.5,0.3-0.9,0.3C108.5,87.6,108.2,87.5,108,87.3z M109.3,86.9
		c0.1-0.2,0.1-0.5,0.1-1v-0.1c0-0.5,0-0.8-0.1-1c-0.1-0.1-0.2-0.1-0.4-0.1c-0.2,0-0.4,0-0.4,0.1c-0.1,0.2-0.1,0.5-0.1,1v0.1
		c0,0.5,0,0.8,0.1,1c0.1,0.1,0.2,0.2,0.4,0.2C109.1,87,109.2,87,109.3,86.9z"/>
</g>
<circle class="st2" cx="87.8" cy="99.7" r="3.5"/>
<g class="st3">
	<path class="st4" d="M85.5,100.8h0.8v-2.1l0,0l-0.7,0.2l-0.1-0.6l1-0.3h0.6v2.8h0.7v0.5h-2.2v-0.5H85.5z"/>
	<path class="st4" d="M88.3,100.8H89v-2.1l0,0l-0.7,0.2l-0.1-0.6l1-0.3h0.6v2.8h0.7v0.5h-2.2V100.8z"/>
</g>
<circle class="st2" cx="7.2" cy="119.8" r="3.5"/>
<g class="st3">
	<path class="st4" d="M4.8,120.9h0.8v-2.1l0,0L4.9,119l-0.1-0.6l1-0.3h0.6v2.8H7v0.5H4.8V120.9z"/>
	<path class="st4" d="M7.5,120.9c0-0.7,0.2-1,0.7-1.2l0.4-0.1c0.3-0.1,0.4-0.2,0.4-0.5l0,0c0-0.3-0.2-0.4-0.5-0.4s-0.7,0.1-0.8,0.2
		l-0.1-0.5c0.2-0.1,0.6-0.2,1.1-0.2c0.7,0,1.1,0.3,1.1,1v0.1c0,0.6-0.2,0.8-0.7,1l-0.4,0.1c-0.4,0.1-0.5,0.3-0.5,0.5v0.2h1.5v0.5
		H7.5V120.9z"/>
</g>
<line class="st5" x1="8.2" y1="91.7" x2="17.6" y2="93.3"/>
<rect x="12.6" y="87.8" transform="matrix(0.1719 -0.9851 0.9851 0.1719 -80.3705 89.4148)" class="st6" width="0.7" height="9.5"/>
<path class="st7" d="M10.3,87.8H1.7v7.8h8.6V87.8L10.3,87.8z"/>
<g class="st3">
	<path class="st8" d="M3.3,90.2c0-0.6,0.3-0.9,0.9-0.9h2v0.8H4.5c-0.1,0-0.2,0.1-0.2,0.2v0.9h1.8V92H4.3v2h-1
		C3.3,94,3.3,90.2,3.3,90.2z"/>
	<path class="st8" d="M7.1,93.4v-4h1v3.8c0,0.1,0,0.1,0.1,0.1h1.4v0.8H7.9C7.3,94.1,7.1,93.8,7.1,93.4z"/>
</g>
<rect x="140.8" y="14.3" transform="matrix(0.988 -0.1542 0.1542 0.988 -1.2648 21.9942)" class="st8" width="0.7" height="9.7"/>
<path class="st7" d="M145,8.8h-8.5l0,0v7.8h8.6C145,16.6,145,8.8,145,8.8z"/>
<g class="st3">
	<path class="st8" d="M138.4,10.1h1V11h-1V10.1z M138.5,11.5h0.9V15h-0.9V11.5z"/>
	<path class="st8" d="M140.6,14.3h1.1v-3l0,0l-1,0.3l-0.2-0.8l1.3-0.4h0.9v3.9h1V15h-3.1V14.3z"/>
</g>
<rect x="133.2" y="73.6" transform="matrix(0.9295 -0.3688 0.3688 0.9295 -17.5474 56.0871)" class="st8" width="9.5" height="0.7"/>
<path class="st7" d="M148.9,68.6h-8.5l0,0v7.8h8.6v-7.8H148.9z"/>
<g class="st3">
	<path class="st8" d="M142.4,69.8h1v0.9h-1V69.8z M142.4,71.2h0.9v3.6h-0.9V71.2z"/>
	<path class="st8" d="M144.3,74.6l0.1-0.8c0.3,0.2,0.8,0.3,1.3,0.3c0.6,0,0.9-0.2,0.9-0.7v-0.1c0-0.5-0.3-0.7-0.8-0.7h-0.6v-0.8h0.4
		c0.6,0,0.8-0.1,0.8-0.6v-0.1c0-0.4-0.3-0.5-0.7-0.5c-0.5,0-0.9,0.1-1.2,0.3l-0.2-0.8c0.4-0.2,0.9-0.3,1.5-0.3
		c0.9,0,1.5,0.3,1.5,1.2v0.1c0,0.5-0.2,0.9-0.7,1l0,0c0.5,0.1,0.8,0.5,0.8,1.1v0.1c0,1-0.6,1.4-1.8,1.4
		C145.2,74.9,144.6,74.8,144.3,74.6z"/>
</g>
<rect x="37.2" y="67.8" transform="matrix(0.5 -0.866 0.866 0.5 -43.729 68.6078)" class="st8" width="0.7" height="8.7"/>
<path class="st7" d="M49.1,70.3h-8.5l0,0v7.8h8.5V70.3z"/>
<g class="st3">
	<path class="st8" d="M42.5,71.6h1v0.9h-1V71.6z M42.6,73h0.9v3.6h-0.9V73z"/>
	<path class="st8" d="M44.6,75.7c0-1,0.3-1.4,1.1-1.6l0.6-0.2c0.4-0.1,0.6-0.2,0.6-0.7l0,0c0-0.4-0.3-0.6-0.8-0.6s-0.9,0.1-1.2,0.3
		l-0.2-0.8c0.4-0.2,0.9-0.3,1.5-0.3c0.9,0,1.6,0.4,1.6,1.4v0.1c0,0.8-0.3,1.2-1,1.4l-0.6,0.2c-0.5,0.1-0.7,0.4-0.7,0.8v0.2h2.2v0.8
		h-3.1C44.6,76.7,44.6,75.7,44.6,75.7z"/>
</g>
<path class="st8" d="M143.7,0.8h-6l0,0v6.5h6V0.8L143.7,0.8z"/>
<g class="st3">
	<path class="st9" d="M139.6,5.8l0.2-0.6c0.3,0.1,0.7,0.2,1,0.2c0.5,0,0.7-0.1,0.7-0.5l0,0c0-0.3-0.1-0.4-0.5-0.5l-0.4-0.1
		c-0.7-0.2-1-0.4-1-1.1V3.1c0-0.8,0.5-1.1,1.4-1.1c0.4,0,0.9,0.1,1.2,0.2L142,2.9c-0.3-0.1-0.7-0.2-1-0.2c-0.4,0-0.6,0-0.6,0.4l0,0
		c0,0.3,0.1,0.4,0.5,0.4l0.5,0.1c0.7,0.1,0.9,0.4,0.9,1.1v0.1c0,0.9-0.5,1.2-1.5,1.2C140.4,6.1,139.8,6,139.6,5.8z"/>
</g>
<rect x="0.9" y="90.5" class="st10" width="0.9" height="5.2"/>
<rect x="0.9" y="91.3" width="0.9" height="0.9"/>
<rect x="0.9" y="93.1" width="0.9" height="0.9"/>
<rect x="0.9" y="94.8" width="0.9" height="0.9"/>
<rect y="90.5" class="st10" width="0.9" height="5.2"/>
<rect y="90.5" width="0.9" height="0.9"/>
<rect y="92.2" width="0.9" height="0.9"/>
<rect y="93.9" width="0.9" height="0.9"/>
<rect x="0.9" y="87.8" class="st10" width="0.9" height="2.6"/>
<rect x="0.9" y="87.8" width="0.9" height="0.9"/>
<rect x="0.9" y="89.6" width="0.9" height="0.9"/>
<rect y="87.8" class="st10" width="0.9" height="2.6"/>
<rect y="88.7" width="0.9" height="0.9"/>
</svg>
