<?xml version="1.0" encoding="utf-8"?>
<!-- Generator: Adobe Illustrator 28.0.0, SVG Export Plug-In . SVG Version: 6.00 Build 0)  -->
<svg version="1.1" id="Capa_1" xmlns="http://www.w3.org/2000/svg" xmlns:xlink="http://www.w3.org/1999/xlink" x="0px" y="0px"
	 viewBox="0 0 210 98" style="enable-background:new 0 0 210 98;" xml:space="preserve">
<style type="text/css">
	.st0{fill:#585E65;}
	.st1{fill:#9E9FA3;}
	.st2{fill:#08161F;}
	.st3{enable-background:new    ;}
	.st4{fill:#9FA0A4;}
	.st5{fill:#E5E5E5;}
	.st6{fill:#C70502;}
	.st7{fill:#ECECEC;}
	.st8{fill:#323232;}
	.st9{fill:#FAFAFA;}
</style>
<path class="st0" d="M137.1,41.2l-0.6-1.3c1-0.5,1.9-0.9,2.7-1.3c4.8-2.2,7.2-3.4,8.3-5.5c1.2-2.5,1.1-3.9,0.8-5.8
	c-0.3-1.5-1.2-2.4-2.6-2.7c-1.1-0.2-2.8,0.1-5.3,0.9c-3.3,1-11.9,1.2-12.2,1.2v-1.4c0.1,0,8.8-0.2,11.9-1.1c2.8-0.9,4.6-1.1,6-0.9
	c2,0.3,3.4,1.7,3.8,3.8c0.4,2.1,0.6,3.9-0.9,6.7c-1.3,2.5-3.8,3.7-8.9,6.1C138.9,40.3,138,40.7,137.1,41.2L137.1,41.2z"/>
<path class="st1" d="M86.6,86.4c-3.8,0-35.4-0.2-41.7-0.2c-6.5-0.1-25.3,0-27.7,0.1c-0.1,0-0.1,0-0.2,0c-3.4,0-5.8-1.6-6.8-4.4
	c-1.1-3.1-0.1-4.9,1.3-7.5c0.1-0.3,0.3-0.6,0.5-0.8l0.2-0.4c2.6-4.8,9.6-17.6,25.1-24.6c6.2-2.8,14.3-4.1,21.7-3.5
	c13.4,1,23.1,9.8,26.8,13.1c0.3,0.3,0.6,0.5,0.8,0.8c2.1,1.8,3.8,1.1,5.8,0.3c0.2-0.1,0.5-0.2,0.8-0.3c1.4-0.5,4.8-2.1,7.8-3.5
	c1.7-0.8,3.3-1.6,4.3-2c0.9-0.4,3.7-1.7,7.3-3.3c6.9-3.2,16.4-7.5,21.4-9.7c6.8-3,7.4-3.8,7.9-4.5c0-0.1,0.1-0.1,0.1-0.2
	c0.7-1,1.3-2.8,0.1-5.3c-1.4-2.7-3.6-3.1-5.6-3.2c-2.2-0.1-10.1-0.1-12.8,0.2c-2.3,0.3-3.4,1.3-4.6,2.4l-0.3,0.2
	c-1.2,1.1-7.8,7.5-9.9,9.7c-2.4,2.4-4.8,2.9-6.3,3.2s-6.3,0.3-10.2,0.2c-1.5,0-3.2,0-4.9-0.1c-2.7,0-5.3,0-6.8-0.2
	c-2.4-0.2-5.1-1.8-6.6-4c-1.2-1.7-2.4-4-2.1-8.1c0.3-3.8,3.4-6.6,5.2-7.5c0.6-0.3,1-0.5,1.5-0.7c0.6-0.3,1.4-0.6,3.1-1.4
	c1.5-0.7,4.1-1.9,6.9-3.2c3-1.4,6.3-3,8.7-4.1c5.9-2.8,7.3-3.1,10.7-3.1c0.6,0,1.4,0,2.4,0c2.3,0,5.5,0,9.3,0c2.8,0,41.6,0,44.3,0.5
	c2.5,0.6,4.4,2.5,5.6,5.8c1,2.9-0.4,6.4-1.9,8.4c-1.1,1.5-19.3,27.6-20.5,29.9c-0.9,1.7-1,4.5-0.2,6.3c2.2,5.1,7.3,5.4,8.4,5.5
	c1.1,0,5.2,0,9.3,0c1.9,0,3.8,0,5.3,0c3.2,0,4.8-0.2,6.2-1.3c1.4-1.1,1.3-3.4,1.2-4.9v-0.1c-0.1-1.3-0.6-8-1-12.9
	c-0.1-1.6-0.2-3.1-0.3-4.1c-0.1-0.6-0.1-1.2-0.1-1.8c-0.3-3.4-0.5-6.1-0.2-7.6c0.3-1.8,2.1-3.5,3.2-4.7c0.1-0.1,0.3-0.3,0.4-0.4
	c0.6-0.6,6.1-6.5,9.8-10.4c1.6-1.7,2.9-3,3.4-3.6c2-2.1,3.5-2.6,5.5-2.6c2.4-0.1,4.9,1.5,6,3.8c1,2,0.5,3.9,0.1,6
	c-0.1,0.4-0.2,0.9-0.3,1.4c-0.5,2.5-3.9,17.4-4,18c-0.1,0.3-6.1,27.7-7,32.2c-0.8,3.9-2.1,6-3.8,8c-2.5,2.9-5.9,4.3-10.5,4.3h-12
	l-79.8,0.2C86.8,86.4,86.7,86.4,86.6,86.4L86.6,86.4z M38.5,84.1c2.6,0,4.9,0,6.5,0c6.2,0.1,37.9,0.2,41.7,0.2c0.1,0,0.1,0,0.2,0
	l79.8-0.2h12c2.5,0,6.1-0.4,8.9-3.6c1.5-1.8,2.6-3.6,3.4-7.1c0.9-4.5,6.9-31.9,7-32.2c0-0.2,3.5-15.5,4-17.9c0.1-0.5,0.2-1,0.3-1.4
	c0.4-1.8,0.7-3.2,0.1-4.6c-0.9-1.8-2.7-2.7-4.1-2.7c-1.6,0-2.6,0.4-4.1,2c-0.5,0.5-1.8,1.9-3.4,3.6c-3.9,4.1-9.2,9.8-9.8,10.5
	c-0.1,0.1-0.3,0.2-0.4,0.4c-0.9,0.8-2.4,2.4-2.6,3.5c-0.2,1.3,0,4,0.2,7.2c0.1,0.6,0.1,1.2,0.1,1.8c0.1,1,0.2,2.5,0.3,4.1
	c0.4,4.9,0.9,11.7,1,13v0.1c0.1,1.8,0.2,4.9-2,6.6c-2.1,1.7-4.4,1.8-7.5,1.8c-1.5,0-3.3,0-5.3,0c-4,0-8.2,0-9.3,0
	c-1.2,0-7.5-0.5-10.2-6.7c-1.1-2.5-0.9-5.9,0.2-8.1c1.4-2.5,19.6-28.8,20.7-30.2c1.3-1.7,2.3-4.5,1.6-6.5c-0.6-1.7-1.8-3.9-4.1-4.4
	c-2.1-0.4-36-0.5-43.8-0.5c-3.8,0-7,0-9.3,0c-1,0-1.8,0-2.4,0c-2.9,0-4,0.1-9.8,2.9c-2.4,1.1-5.8,2.7-8.8,4.1
	c-2.8,1.3-5.4,2.5-6.8,3.2c-1.7,0.8-2.5,1.2-3.1,1.4c-0.5,0.2-0.8,0.4-1.4,0.7c-1.2,0.6-3.8,2.9-4.1,5.9c-0.3,3.2,0.5,5,1.7,6.7
	s3.3,3,5.2,3.2c1.4,0.1,3.9,0.1,6.6,0.2c1.7,0,3.4,0,4.9,0.1c4.4,0.1,8.6,0,9.7-0.2c1.3-0.3,3.3-0.7,5.2-2.7c2.1-2.2,8.6-8.5,10-9.8
	l0.3-0.2c1.3-1.2,2.8-2.6,5.8-2.9c2.9-0.4,11.1-0.3,13.1-0.2c2.2,0.1,5.4,0.6,7.3,4.3c1.8,3.6,0.6,6.2-0.2,7.4c0,0-0.1,0.1-0.1,0.2
	c-0.7,1.1-1.4,2-8.7,5.3c-4.9,2.2-14.4,6.5-21.3,9.7c-3.6,1.6-6.4,2.9-7.4,3.3c-0.9,0.4-2.6,1.2-4.2,2c-3,1.4-6.4,3-7.9,3.6
	c-0.2,0.1-0.5,0.2-0.7,0.3c-2.1,0.8-4.9,2-8-0.6c-0.2-0.2-0.5-0.5-0.9-0.8C81.1,56.7,71.7,48.3,59,47.3c-7.1-0.6-14.9,0.7-20.7,3.3
	c-15,6.5-21.8,18.9-24.3,23.6l-0.2,0.4c-0.2,0.3-0.3,0.6-0.5,0.9c-1.3,2.3-2,3.5-1.2,5.8c0.7,2,2.3,3,4.8,3H17
	C19,84.2,30.2,84.1,38.5,84.1L38.5,84.1z"/>
<circle class="st2" cx="192.6" cy="86" r="3.5"/>
<g class="st3">
	<path class="st4" d="M191.6,87.1h0.8V85l0,0l-0.7,0.2l-0.1-0.6l1-0.3h0.6v2.8h0.7v0.6h-2.2v-0.6H191.6z"/>
</g>
<circle class="st2" cx="204" cy="8.6" r="3.5"/>
<g class="st3">
	<path class="st4" d="M202.9,9.7c0-0.7,0.2-1,0.8-1.2l0.4-0.1c0.3-0.1,0.4-0.2,0.4-0.5l0,0c0-0.3-0.2-0.4-0.5-0.4s-0.7,0.1-0.8,0.2
		l-0.1-0.5c0.2-0.1,0.6-0.2,1.1-0.2c0.7,0,1.1,0.3,1.1,1v0.1c0,0.6-0.2,0.8-0.7,1L204.1,9c-0.4,0.1-0.5,0.3-0.5,0.5v0.2h1.5v0.6
		h-2.2L202.9,9.7L202.9,9.7z"/>
</g>
<circle class="st2" cx="170" cy="32" r="3.5"/>
<g class="st3">
	<path class="st4" d="M168.9,33.5L169,33c0.2,0.1,0.6,0.2,0.9,0.2c0.4,0,0.6-0.1,0.6-0.5l0,0c0-0.4-0.2-0.5-0.6-0.5h-0.4v-0.6h0.3
		c0.4,0,0.6-0.1,0.6-0.4l0,0c0-0.3-0.2-0.4-0.5-0.4s-0.6,0.1-0.8,0.2l-0.2-0.6c0.3-0.1,0.7-0.2,1.1-0.2c0.6,0,1.1,0.2,1.1,0.8v0.1
		c0,0.3-0.2,0.6-0.5,0.7l0,0c0.3,0.1,0.6,0.3,0.6,0.8v0.1c0,0.7-0.5,1-1.3,1C169.5,33.7,169.1,33.7,168.9,33.5z"/>
</g>
<circle class="st2" cx="171.4" cy="61.3" r="3.5"/>
<g class="st3">
	<path class="st4" d="M171.7,62.3h-1.6v-0.4l1.1-2.3h0.8l-1.1,2.1h0.8v-1h0.7v1h0.4v0.6h-0.4V63h-0.7V62.3z"/>
</g>
<circle class="st2" cx="152.1" cy="59.7" r="3.5"/>
<g class="st3">
	<path class="st4" d="M153.3,60.3L153.3,60.3c0,0.8-0.4,1.1-1.2,1.1c-0.6,0-0.9-0.1-1.2-0.3l0.2-0.5c0.3,0.2,0.6,0.3,0.9,0.3
		c0.4,0,0.6-0.1,0.6-0.5l0,0c0-0.4-0.2-0.5-0.6-0.5c-0.2,0-0.5,0-0.7,0l-0.2-0.2l0.1-1.7h1.9v0.6h-1.3l-0.1,0.7c0.1,0,0.2,0,0.3,0
		C152.9,59.3,153.3,59.5,153.3,60.3z"/>
</g>
<circle class="st2" cx="173.1" cy="11.6" r="3.5"/>
<g class="st3">
	<path class="st4" d="M174.3,12.2L174.3,12.2c0,0.8-0.4,1.1-1.2,1.1c-1,0-1.2-0.5-1.2-1.6v-0.1c0-1.4,0.6-1.7,1.3-1.7
		c0.3,0,0.7,0.1,0.8,0.1l-0.1,0.6c-0.2-0.1-0.4-0.1-0.7-0.1c-0.4,0-0.7,0.1-0.7,0.8c0.2,0,0.4,0,0.6,0
		C173.9,11.2,174.3,11.4,174.3,12.2z M173.6,12.2c0-0.4-0.1-0.5-0.5-0.5c-0.2,0-0.3,0-0.5,0c0,0.7,0.1,1,0.5,1
		C173.5,12.8,173.6,12.6,173.6,12.2L173.6,12.2z"/>
</g>
<circle class="st2" cx="102.9" cy="5.4" r="3.5"/>
<g class="st3">
	<path class="st4" d="M103.4,4.2h-1.6V3.7h2.4v0.5L102.8,7H102L103.4,4.2z"/>
</g>
<circle class="st2" cx="66" cy="33.7" r="3.5"/>
<g class="st3">
	<path class="st4" d="M67.3,34.4L67.3,34.4c0,0.7-0.4,1-1.2,1c-0.9,0-1.2-0.3-1.2-1l0,0c0-0.4,0.2-0.6,0.5-0.8
		c-0.2-0.1-0.4-0.4-0.4-0.7l0,0c0-0.6,0.4-0.9,1.2-0.9c0.7,0,1.1,0.3,1.1,0.9l0,0c0,0.3-0.1,0.6-0.4,0.7
		C67.2,33.8,67.3,34,67.3,34.4z M66.6,34.4c0-0.3-0.1-0.5-0.5-0.5l0,0c-0.3,0-0.5,0.1-0.5,0.5l0,0c0,0.3,0.1,0.5,0.5,0.5
		S66.6,34.7,66.6,34.4L66.6,34.4z M65.6,32.9c0,0.3,0.1,0.4,0.4,0.4l0,0c0.3,0,0.4-0.2,0.4-0.4l0,0c0-0.3-0.1-0.4-0.4-0.4
		C65.8,32.5,65.6,32.6,65.6,32.9L65.6,32.9z"/>
</g>
<circle class="st2" cx="102.3" cy="34.8" r="3.5"/>
<g class="st3">
	<path class="st4" d="M103.6,34.4V35c0,0.9-0.2,1.5-1.2,1.5c-0.4,0-0.7-0.1-1-0.1l0.1-0.6c0.2,0.1,0.6,0.1,0.8,0.1
		c0.4,0,0.6-0.2,0.6-0.7c-0.2,0-0.4,0-0.6,0c-0.8,0-1.1-0.3-1.1-1.1V34c0-0.7,0.4-1.1,1.2-1.1C103.3,33,103.6,33.5,103.6,34.4z
		 M102.4,34.7c0.2,0,0.4,0,0.5,0v-0.1c0-0.8-0.1-1-0.5-1s-0.5,0.2-0.5,0.5l0,0C101.9,34.5,102,34.7,102.4,34.7z"/>
</g>
<circle class="st2" cx="118" cy="20.8" r="3.5"/>
<g class="st3">
	<path class="st4" d="M115.7,21.9h0.8v-2.2l0,0l-0.7,0.2l-0.1-0.6l1-0.3h0.6v2.8h0.7v0.6h-2.2v-0.5H115.7z"/>
	<path class="st4" d="M118.6,22.2c-0.2-0.2-0.3-0.6-0.3-1.4v-0.1c0-0.7,0.1-1.1,0.3-1.4c0.2-0.2,0.5-0.3,0.9-0.3
		c0.5,0,0.8,0.1,1,0.3c0.2,0.3,0.3,0.6,0.3,1.3v0.1c0,0.8-0.1,1.1-0.3,1.4c-0.2,0.2-0.5,0.3-0.9,0.3
		C119.1,22.5,118.8,22.4,118.6,22.2z M119.9,21.8c0.1-0.2,0.2-0.5,0.2-1v-0.1c0-0.5,0-0.8-0.1-1c-0.1-0.1-0.2-0.1-0.4-0.1
		c-0.2,0-0.4,0-0.4,0.1c-0.1,0.2-0.1,0.5-0.1,1v0.1c0,0.5,0,0.8,0.1,1c0.1,0.1,0.2,0.2,0.4,0.2C119.7,21.9,119.9,21.9,119.9,21.8z"
		/>
</g>
<circle class="st2" cx="136.5" cy="32.7" r="3.5"/>
<g class="st3">
	<path class="st4" d="M134.1,33.8h0.8v-2.2l0,0l-0.7,0.2l-0.1-0.6l1-0.3h0.6v2.8h0.7v0.6h-2.2v-0.5H134.1z"/>
	<path class="st4" d="M137,33.8h0.8v-2.2l0,0l-0.7,0.2l-0.1-0.6l1-0.3h0.6v2.8h0.7v0.6H137V33.8z"/>
</g>
<circle class="st2" cx="89.9" cy="54.1" r="3.5"/>
<g class="st3">
	<path class="st4" d="M87.5,55.2h0.8V53l0,0l-0.7,0.2l-0.1-0.6l1-0.3H89v2.8h0.7v0.6h-2.2V55.2z"/>
	<path class="st4" d="M90.2,55.1c0-0.7,0.2-1,0.8-1.2l0.4-0.1c0.3-0.1,0.4-0.2,0.4-0.5l0,0c0-0.3-0.2-0.4-0.5-0.4s-0.7,0.1-0.8,0.2
		l-0.1-0.5c0.2-0.1,0.6-0.2,1.1-0.2c0.7,0,1.1,0.3,1.1,1v0.1c0,0.6-0.2,0.8-0.7,1l-0.4,0.1c-0.4,0.1-0.5,0.3-0.5,0.5v0.2h1.5v0.6
		h-2.2v-0.8H90.2z"/>
</g>
<circle class="st2" cx="37.2" cy="42.3" r="3.5"/>
<g class="st3">
	<path class="st4" d="M34.8,43.4h0.8v-2.2l0,0l-0.7,0.2l-0.1-0.6l1-0.3h0.6v2.8H37V44h-2.2V43.4z"/>
	<path class="st4" d="M37.4,43.8l0.1-0.6c0.2,0.1,0.6,0.2,0.9,0.2c0.4,0,0.6-0.1,0.6-0.5l0,0c0-0.4-0.2-0.5-0.6-0.5H38v-0.6h0.3
		c0.4,0,0.6-0.1,0.6-0.4l0,0c0-0.3-0.2-0.4-0.5-0.4s-0.6,0.1-0.8,0.2l-0.2-0.6c0.3-0.1,0.7-0.2,1.1-0.2c0.6,0,1.1,0.2,1.1,0.8v0.1
		c0,0.3-0.2,0.6-0.5,0.7l0,0c0.3,0.1,0.6,0.3,0.6,0.8V43c0,0.7-0.5,1-1.3,1C38.1,44,37.7,43.9,37.4,43.8z"/>
</g>
<circle class="st2" cx="6" cy="86.7" r="3.5"/>
<g class="st3">
	<path class="st4" d="M3.6,87.9h0.8v-2.2l0,0l-0.7,0.2l-0.1-0.6l1-0.3h0.6v2.8h0.7v0.6H3.6V87.9z"/>
	<path class="st4" d="M7.8,87.8H6.1v-0.4L7.3,85H8l-1.1,2.1h0.8v-1h0.7v1h0.4v0.6H8.5v0.7H7.8V87.8z"/>
</g>
<rect x="86.6" y="82.2" class="st5" width="0.7" height="9.4"/>
<path class="st6" d="M91.2,88.4h-8.6v7.9h8.6V88.4z"/>
<g class="st3">
	<path class="st7" d="M84.2,90.7c0-0.6,0.3-0.9,0.9-0.9h2.1v0.8h-1.8c-0.1,0-0.2,0.1-0.2,0.2v0.9H87v0.8h-1.8v2h-1V90.7z"/>
	<path class="st7" d="M88.2,93.9v-4h1v3.8c0,0.1,0,0.1,0.1,0.1h1.4v0.8h-1.8C88.4,94.6,88.2,94.4,88.2,93.9z"/>
</g>
<rect x="180.3" y="21.5" transform="matrix(0.6982 -0.7159 0.7159 0.6982 35.6215 137.3037)" class="st7" width="0.7" height="9.8"/>
<path class="st6" d="M181.5,17.1h-8.6l0,0V25h8.6V17.1L181.5,17.1z"/>
<g class="st3">
	<path class="st7" d="M174.9,18.4h1v1h-1V18.4z M174.9,19.7h0.9v3.6h-0.9V19.7z"/>
	<path class="st7" d="M177.1,22.6h1.1v-3l0,0l-1,0.3L177,19l1.4-0.4h0.9v4h1v0.8h-3.1L177.1,22.6L177.1,22.6z"/>
</g>
<rect x="126.3" y="39.9" transform="matrix(0.9123 -0.4094 0.4094 0.9123 -6.8658 55.6877)" class="st7" width="0.7" height="7.9"/>
<path class="st6" d="M129.1,32.9h-8.6l0,0v7.9h8.6V32.9L129.1,32.9z"/>
<g class="st3">
	<path class="st7" d="M122.5,34.2h1v1h-1V34.2z M122.5,35.6h0.9v3.6h-0.9V35.6z"/>
	<path class="st7" d="M124.4,39l0.1-0.8c0.3,0.2,0.8,0.3,1.3,0.3c0.6,0,0.9-0.2,0.9-0.7v-0.1c0-0.5-0.3-0.7-0.8-0.7h-0.6v-0.8h0.4
		c0.6,0,0.8-0.1,0.8-0.6v-0.1c0-0.4-0.3-0.5-0.7-0.5c-0.5,0-0.9,0.1-1.2,0.3l-0.2-0.8c0.4-0.2,0.9-0.3,1.6-0.3
		c0.9,0,1.6,0.3,1.6,1.2v0.1c0,0.5-0.2,0.9-0.7,1l0,0c0.5,0.1,0.8,0.5,0.8,1.1v0.1c0,1-0.6,1.4-1.8,1.4
		C125.3,39.3,124.7,39.2,124.4,39z"/>
</g>
<rect x="117.7" y="6.1" class="st7" width="0.7" height="8.8"/>
<path class="st6" d="M122.3,0.4h-8.6l0,0v7.9h8.6V0.4L122.3,0.4z"/>
<g class="st3">
	<path class="st7" d="M115.7,1.7h1v1h-1V1.7z M115.8,3.1h0.9v3.6h-0.9V3.1z"/>
	<path class="st7" d="M117.8,5.8c0-1,0.3-1.4,1.1-1.6l0.6-0.2c0.4-0.1,0.6-0.2,0.6-0.7l0,0c0-0.4-0.3-0.6-0.8-0.6s-0.9,0.1-1.2,0.3
		l-0.2-0.8c0.4-0.2,0.9-0.3,1.5-0.3c0.9,0,1.6,0.4,1.6,1.4v0.1c0,0.8-0.3,1.2-1,1.4L119.4,5c-0.5,0.1-0.7,0.4-0.7,0.8V6h2.2v0.8
		h-3.1V5.8z"/>
</g>
<rect x="127.9" y="82.1" class="st7" width="0.7" height="9.8"/>
<path class="st7" d="M131.2,88.4h-6l0,0V95h6V88.4z"/>
<g class="st3">
	<path class="st8" d="M127,93.4l0.2-0.7c0.3,0.1,0.7,0.2,1,0.2c0.5,0,0.7-0.1,0.7-0.5l0,0c0-0.3-0.1-0.4-0.5-0.5l-0.4-0.1
		c-0.7-0.2-1-0.4-1-1.1v-0.1c0-0.9,0.5-1.1,1.4-1.1c0.4,0,0.9,0.1,1.2,0.2l-0.2,0.7c-0.3-0.1-0.7-0.2-1-0.2c-0.4,0-0.6,0-0.6,0.4
		l0,0c0,0.3,0.1,0.4,0.5,0.4l0.5,0.1c0.7,0.1,0.9,0.4,0.9,1.1v0.1c0,0.9-0.5,1.2-1.5,1.2C127.8,93.7,127.2,93.6,127,93.4z"/>
</g>
<rect x="81.8" y="91" class="st9" width="0.9" height="5.3"/>
<rect x="81.8" y="91.9" width="0.9" height="0.9"/>
<rect x="81.8" y="93.6" width="0.9" height="0.9"/>
<rect x="81.8" y="95.4" width="0.9" height="0.9"/>
<rect x="80.9" y="91" class="st9" width="0.9" height="5.3"/>
<rect x="80.9" y="91" width="0.9" height="0.9"/>
<rect x="80.9" y="92.7" width="0.9" height="0.9"/>
<rect x="80.9" y="94.5" width="0.9" height="0.9"/>
<rect x="81.8" y="88.4" class="st9" width="0.9" height="2.6"/>
<rect x="81.8" y="88.4" width="0.9" height="0.9"/>
<rect x="81.8" y="90.1" width="0.9" height="0.9"/>
<rect x="80.9" y="88.4" class="st9" width="0.9" height="2.6"/>
<rect x="80.9" y="89.2" width="0.9" height="0.9"/>
</svg>
