<?xml version="1.0" encoding="utf-8"?>
<!-- Generator: Adobe Illustrator 28.0.0, SVG Export Plug-In . SVG Version: 6.00 Build 0)  -->
<svg version="1.1" id="Capa_1" xmlns="http://www.w3.org/2000/svg" xmlns:xlink="http://www.w3.org/1999/xlink" x="0px" y="0px"
	 viewBox="0 0 210 210" style="enable-background:new 0 0 210 210;" xml:space="preserve">
<style type="text/css">
	.st0{fill:#585E65;}
	.st1{fill:#9E9FA3;}
	.st2{fill:#08161F;}
	.st3{enable-background:new    ;}
	.st4{fill:#9FA0A4;}
	.st5{fill:none;}
	.st6{fill:#E5E5E5;}
	.st7{fill:#C70502;}
	.st8{fill:#ECECEC;}
	.st9{fill:#323232;}
	.st10{fill:#FAFAFA;}
</style>
<path class="st0" d="M145,103.5c-1.6,0-3.2,0-4.9-0.1c-0.4,0-0.9,0-1.3,0V102c0.4,0,0.9,0,1.3,0c6.1,0.2,12.5,0.3,14.7-1.8
	c1.3-1.2,1.8-2.7,1.5-4.5c-0.3-2-2-3.7-3.4-4.5c-2.1-1.3-9.1-2.4-11.7-2.8l0.2-1.4c0.4,0.1,9.5,1.2,12.2,2.9c1.6,1,3.7,3.1,4.1,5.5
	c0.4,2.3-0.3,4.2-1.9,5.8C153.8,103.1,149.7,103.5,145,103.5L145,103.5z"/>
<path class="st1" d="M81.2,200c-2.7,0-6.6-1.2-9.5-6.9c-2.5-5-6.5-13.7-10.3-22.1c-3.9-8.6-7.6-16.7-9.6-20.4
	c-2.2-4.1-6.1-14.8,4-25.6c11.2-12,18.5-19.2,18.7-19.4l0.2-0.1c2.7-2.4,3.2-2.6,10.1-2.6c13,0,57.5-1.2,57.9-1.2l0,0l0,0l0,0
	c0.2,0,5.8-0.1,6.4-4.9c0.8-6-5.7-7.3-6-7.3H143L21.8,56c-4-1.1-5.8-3.2-6.5-4.8c-1.7-3.8-0.8-7.1,3.2-12.1l14.4-18.8
	c0.3-0.4,0.8-1.1,1.4-1.8c2-2.7,4.8-6.3,6.5-7.6c2.1-1.6,5.2-1.8,7.7-0.4c2.7,1.4,4,4.2,3.7,7.6C51,31,52.4,34.9,55.9,38.6
	c2.5,2.7,13.7,10.2,20.3,14.7c1.2,0.8,2.2,1.5,3.1,2.1c3.5,2.3,7.6,3.6,12.9,4c4.8,0.4,10.2-1.6,14.3-5.3c3.3-3,15.3-14.3,25.8-24.4
	c6.9-6.5,13.4-12.7,16-15.2c1.7-1.5,5-3.7,6.9-4.5c6.3-2.6,19-2.1,26.1,10.3l0,0c2.6,5.2,2.6,10.2,2.6,18.5c0,1.1,0,2.3,0,3.6
	c0,0.9,0.1,8,0.2,18c0.2,21.4,0.6,57.2,0.6,66.9c0,18.7,0.4,31.6,0.4,31.7l0,0c0,2.4-1.4,7.1-6.5,7.7c-0.3,0-0.6,0.1-0.9,0.1
	c-4.9,0-7.4-5.5-8.7-8.2c-1.3-2.8-13.9-29.3-14.8-30.8c-2-3.5-6.1-10.9-18.9-10.9c-4.8,0-10.9,0-16.8,0.1c-5.7,0-11.6,0.1-16.1,0.1
	c-7.4,0-11.4,1.5-15.3,5.6c-1.3,1.4-5.6,6.8-4.9,16c0.2,2.8,1.7,6.9,2.9,9c4.6,8,5.5,9.3,7.2,11.7l0.1,0.1
	c2.1,3,10.4,16.4,12.7,20.1c1.2,2,1.8,4.3,1.5,6.6c-0.5,4.4-2.9,7.4-6.8,8.6c-8.6,2.7-14.3,4.4-15.5,4.7C84,199.6,82.8,200,81.2,200
	L81.2,200z M75.8,107.1c-0.5,0.5-7.8,7.7-18.5,19.2c-3.7,3.9-5.7,8.2-6,12.7c-0.3,4.4,1.1,8.2,2.3,10.5c2,3.8,5.7,11.9,9.6,20.6
	c3.8,8.4,7.8,17.1,10.3,22c4.1,8,9.9,5.5,10.1,5.4l0.2-0.1H84c0.4-0.1,2.7-0.7,15.3-4.6c3.2-1,5-3.3,5.4-6.9
	c0.2-1.8-0.2-3.7-1.2-5.3c-2.5-4.1-10.7-17.3-12.7-20.1l-0.1-0.1c-1.7-2.5-2.7-3.8-7.3-11.9c-1.3-2.3-2.9-6.7-3.2-9.9
	c-0.8-10.1,4-16,5.4-17.6c4.3-4.6,8.8-6.3,16.8-6.3c4.5,0,10.4,0,16.1-0.1c5.9,0,11.9-0.1,16.8-0.1c5.8,0,10.6,1.4,14.3,4.2
	c3.1,2.3,5,5.2,6.4,7.8c1,1.7,13.7,28.5,14.8,31c3,6.6,5.4,7.2,7.5,7c4.6-0.6,4.8-5.3,4.8-5.7c0-0.6-0.4-13.4-0.4-31.8
	c0-9.7-0.4-45.5-0.6-66.9c-0.1-9.9-0.2-17.1-0.2-18c0-1.3,0-2.5,0-3.6c0-8.3,0.1-12.8-2.3-17.5c-2.1-3.6-5.9-8.2-12.4-9.9
	c-4.5-1.2-8.7-0.5-11.1,0.5c-1.8,0.7-4.8,2.7-6.3,4.1c-2.6,2.5-9.1,8.6-16,15.1c-10.6,10-22.5,21.4-25.9,24.4
	c-4.5,4-10.4,6.2-15.8,5.8c-5.7-0.4-10.1-1.8-13.9-4.4c-0.9-0.6-1.9-1.3-3.1-2.1c-7.2-4.8-18-12.1-20.7-15c-4.4-4.7-5.3-9.6-4.2-22
	c0.1-1.5,0-4.2-2.6-5.6c-1.8-1-4-0.9-5.4,0.3c-1.5,1.2-4.4,5-6.2,7.3c-0.6,0.8-1.1,1.4-1.4,1.9L20.2,40.3c-4.1,5-4.2,7.4-3,10
	c0.8,1.7,2.6,3,5.2,3.7l121.3,33.3c0.3,0.1,2.2,0.5,4.1,1.7c1.9,1.3,4,3.7,3.5,7.9c-0.7,5.3-5.8,6.7-8.4,6.7l0,0
	c-1.1,0-45,1.2-58,1.2c-6.4,0-6.5,0.1-8.8,2.1L75.8,107.1L75.8,107.1z"/>
<circle class="st2" cx="9.5" cy="51.9" r="3.5"/>
<g class="st3">
	<path class="st4" d="M8.5,53h0.8v-2.1l0,0L8.6,51l-0.1-0.6l1-0.3H10V53h0.7v0.5H8.5V53z"/>
</g>
<circle class="st2" cx="47.3" cy="4" r="3.5"/>
<g class="st3">
	<path class="st4" d="M46.2,5.1c0-0.7,0.2-1,0.8-1.2l0.4-0.1c0.3-0.1,0.4-0.2,0.4-0.5l0,0c0-0.3-0.2-0.4-0.5-0.4S46.6,3,46.5,3.1
		l-0.1-0.5c0.2-0.1,0.6-0.2,1.1-0.2c0.7,0,1.1,0.3,1.1,1v0.1c0,0.6-0.2,0.8-0.7,1l-0.4,0.1C47.1,4.7,47,4.9,47,5.1v0.2h1.5v0.5h-2.2
		L46.2,5.1L46.2,5.1z"/>
</g>
<circle class="st2" cx="59.2" cy="33.6" r="3.5"/>
<g class="st3">
	<path class="st4" d="M58,35.1l0.1-0.5c0.2,0.1,0.6,0.2,0.9,0.2c0.4,0,0.6-0.1,0.6-0.5l0,0c0-0.4-0.2-0.5-0.6-0.5h-0.4v-0.5h0.3
		c0.4,0,0.6-0.1,0.6-0.4l0,0c0-0.3-0.2-0.4-0.5-0.4s-0.6,0.1-0.8,0.2L58,32.1c0.3-0.1,0.7-0.2,1.1-0.2c0.6,0,1.1,0.2,1.1,0.8v0.1
		c0,0.3-0.2,0.6-0.5,0.7l0,0c0.3,0.1,0.6,0.3,0.6,0.8v0.1c0,0.7-0.5,1-1.3,1C58.6,35.3,58.2,35.3,58,35.1z"/>
</g>
<circle class="st2" cx="91.6" cy="53.5" r="3.5"/>
<g class="st3">
	<path class="st4" d="M91.9,54.5h-1.6v-0.4l1.1-2.3h0.8l-1.1,2.1h0.8v-1h0.7v1H93v0.6h-0.4v0.7h-0.7C91.9,55.2,91.9,54.5,91.9,54.5z
		"/>
</g>
<circle class="st2" cx="170.8" cy="4.4" r="3.5"/>
<g class="st3">
	<path class="st4" d="M172,5L172,5c0,0.8-0.4,1.1-1.2,1.1c-0.6,0-0.9-0.1-1.2-0.3l0.2-0.5c0.3,0.2,0.6,0.3,0.9,0.3
		c0.4,0,0.6-0.1,0.6-0.5l0,0c0-0.4-0.2-0.5-0.6-0.5c-0.2,0-0.5,0-0.7,0l-0.2-0.2l0.1-1.7h1.9v0.6h-1.3V4c0.1,0,0.2,0,0.3,0
		C171.6,4,172,4.2,172,5z"/>
</g>
<circle class="st2" cx="180.5" cy="172" r="3.5"/>
<g class="st3">
	<path class="st4" d="M181.8,172.5L181.8,172.5c0,0.8-0.4,1.1-1.2,1.1c-1,0-1.2-0.5-1.2-1.6v-0.1c0-1.4,0.5-1.7,1.3-1.7
		c0.3,0,0.6,0.1,0.8,0.1l-0.1,0.6c-0.2-0.1-0.4-0.1-0.7-0.1c-0.4,0-0.7,0.1-0.7,0.8c0.2,0,0.4,0,0.6,0
		C181.4,171.5,181.8,171.8,181.8,172.5z M181.1,172.6c0-0.4-0.1-0.5-0.5-0.5c-0.2,0-0.3,0-0.5,0c0,0.7,0.1,1,0.5,1
		C180.9,173.1,181.1,172.9,181.1,172.6L181.1,172.6z"/>
</g>
<circle class="st2" cx="142.3" cy="123.5" r="3.5"/>
<g class="st3">
	<path class="st4" d="M142.7,122.3h-1.6v-0.6h2.4v0.5l-1.3,2.9h-0.8L142.7,122.3z"/>
</g>
<circle class="st2" cx="89.4" cy="129.2" r="3.5"/>
<g class="st3">
	<path class="st4" d="M90.7,129.9L90.7,129.9c0,0.7-0.4,1-1.2,1c-0.9,0-1.2-0.3-1.2-1l0,0c0-0.4,0.2-0.6,0.5-0.8
		c-0.2-0.1-0.4-0.4-0.4-0.7l0,0c0-0.6,0.4-0.9,1.2-0.9c0.7,0,1.1,0.3,1.1,0.9l0,0c0,0.3-0.1,0.6-0.4,0.7
		C90.6,129.2,90.7,129.5,90.7,129.9z M90,129.8c0-0.3-0.1-0.5-0.5-0.5l0,0c-0.3,0-0.5,0.1-0.5,0.5l0,0c0,0.3,0.1,0.5,0.5,0.5
		S90,130.2,90,129.8L90,129.8z M89,128.4c0,0.3,0.1,0.4,0.4,0.4l0,0c0.3,0,0.4-0.2,0.4-0.4l0,0c0-0.3-0.1-0.4-0.4-0.4
		C89.2,128,89,128.1,89,128.4L89,128.4z"/>
</g>
<circle class="st2" cx="111.4" cy="191.2" r="3.5"/>
<g class="st3">
	<path class="st4" d="M112.7,190.7v0.7c0,0.9-0.2,1.5-1.2,1.5c-0.4,0-0.7-0.1-1-0.1l0.1-0.6c0.2,0.1,0.6,0.1,0.8,0.1
		c0.4,0,0.6-0.2,0.6-0.7c-0.2,0-0.4,0-0.6,0c-0.8,0-1.1-0.3-1.1-1.1v-0.1c0-0.7,0.4-1.1,1.2-1.1
		C112.3,189.4,112.7,189.8,112.7,190.7z M111.5,191.1c0.2,0,0.4,0,0.5,0V191c0-0.8-0.1-1-0.5-1s-0.5,0.2-0.5,0.5l0,0
		C110.9,190.9,111.1,191.1,111.5,191.1z"/>
</g>
<circle class="st2" cx="75.6" cy="204.6" r="3.5"/>
<g class="st3">
	<path class="st4" d="M73.3,205.7H74v-2.1l0,0l-0.7,0.2l-0.1-0.6l1-0.3h0.6v2.8h0.7v0.6h-2.2V205.7z"/>
	<path class="st4" d="M76.2,206c-0.2-0.2-0.3-0.6-0.3-1.4v-0.1c0-0.7,0.1-1.1,0.3-1.4c0.2-0.2,0.5-0.3,0.9-0.3c0.5,0,0.8,0.1,1,0.3
		c0.2,0.3,0.3,0.6,0.3,1.3v0.1c0,0.8-0.1,1.1-0.3,1.3c-0.2,0.2-0.5,0.3-0.9,0.3C76.7,206.3,76.4,206.2,76.2,206z M77.5,205.6
		c0.1-0.2,0.2-0.5,0.2-1v-0.1c0-0.5,0-0.8-0.1-1c-0.1-0.1-0.2-0.1-0.4-0.1c-0.2,0-0.4,0-0.4,0.1c-0.1,0.2-0.1,0.5-0.1,1v0.1
		c0,0.5,0,0.8,0.1,1c0.1,0.1,0.2,0.2,0.4,0.2C77.3,205.7,77.4,205.7,77.5,205.6z"/>
</g>
<circle class="st2" cx="44" cy="136.2" r="3.5"/>
<g class="st3">
	<path class="st4" d="M41.6,137.3h0.8v-2.1l0,0l-0.7,0.2l-0.1-0.6l1-0.3h0.6v2.8h0.7v0.6h-2.2L41.6,137.3L41.6,137.3z"/>
	<path class="st4" d="M44.4,137.3h0.8v-2.1l0,0l-0.7,0.2l-0.1-0.6l1-0.3H46v2.8h0.7v0.6h-2.2L44.4,137.3L44.4,137.3z"/>
</g>
<circle class="st2" cx="75.9" cy="98" r="3.5"/>
<g class="st3">
	<path class="st4" d="M73.6,99.1h0.8V97l0,0l-0.7,0.2l-0.1-0.6l1-0.3h0.6v2.8h0.7v0.5h-2.2v-0.5H73.6z"/>
	<path class="st4" d="M76.3,99c0-0.7,0.2-1,0.8-1.2l0.4-0.1c0.3-0.1,0.4-0.2,0.4-0.5l0,0c0-0.3-0.2-0.4-0.5-0.4s-0.7,0.1-0.8,0.2
		l-0.1-0.5c0.2-0.1,0.6-0.2,1.1-0.2c0.7,0,1.1,0.3,1.1,1v0.1c0,0.6-0.2,0.8-0.7,1l-0.4,0.1c-0.4,0.1-0.5,0.3-0.5,0.5v0.2h1.5v0.5
		h-2.2V99H76.3z"/>
</g>
<circle class="st2" cx="143.8" cy="95.6" r="3.5"/>
<g class="st3">
	<path class="st4" d="M141.4,96.7h0.8v-2.1l0,0l-0.7,0.2l-0.1-0.6l1-0.3h0.6v2.8h0.7v0.5h-2.2v-0.5H141.4z"/>
	<path class="st4" d="M144,97.1l0.1-0.5c0.2,0.1,0.6,0.2,0.9,0.2c0.4,0,0.6-0.1,0.6-0.5l0,0c0-0.4-0.2-0.5-0.6-0.5h-0.4v-0.5h0.3
		c0.4,0,0.6-0.1,0.6-0.4l0,0c0-0.3-0.2-0.4-0.5-0.4s-0.6,0.1-0.8,0.2l-0.2-0.5c0.3-0.1,0.7-0.2,1.1-0.2c0.6,0,1.1,0.2,1.1,0.8v0.1
		c0,0.3-0.2,0.6-0.5,0.7l0,0c0.3,0.1,0.6,0.3,0.6,0.8v0.1c0,0.7-0.5,1-1.3,1C144.7,97.3,144.3,97.3,144,97.1z"/>
</g>
<line class="st5" x1="72" y1="65.5" x2="69.6" y2="73.9"/>
<rect x="66.4" y="69.4" transform="matrix(0.2672 -0.9636 0.9636 0.2672 -15.3506 119.2555)" class="st6" width="8.7" height="0.7"/>
<path class="st7" d="M74,72.7h-8.6l0,0v7.8H74V72.7L74,72.7z"/>
<g class="st3">
	<path class="st8" d="M67,75.1c0-0.6,0.3-0.9,0.9-0.9H70V75h-1.7c-0.1,0-0.2,0.1-0.2,0.2v0.9h1.8V77H68v2h-1V75.1z"/>
	<path class="st8" d="M70.9,78.3v-4h1v3.8c0,0.1,0,0.1,0.1,0.1h1.4V79h-1.8C71.1,79,70.9,78.8,70.9,78.3z"/>
</g>
<rect x="112.7" y="39.8" transform="matrix(0.7669 -0.6417 0.6417 0.7669 -2.8856 83.141)" class="st8" width="0.7" height="11.5"/>
<path class="st7" d="M114.8,35.8h-8.6l0,0v7.8h8.6V35.8L114.8,35.8z"/>
<g class="st3">
	<path class="st8" d="M108.2,37h1v1h-1V37z M108.2,38.4h0.9V42h-0.9V38.4z"/>
	<path class="st8" d="M110.3,41.2h1.1v-3l0,0l-1,0.3l-0.2-0.8l1.4-0.4h0.9v4h1V42h-3.1v-0.8H110.3z"/>
</g>
<rect x="89.7" y="193.5" transform="matrix(0.966 -0.2587 0.2587 0.966 -48.1917 30.0444)" class="st8" width="0.7" height="9.3"/>
<path class="st7" d="M95.2,201.4h-8.6l0,0v7.8h8.6V201.4L95.2,201.4z"/>
<g class="st3">
	<path class="st8" d="M88.6,202.7h1v1h-1V202.7z M88.6,204.1h0.9v3.6h-0.9V204.1z"/>
	<path class="st8" d="M90.4,207.4l0.1-0.8c0.3,0.2,0.8,0.3,1.3,0.3c0.6,0,0.9-0.2,0.9-0.7v-0.1c0-0.5-0.3-0.7-0.8-0.7h-0.6v-0.8h0.4
		c0.6,0,0.8-0.1,0.8-0.6v-0.1c0-0.4-0.3-0.5-0.7-0.5c-0.5,0-0.9,0.1-1.2,0.3l-0.2-0.8c0.4-0.2,0.9-0.3,1.6-0.3
		c0.9,0,1.6,0.3,1.6,1.2v0.1c0,0.5-0.2,0.9-0.7,1l0,0c0.5,0.1,0.8,0.5,0.8,1.1v0.1c0,1-0.6,1.4-1.8,1.4
		C91.3,207.7,90.8,207.6,90.4,207.4z"/>
</g>
<rect x="178.5" y="103.5" class="st8" width="11.1" height="0.7"/>
<path class="st7" d="M196.8,100h-8.6l0,0v7.8h8.6V100L196.8,100z"/>
<g class="st3">
	<path class="st8" d="M190.2,101.2h1v1h-1V101.2z M190.2,102.6h0.9v3.6h-0.9V102.6z"/>
	<path class="st8" d="M192.1,105.4c0-1,0.3-1.4,1.1-1.6l0.6-0.2c0.4-0.1,0.6-0.2,0.6-0.7l0,0c0-0.4-0.3-0.6-0.8-0.6
		s-0.9,0.1-1.2,0.3l-0.2-0.8c0.4-0.2,0.9-0.3,1.5-0.3c0.9,0,1.6,0.4,1.6,1.4v0.1c0,0.8-0.3,1.2-1,1.4l-0.6,0.2
		c-0.5,0.1-0.7,0.4-0.7,0.8v0.2h2.2v0.8h-3.1L192.1,105.4L192.1,105.4z"/>
</g>
<path class="st8" d="M204,100.5h-6l0,0v6.5h6V100.5L204,100.5z"/>
<g class="st3">
	<path class="st9" d="M199.8,105.5l0.2-0.6c0.3,0.1,0.7,0.2,1,0.2c0.5,0,0.7-0.1,0.7-0.5l0,0c0-0.3-0.1-0.4-0.5-0.5l-0.4-0.1
		c-0.7-0.2-1-0.4-1-1.1v-0.1c0-0.9,0.5-1.1,1.4-1.1c0.4,0,0.9,0.1,1.2,0.2l-0.2,0.7c-0.3-0.1-0.7-0.2-1-0.2c-0.4,0-0.6,0-0.6,0.4
		l0,0c0,0.3,0.1,0.4,0.5,0.4l0.5,0.1c0.7,0.1,0.9,0.4,0.9,1.1v0.1c0,0.9-0.5,1.2-1.5,1.2C200.6,105.7,200,105.6,199.8,105.5z"/>
</g>
<rect x="64.6" y="75.4" class="st10" width="0.9" height="5.2"/>
<rect x="64.6" y="76.2" width="0.9" height="0.9"/>
<rect x="64.6" y="78" width="0.9" height="0.9"/>
<rect x="64.6" y="79.7" width="0.9" height="0.9"/>
<rect x="63.7" y="75.4" class="st10" width="0.9" height="5.2"/>
<rect x="63.7" y="75.4" width="0.9" height="0.9"/>
<rect x="63.7" y="77.1" width="0.9" height="0.9"/>
<rect x="63.7" y="78.8" width="0.9" height="0.9"/>
<rect x="64.6" y="72.7" class="st10" width="0.9" height="2.6"/>
<rect x="64.6" y="72.7" width="0.9" height="0.9"/>
<rect x="64.6" y="74.5" width="0.9" height="0.9"/>
<rect x="63.7" y="72.7" class="st10" width="0.9" height="2.6"/>
<rect x="63.7" y="73.6" width="0.9" height="0.9"/>
</svg>
