<?xml version="1.0" encoding="utf-8"?>
<!-- Generator: Adobe Illustrator 28.0.0, SVG Export Plug-In . SVG Version: 6.00 Build 0)  -->
<svg version="1.1" id="Capa_1" xmlns="http://www.w3.org/2000/svg" xmlns:xlink="http://www.w3.org/1999/xlink" x="0px" y="0px"
	 viewBox="0 0 210 151" style="enable-background:new 0 0 210 151;" xml:space="preserve">
<style type="text/css">
	.st0{fill:#585E65;}
	.st1{fill:#9FA0A4;}
	.st2{fill:#08161F;}
	.st3{enable-background:new    ;}
	.st4{fill:#E6E6E6;}
	.st5{fill:#C80502;}
	.st6{fill:#EDEDED;}
	.st7{fill:#323232;}
	.st8{fill:#FAFAFA;}
</style>
<path class="st0" d="M20.5,18.8c-1.3-1.1-2.6-2-3.7-2.8c-1.6-1.1-2.9-2.1-3.8-3.1c-0.9-1.2-1.2-2.6-0.7-4.2c1.2-3.9,6.4-7.6,8-8.1
	c3.6-1.2,6.4,2.4,8.4,5.1c0.7,1,1.4,1.9,2,2.4l-1,1.1c-0.7-0.6-1.4-1.6-2.2-2.6C25.6,4,23.4,1.1,20.8,2c-1.2,0.4-6.1,3.8-7.1,7.2
	c-0.3,1.1-0.2,2.1,0.4,2.9c0.7,0.9,2,1.8,3.4,2.9c1.1,0.8,2.5,1.7,3.8,2.9L20.5,18.8L20.5,18.8z"/>
<path class="st1" d="M196.1,140.5c-0.1,0-0.3,0-0.4,0c-0.1,0-0.4,0-1.1,0c-3.3-0.1-13.4-0.3-26-0.8c-23-0.8-52.8-2.2-64.3-4.2
	c-0.2,0-19.6-3.6-32.1-10.2c-7.1-3.7-13.1-14.9-15.6-19.7c-2.4-4.4-4-7.2-5.3-8.2c-1-0.7-1.8-0.5-4,0.1c-0.2,0.1-0.4,0.1-0.7,0.2
	c-2.6,0.7-4.4,1.1-6.2-0.3c-1.5-1.1-2.8-3.3-5.4-7.7c-0.4-0.7-0.8-1.4-1.3-2.2c-1-1.8-2-3.4-2.8-4.9c-3-5.4-5.3-9.3-9.7-12.7
	l-0.3-0.2C11,62.2,4.5,57.2,5.5,49.7c0.7-5.6,3.7-7.9,6.1-8.9c4.1-1.6,9.7-0.4,13.9,3.1c3.4,2.8,9.8,8.2,16.1,16
	c1.2,1.5,2.4,3.2,3.7,4.9c5,6.7,11.2,15,15.8,13.5c2.2-0.7,3.7-2.1,4.5-3.9c1.2-3.2,0.2-8.1-2.8-13.5c-3.7-6.5-10.5-13.2-15-17.6
	c-1-1-1.8-1.8-2.6-2.5c-4.9-5-20-18.4-24.2-21.9c-0.8-0.7-2.1-2.1-2.2-4.2c-0.1-1.8,0.8-3.6,2.6-5.4c5.1-5,7.8-2.8,11.4,0.4
	c0.4,0.3,0.7,0.6,1.1,1c0.2,0.1,1.4,1.2,3.5,3c55.7,47.2,70,59,72.1,60.5c0.2,0.1,0.4,0.3,0.6,0.5c2,1.6,6.1,5,11.3-0.2
	c4.1-4.1,11.5-1.5,18.1,0.9c2,0.7,3.8,1.3,5.5,1.8c3,0.8,25.6,7.9,29.2,9.6c1.9,0.9,3.5,3.2,4,5.7c0.6,3-0.3,6.1-2.6,8.7
	c-5.8,6.6-7.5,9.1-5.5,13.1c1.7,3.4,3.7,4.1,8.3,5.5c2.6,0.8,8.8,2.6,17.4,5.1c0.3,0.1,0.4,0.1,0.4,0.1c0.4,0.1,0.7,0.2,1.1,0.3
	c3.2,0.9,5.1,1.7,3.6,7.5l-0.2,0.7C199.1,139.2,198.8,140.5,196.1,140.5L196.1,140.5z M168.6,137.7c12.5,0.4,22.6,0.7,25.9,0.8
	c0.7,0,1.1,0,1.1,0c1.1,0.1,1.1,0,1.3-0.4c0.4-0.7,0.9-2.4,1.7-5.2l0.2-0.7c0.6-2,0.7-3.3,0.3-3.9c-0.3-0.5-1.2-0.7-2.4-1.1
	c-0.4-0.1-0.7-0.2-1.1-0.3c0,0-0.1,0-0.4-0.1c-8.7-2.5-14.9-4.3-17.5-5.1c-4.6-1.5-7.5-2.3-9.5-6.5c-2.6-5.3,0.1-8.8,5.8-15.4
	c2.4-2.7,2.5-5.3,2.1-6.9c-0.4-2.2-1.8-3.7-2.9-4.2c-3.2-1.5-25.2-8.5-28.8-9.4c-1.8-0.5-3.6-1.2-5.6-1.9c-6-2.1-12.8-4.6-16-1.3
	c-6.5,6.6-12.2,1.9-14.1,0.4c-0.2-0.2-0.4-0.3-0.5-0.4C105,73.8,80.7,53.4,36,15.5c-2.1-1.8-3.4-2.9-3.5-3c-0.4-0.3-0.8-0.7-1.1-1
	c-3.7-3.1-4.9-4.2-8.6-0.5c-1.4,1.4-2,2.6-2,3.8c0,1.3,0.9,2.3,1.5,2.7c4.2,3.6,19.4,17,24.3,22.1c0.7,0.7,1.5,1.5,2.5,2.5
	c4.6,4.5,11.5,11.3,15.3,18c3.4,6,4.5,11.4,3,15.2c-1,2.5-2.9,4.2-5.8,5.2c-0.6,0.2-1.2,0.3-1.8,0.3c-5.5,0-11.2-7.7-16.3-14.5
	c-1.3-1.8-2.5-3.4-3.7-4.9C33.6,53.7,27.3,48.5,24,45.7c-3.6-3-8.4-4.2-11.8-2.8c-2.6,1-4.2,3.5-4.7,7.1c-0.8,6.3,5,10.8,14.6,18.1
	l0.3,0.2c4.8,3.6,7,7.7,10.2,13.3c0.9,1.5,1.8,3.1,2.8,4.9c0.5,0.8,0.9,1.5,1.3,2.2c2.4,4,3.7,6.2,4.8,7.1c0.9,0.7,1.9,0.6,4.4-0.1
	c0.2-0.1,0.4-0.1,0.7-0.2c2.3-0.6,4-1.1,5.8,0.3c1.7,1.2,3.3,4,5.9,8.9c2.5,4.6,8.2,15.4,14.8,18.8c12.2,6.4,31.3,10,31.5,10
	C116,135.5,145.7,136.9,168.6,137.7L168.6,137.7L168.6,137.7z"/>
<circle class="st2" cx="85.4" cy="136.5" r="3.6"/>
<g class="st3">
	<path class="st1" d="M84.4,137.6h0.8v-2.2l0,0l-0.7,0.2l-0.1-0.6l1-0.3H86v2.8h0.7v0.6h-2.2v-0.5H84.4z"/>
</g>
<circle class="st2" cx="62.9" cy="125.1" r="3.6"/>
<g class="st3">
	<path class="st1" d="M61.8,126.2c0-0.7,0.2-1,0.8-1.2l0.4-0.1c0.3-0.1,0.4-0.2,0.4-0.5l0,0c0-0.3-0.2-0.5-0.5-0.5s-0.7,0.1-0.9,0.2
		l-0.1-0.6c0.3-0.1,0.6-0.2,1.1-0.2c0.7,0,1.2,0.3,1.2,1v0.1c0,0.6-0.2,0.8-0.7,1l-0.4,0.1c-0.4,0.1-0.5,0.3-0.5,0.6v0.2H64v0.6
		h-2.2V126.2z"/>
</g>
<circle class="st2" cx="53.2" cy="89.7" r="3.6"/>
<g class="st3">
	<path class="st1" d="M52,91.2l0.1-0.6c0.2,0.1,0.6,0.2,0.9,0.2c0.4,0,0.6-0.1,0.6-0.5l0,0c0-0.4-0.2-0.5-0.6-0.5h-0.4v-0.6H53
		c0.4,0,0.6-0.1,0.6-0.4l0,0c0-0.3-0.2-0.4-0.5-0.4s-0.6,0.1-0.8,0.2L52.1,88c0.3-0.1,0.7-0.2,1.1-0.2c0.6,0,1.1,0.2,1.1,0.9v0.1
		c0,0.4-0.2,0.6-0.5,0.7l0,0c0.3,0.1,0.6,0.3,0.6,0.8v0.1c0,0.7-0.5,1-1.3,1C52.7,91.4,52.3,91.4,52,91.2z"/>
</g>
<circle class="st2" cx="38.9" cy="103.1" r="3.6"/>
<g class="st3">
	<path class="st1" d="M39.3,104.1h-1.6v-0.4l1.1-2.3h0.8l-1.1,2.2h0.8v-1H40v1h0.4v0.6H40v0.7h-0.7V104.1z"/>
</g>
<circle class="st2" cx="21.3" cy="78" r="3.6"/>
<g class="st3">
	<path class="st1" d="M22.6,78.6L22.6,78.6c0,0.8-0.4,1.1-1.2,1.1c-0.6,0-0.9-0.1-1.2-0.3l0.2-0.6c0.3,0.2,0.6,0.3,0.9,0.3
		c0.4,0,0.6-0.1,0.6-0.5l0,0c0-0.4-0.2-0.5-0.6-0.5c-0.2,0-0.5,0-0.7,0l-0.2-0.2l0.1-1.7h1.9v0.6h-1.3L21,77.5c0.1,0,0.2,0,0.3,0
		C22.1,77.5,22.6,77.8,22.6,78.6z"/>
</g>
<circle class="st2" cx="3.5" cy="39.9" r="3.5"/>
<g class="st3">
	<path class="st1" d="M4.8,40.4L4.8,40.4c0,0.8-0.4,1.2-1.2,1.2c-1,0-1.2-0.5-1.2-1.6v-0.1c0-1.4,0.6-1.7,1.4-1.7
		c0.3,0,0.7,0.1,0.9,0.1l-0.1,0.6c-0.2-0.1-0.4-0.1-0.7-0.1c-0.5,0-0.7,0.1-0.7,0.8c0.2,0,0.4,0,0.6,0C4.4,39.4,4.8,39.7,4.8,40.4z
		 M4.1,40.5C4.1,40.1,4,40,3.6,40c-0.2,0-0.3,0-0.5,0c0,0.7,0.1,1,0.5,1S4.1,40.9,4.1,40.5L4.1,40.5z"/>
</g>
<circle class="st2" cx="67.2" cy="84.2" r="3.6"/>
<g class="st3">
	<path class="st1" d="M67.7,83H66v-0.6h2.4v0.5l-1.3,2.9h-0.8L67.7,83z"/>
</g>
<circle class="st2" cx="117.3" cy="85" r="3.6"/>
<g class="st3">
	<path class="st1" d="M118.6,84.6v0.7c0,0.9-0.2,1.5-1.3,1.5c-0.4,0-0.8-0.1-1-0.1l0.1-0.6c0.2,0.1,0.6,0.1,0.9,0.1
		c0.4,0,0.6-0.2,0.6-0.7c-0.2,0-0.4,0-0.6,0c-0.8,0-1.2-0.3-1.2-1.1v-0.1c0-0.7,0.4-1.1,1.2-1.1C118.2,83.2,118.6,83.6,118.6,84.6z
		 M117.4,84.9c0.2,0,0.4,0,0.5,0v-0.1c0-0.8-0.1-1-0.5-1s-0.5,0.2-0.5,0.5l0,0C116.9,84.8,117,84.9,117.4,84.9z"/>
</g>
<circle class="st2" cx="127.3" cy="66.6" r="3.6"/>
<g class="st3">
	<path class="st1" d="M124.9,67.7h0.8v-2.2l0,0l-0.7,0.2l-0.1-0.6l1-0.3h0.6v2.8h0.7v0.6H125v-0.5H124.9z"/>
	<path class="st1" d="M127.9,68.1c-0.3-0.2-0.4-0.6-0.4-1.4v-0.1c0-0.7,0.1-1.1,0.3-1.4c0.2-0.2,0.5-0.3,0.9-0.3
		c0.5,0,0.8,0.1,1,0.3c0.2,0.3,0.3,0.6,0.3,1.3v0.1c0,0.8-0.1,1.1-0.3,1.4c-0.2,0.2-0.5,0.3-0.9,0.3
		C128.4,68.3,128.1,68.3,127.9,68.1z M129.2,67.6c0.1-0.2,0.2-0.5,0.2-1v-0.1c0-0.5,0-0.8-0.1-1c-0.1-0.1-0.2-0.1-0.4-0.1
		s-0.4,0-0.4,0.1c-0.1,0.2-0.1,0.5-0.1,1v0.1c0,0.5,0,0.8,0.1,1c0.1,0.1,0.2,0.2,0.4,0.2C129,67.8,129.2,67.7,129.2,67.6z"/>
</g>
<circle class="st2" cx="184" cy="93.3" r="3.6"/>
<g class="st3">
	<path class="st1" d="M181.6,94.4h0.8v-2.2l0,0l-0.7,0.2l-0.1-0.6l1-0.3h0.6v2.8h0.7v0.6h-2.2v-0.5H181.6z"/>
	<path class="st1" d="M184.5,94.4h0.8v-2.2l0,0l-0.7,0.2l-0.1-0.6l1-0.3h0.6v2.8h0.7v0.6h-2.2v-0.5H184.5z"/>
</g>
<circle class="st2" cx="176.1" cy="112.9" r="3.6"/>
<g class="st3">
	<path class="st1" d="M173.7,114h0.8v-2.2l0,0l-0.7,0.2l-0.1-0.6l1-0.3h0.6v2.8h0.7v0.6h-2.2V114H173.7z"/>
	<path class="st1" d="M176.4,113.9c0-0.7,0.2-1,0.8-1.2l0.4-0.1c0.3-0.1,0.4-0.2,0.4-0.5l0,0c0-0.3-0.2-0.5-0.5-0.5
		s-0.7,0.1-0.9,0.2l-0.1-0.6c0.3-0.1,0.6-0.2,1.1-0.2c0.7,0,1.2,0.3,1.2,1v0.1c0,0.6-0.2,0.8-0.7,1l-0.4,0.1
		c-0.4,0.1-0.5,0.3-0.5,0.6v0.2h1.6v0.6h-2.2v-0.7H176.4z"/>
</g>
<circle class="st2" cx="206.4" cy="125.3" r="3.6"/>
<g class="st3">
	<path class="st1" d="M204,126.5h0.8v-2.2l0,0l-0.7,0.2l-0.1-0.6l1-0.3h0.6v2.8h0.7v0.6H204V126.5z"/>
	<path class="st1" d="M206.7,126.8l0.1-0.6c0.2,0.1,0.6,0.2,0.9,0.2c0.4,0,0.6-0.1,0.6-0.5l0,0c0-0.4-0.2-0.5-0.6-0.5h-0.4V125h0.3
		c0.4,0,0.6-0.1,0.6-0.4l0,0c0-0.3-0.2-0.4-0.5-0.4s-0.6,0.1-0.8,0.2l-0.2-0.6c0.3-0.1,0.7-0.2,1.1-0.2c0.6,0,1.1,0.2,1.1,0.9v0.1
		c0,0.4-0.2,0.6-0.5,0.7l0,0c0.3,0.1,0.6,0.3,0.6,0.8v0.1c0,0.7-0.5,1-1.3,1C207.4,127.1,207,127,206.7,126.8z"/>
</g>
<circle class="st2" cx="202.1" cy="144.1" r="3.6"/>
<g class="st3">
	<path class="st1" d="M199.7,145.2h0.8V143l0,0l-0.7,0.2l-0.1-0.6l1-0.3h0.6v2.8h0.7v0.6h-2.2v-0.5H199.7z"/>
	<path class="st1" d="M203.9,145.1h-1.6v-0.4l1.1-2.3h0.8l-1.1,2.2h0.8v-1h0.7v1h0.4v0.6h-0.4v0.7h-0.7V145.1z"/>
</g>
<rect x="168.4" y="135.6" class="st4" width="0.7" height="7.8"/>
<path class="st5" d="M173.1,142.9h-8.7l0,0v7.9h8.7V142.9L173.1,142.9z"/>
<g class="st3">
	<path class="st6" d="M166,145.3c0-0.6,0.3-0.9,0.9-0.9h2.1v0.8h-1.8c-0.1,0-0.2,0.1-0.2,0.2v0.9h1.9v0.8H167v2h-1V145.3z"/>
	<path class="st6" d="M169.9,148.5v-4.1h1v3.9c0,0.1,0,0.1,0.1,0.1h1.5v0.8h-1.8C170.1,149.3,169.9,149,169.9,148.5z"/>
</g>
<rect x="12.3" y="69.2" transform="matrix(0.5627 -0.8267 0.8267 0.5627 -49.6188 45.3929)" class="st6" width="11.6" height="0.7"/>
<path class="st5" d="M15.8,69.3H7.1l0,0v7.9h8.7L15.8,69.3L15.8,69.3z"/>
<g class="st3">
	<path class="st6" d="M9.1,70.6h1v1h-1V70.6z M9.1,72h1v3.6h-1V72z"/>
	<path class="st6" d="M11.2,74.8h1.1v-3.1l0,0l-1,0.3l-0.2-0.8l1.4-0.4h0.9v4h1v0.8h-3.1L11.2,74.8L11.2,74.8z"/>
</g>
<rect x="131.8" y="72.1" transform="matrix(0.2947 -0.9556 0.9556 0.2947 28.3285 183.2702)" class="st6" width="13" height="0.7"/>
<path class="st5" d="M144.1,64h-8.7l0,0v8h8.7V64L144.1,64z"/>
<g class="st3">
	<path class="st6" d="M137.4,65.3h1v1h-1V65.3z M137.4,66.7h1v3.6h-1V66.7z"/>
	<path class="st6" d="M139.2,70.1l0.1-0.8c0.3,0.2,0.8,0.3,1.3,0.3c0.6,0,0.9-0.2,0.9-0.7v-0.1c0-0.5-0.3-0.7-0.8-0.7h-0.6v-0.8h0.4
		c0.6,0,0.8-0.1,0.8-0.6v-0.1c0-0.4-0.3-0.5-0.7-0.5c-0.5,0-0.9,0.1-1.2,0.3l-0.2-0.8c0.4-0.2,0.9-0.3,1.6-0.3
		c0.9,0,1.6,0.3,1.6,1.2v0.1c0,0.5-0.2,0.9-0.7,1l0,0c0.5,0.1,0.8,0.5,0.8,1.1V69c0,1-0.6,1.4-1.8,1.4
		C140.2,70.4,139.6,70.3,139.2,70.1z"/>
</g>
<rect x="49.2" y="52.4" transform="matrix(0.6518 -0.7584 0.7584 0.6518 -20.897 59.9328)" class="st6" width="11.2" height="0.7"/>
<path class="st5" d="M55.2,54.6h-8.7l0,0v7.9h8.7V54.6L55.2,54.6z"/>
<g class="st3">
	<path class="st6" d="M48.5,55.8h1v1h-1V55.8z M48.6,57.2h1v3.6h-1V57.2z"/>
	<path class="st6" d="M50.5,60c0-1,0.3-1.4,1.1-1.7l0.6-0.2c0.4-0.1,0.6-0.2,0.6-0.7l0,0c0-0.4-0.3-0.6-0.8-0.6s-1,0.1-1.2,0.3
		l-0.2-0.8c0.4-0.2,0.9-0.3,1.6-0.3c0.9,0,1.6,0.4,1.6,1.4v0.1c0,0.8-0.3,1.2-1,1.4l-0.6,0.2c-0.5,0.1-0.7,0.4-0.7,0.8v0.3h2.2V61
		h-3.2C50.5,61,50.5,60,50.5,60z"/>
</g>
<rect x="106.6" y="135.7" transform="matrix(0.1305 -0.9914 0.9914 0.1305 -38.8176 227.7927)" class="st6" width="7.8" height="0.7"/>
<path class="st6" d="M112.8,139.8h-6.1l0,0v6.6h6.1V139.8L112.8,139.8z"/>
<g class="st3">
	<path class="st7" d="M108.5,144.9l0.2-0.7c0.3,0.1,0.7,0.2,1,0.2c0.5,0,0.7-0.1,0.7-0.5l0,0c0-0.3-0.1-0.4-0.5-0.5l-0.4-0.1
		c-0.7-0.2-1-0.4-1-1.1v-0.1c0-0.9,0.5-1.1,1.4-1.1c0.5,0,0.9,0.1,1.2,0.2l-0.2,0.7c-0.3-0.1-0.7-0.2-1-0.2c-0.4,0-0.6,0-0.6,0.4
		l0,0c0,0.3,0.1,0.4,0.5,0.5l0.5,0.1c0.7,0.1,1,0.4,1,1.1v0.1c0,0.9-0.5,1.2-1.5,1.2C109.3,145.2,108.7,145,108.5,144.9z"/>
</g>
<rect x="163.5" y="145.6" class="st8" width="0.9" height="5.3"/>
<rect x="163.5" y="146.5" width="0.9" height="0.9"/>
<rect x="163.5" y="148.2" width="0.9" height="0.9"/>
<rect x="163.5" y="150" width="0.9" height="0.9"/>
<rect x="162.6" y="145.6" class="st8" width="0.9" height="5.3"/>
<rect x="162.6" y="145.6" width="0.9" height="0.9"/>
<rect x="162.6" y="147.4" width="0.9" height="0.9"/>
<rect x="162.6" y="149.1" width="0.9" height="0.9"/>
<rect x="163.5" y="142.9" class="st8" width="0.9" height="2.6"/>
<rect x="163.5" y="142.9" width="0.9" height="0.9"/>
<rect x="163.5" y="144.7" width="0.9" height="0.9"/>
<rect x="162.6" y="142.9" class="st8" width="0.9" height="2.6"/>
<rect x="162.6" y="143.8" width="0.9" height="0.9"/>
</svg>
