<?xml version="1.0" encoding="utf-8"?>
<!-- Generator: Adobe Illustrator 28.0.0, SVG Export Plug-In . SVG Version: 6.00 Build 0)  -->
<svg version="1.1" id="Capa_1" xmlns="http://www.w3.org/2000/svg" xmlns:xlink="http://www.w3.org/1999/xlink" x="0px" y="0px"
	 viewBox="0 0 210 210" style="enable-background:new 0 0 210 210;" xml:space="preserve">
<style type="text/css">
	.st0{fill:#585E65;}
	.st1{fill:#9E9FA3;}
	.st2{fill:#08161F;}
	.st3{enable-background:new    ;}
	.st4{fill:#9FA0A4;}
	.st5{fill:none;}
	.st6{fill:#E5E5E5;}
	.st7{fill:#C70502;}
	.st8{fill:#ECECEC;}
	.st9{fill:#323232;}
	.st10{fill:#FAFAFA;}
</style>
<path class="st0" d="M155.9,99.6c-1.1-1.8-3.2-4.2-5.3-6.6s-3.9-4.5-4.6-5.8c-0.8-1.5-0.8-3.4-0.1-5.4c0.9-2.8,3.1-5.3,5.5-6.4
	c3-1.4,7.8,0.6,11.7,2.3c2,0.9,3.9,1.7,4.9,1.7v1.4c-1.2,0-3.2-0.8-5.4-1.8c-3.6-1.6-8.1-3.5-10.5-2.3c-2,0.9-3.9,3.2-4.7,5.6
	c-0.6,1.7-0.6,3.2,0,4.3c0.6,1.1,2.4,3.2,4.4,5.5c2.1,2.4,4.4,5,5.5,6.8L155.9,99.6L155.9,99.6z"/>
<path class="st1" d="M33.2,201.5c-1.5,0-3-0.3-4.1-1.1c-3.2-2.6-2.8-5.9-1.8-9s9.2-32.2,9.3-32.4c0.1-0.2,1.6-5.8,6.4-6.7
	c3.7-0.7,20-3,20.7-3.1c1.8-0.2,6.4-1.6,8.5-4.3c2.6-3.4,2.9-5.4,3.5-10.2v-0.1c0.6-4.9,4.8-31.8,4.8-32.1v-0.1c0,0,1-4.4-1.8-7.5
	c-2.2-2.4-3.9-3-8.7-4.4l-0.6-0.2C64.9,88.9,59,86.4,54,79.6c-3.5-4.7-8-16.7-10.1-22.4c-0.3-0.8-0.5-1.4-0.7-1.9
	c-1.4-3.5-3.7-9.4-3.7-9.4l0,0c-0.2-0.4-3.4-9.2-2.8-15.4c0.6-6,1.8-9.5,5.3-14.9c3.9-6,7.6-8.1,8.6-8.4c3.2-0.9,5.7,0.5,6.9,3.8
	c1.1,3.1,0,6.3-1.2,9.3c-0.2,0.5-0.4,1-0.5,1.5c-1.2,3.4-3.7,10.2-3.7,10.3c-0.5,1.5-1.1,4.2-0.2,5.3c1.3,1.5,2.1,1.5,6,1.4h0.4
	c1.8-0.1,8.6-0.3,20.1-0.6l11.3-0.3L170,35c0.7-0.1,6.4-0.7,9.1,3.2c2.6,3.7,2.1,5.7,1.3,9.2v0.1c-0.7,2.8-6.4,29.2-6.4,29.5
	c0,0.1-0.8,3.4-3.8,4.1c-1.8,0.4-4,0.1-5.4-0.4c-5-1.7-6.6,0-8.7,2.4c-0.1,0.2-0.3,0.3-0.4,0.5c-1.5,1.7-2.3,2.6-2.3,4.1
	c0,5.4,6.1,13.2,9.3,17.4c0.4,0.6,0.8,1.1,1.1,1.5c0.7,0.9,1.4,1.8,2.2,2.8c2.7,3.3,5.3,6.4,5.2,9.1c-0.1,3.5-5.8,29.7-5.8,30
	c0,0.2-0.1,0.3-0.1,0.5c-0.4,1.5-0.8,3.4-2.1,4.7c-1.6,1.6-20,14.8-24.6,18c-1.9,1.3-3.8,2.2-5.7,2.6c-2.4,0.5-4.9-0.1-7.8-0.7
	c-3.2-0.7-6.7-1.4-10.8-1c-3.7,0.4-8.3,2.5-11.5,5.4c-2.3,2.1-6.4,5.1-12.2,7.9c-5.7,2.7-46.7,13.4-51.3,14.6
	c-0.2,0.1-0.4,0.1-0.6,0.1C37.4,201,35.3,201.5,33.2,201.5L33.2,201.5z M82.5,102.8c-0.2,1.1-4.2,27.2-4.8,32v0.1
	c-0.6,4.9-0.9,7.3-3.9,11.2c-2.5,3.2-7.7,4.8-9.8,5c-0.7,0.1-17,2.4-20.6,3.1c-3.6,0.7-4.8,5.2-4.8,5.3c-0.3,1.2-8.4,29.4-9.3,32.5
	c-1.1,3.5-0.8,5.3,1.2,6.8c1.3,1.1,4.8,0.7,7.6-0.1c0.2-0.1,0.4-0.1,0.6-0.2c16.8-4.4,46.5-12.3,51-14.5c5.6-2.7,9.4-5.6,11.7-7.6
	c2.8-2.5,7.7-5.4,12.7-5.9c4.4-0.5,8.1,0.3,11.4,1c2.7,0.6,5,1.1,7,0.7c1.6-0.3,3.2-1.1,4.9-2.2c6.1-4.3,23-16.4,24.3-17.7
	c0.9-0.9,1.3-2.4,1.6-3.8c0-0.2,0.1-0.3,0.1-0.5c0.3-1.5,5.7-26.5,5.8-29.6c0.1-1.9-2.5-5-4.7-7.8c-0.8-0.9-1.6-1.9-2.2-2.8
	c-0.3-0.4-0.7-0.9-1.1-1.5c-1.7-2.2-4.1-5.3-6.1-8.6c-2.4-4.1-3.6-7.4-3.6-10.1c0-2.3,1.3-3.8,2.8-5.5c0.1-0.2,0.3-0.3,0.4-0.5
	c2.2-2.5,4.5-5.1,10.8-3c1.1,0.4,2.9,0.7,4.3,0.4c1.9-0.5,2.3-2.5,2.4-2.6c0.2-1.1,5.7-26.7,6.4-29.5v-0.1c0.8-3.3,1.1-4.6-1-7.6
	s-7.2-2.3-7.3-2.3h-0.1l-80.3,2.7L78.5,40v-1v1c-11.5,0.3-18.3,0.5-20.1,0.6H58c-3.9,0.1-5.6,0.2-7.6-2.1s-0.4-6.8-0.2-7.3
	c0-0.1,2.5-6.9,3.7-10.2c0.2-0.5,0.4-1,0.5-1.5c1-2.8,2-5.5,1.2-7.9c-0.8-2.3-2.3-3.1-4.4-2.5c-0.6,0.2-4,2.1-7.5,7.6
	c-3.7,5.7-4.5,9-5,14c-0.5,5.6,2.6,14.2,2.7,14.5c0.1,0.3,2.4,6,3.7,9.4c0.2,0.5,0.4,1.1,0.7,1.9c2,5.2,6.5,17.4,9.9,21.9
	c4.7,6.3,10.2,8.6,14.4,9.9l0.6,0.2c4.8,1.5,7,2.2,9.6,5C83.6,97.2,82.7,102.2,82.5,102.8L82.5,102.8z"/>
<circle class="st2" cx="184.5" cy="36.1" r="3.5"/>
<g class="st3">
	<path class="st4" d="M183.5,37.2h0.8v-2.1l0,0l-0.7,0.2l-0.1-0.5l1-0.3h0.6v2.8h0.7v0.5h-2.2v-0.6H183.5z"/>
</g>
<circle class="st2" cx="174.3" cy="85.4" r="3.5"/>
<g class="st3">
	<path class="st4" d="M173.2,86.5c0-0.7,0.2-1,0.7-1.2l0.4-0.1c0.3-0.1,0.4-0.2,0.4-0.5l0,0c0-0.3-0.2-0.4-0.5-0.4s-0.7,0.1-0.8,0.2
		l-0.1-0.5c0.2-0.1,0.6-0.2,1.1-0.2c0.7,0,1.1,0.3,1.1,1v0.1c0,0.6-0.2,0.8-0.7,1l-0.4,0.1c-0.4,0.1-0.5,0.3-0.5,0.5v0.2h1.5v0.5
		h-2.2V86.5z"/>
</g>
<circle class="st2" cx="158.4" cy="70.3" r="3.5"/>
<g class="st3">
	<path class="st4" d="M157.3,71.8l0.1-0.5c0.2,0.1,0.6,0.2,0.9,0.2c0.4,0,0.6-0.1,0.6-0.5l0,0c0-0.4-0.2-0.5-0.6-0.5h-0.4V70h0.3
		c0.4,0,0.6-0.1,0.6-0.4l0,0c0-0.3-0.2-0.4-0.5-0.4s-0.6,0.1-0.8,0.2l-0.2-0.5c0.3-0.1,0.7-0.2,1.1-0.2c0.6,0,1.1,0.2,1.1,0.8v0.1
		c0,0.3-0.2,0.6-0.5,0.7l0,0c0.3,0.1,0.6,0.3,0.6,0.8V71c0,0.7-0.4,1-1.2,1C157.9,72,157.5,71.9,157.3,71.8z"/>
</g>
<circle class="st2" cx="158.8" cy="88.4" r="3.5"/>
<g class="st3">
	<path class="st4" d="M159.2,89.4h-1.6V89l1.1-2.2h0.8l-1.1,2.1h0.8V88h0.7v0.9h0.4v0.6h-0.4v0.6h-0.7V89.4z"/>
</g>
<circle class="st2" cx="176.5" cy="116.3" r="3.5"/>
<g class="st3">
	<path class="st4" d="M177.7,116.9L177.7,116.9c0,0.8-0.4,1.1-1.2,1.1c-0.6,0-0.9-0.1-1.2-0.3l0.2-0.5c0.3,0.2,0.6,0.3,0.9,0.3
		c0.4,0,0.6-0.1,0.6-0.5l0,0c0-0.4-0.2-0.5-0.6-0.5c-0.2,0-0.5,0-0.7,0l-0.1-0.2l0.1-1.7h1.8v0.6h-1.3l-0.1,0.7c0.1,0,0.2,0,0.3,0
		C177.3,115.9,177.7,116.1,177.7,116.9z"/>
</g>
<circle class="st2" cx="168.6" cy="155.6" r="3.5"/>
<g class="st3">
	<path class="st4" d="M169.9,156.1L169.9,156.1c0,0.8-0.4,1.1-1.2,1.1c-1,0-1.2-0.5-1.2-1.6v-0.1c0-1.4,0.5-1.7,1.3-1.7
		c0.3,0,0.6,0.1,0.8,0.1l-0.1,0.5c-0.2-0.1-0.4-0.1-0.7-0.1c-0.4,0-0.6,0.1-0.7,0.8c0.2,0,0.4,0,0.6,0
		C169.4,155.1,169.9,155.3,169.9,156.1z M169.2,156.2c0-0.4-0.1-0.5-0.5-0.5c-0.2,0-0.3,0-0.5,0c0,0.7,0.1,1,0.5,1
		C169,156.7,169.2,156.5,169.2,156.2L169.2,156.2z"/>
</g>
<circle class="st2" cx="133.8" cy="179.7" r="3.5"/>
<g class="st3">
	<path class="st4" d="M134.3,178.5h-1.6V178h2.4v0.5l-1.3,2.9H133L134.3,178.5z"/>
</g>
<circle class="st2" cx="115" cy="178" r="3.5"/>
<g class="st3">
	<path class="st4" d="M116.3,178.7L116.3,178.7c0,0.7-0.4,1-1.2,1c-0.8,0-1.2-0.3-1.2-1l0,0c0-0.4,0.2-0.6,0.5-0.8
		c-0.2-0.1-0.4-0.4-0.4-0.7l0,0c0-0.6,0.4-0.9,1.2-0.9c0.7,0,1.1,0.3,1.1,0.9l0,0c0,0.3-0.1,0.6-0.4,0.7
		C116.1,178.1,116.3,178.3,116.3,178.7z M115.6,178.6c0-0.3-0.1-0.5-0.5-0.5l0,0c-0.3,0-0.5,0.1-0.5,0.5l0,0c0,0.3,0.1,0.5,0.5,0.5
		S115.6,179,115.6,178.6L115.6,178.6z M114.6,177.2c0,0.3,0.1,0.4,0.4,0.4l0,0c0.3,0,0.4-0.2,0.4-0.4l0,0c0-0.3-0.1-0.4-0.4-0.4
		C114.8,176.8,114.6,176.9,114.6,177.2L114.6,177.2z"/>
</g>
<circle class="st2" cx="93.6" cy="190.6" r="3.5"/>
<g class="st3">
	<path class="st4" d="M94.8,190.2v0.6c0,0.9-0.2,1.5-1.2,1.5c-0.4,0-0.7-0.1-1-0.1l0.1-0.6c0.2,0.1,0.6,0.1,0.8,0.1
		c0.4,0,0.6-0.2,0.6-0.7c-0.2,0-0.4,0-0.6,0c-0.8,0-1.1-0.3-1.1-1.1v-0.1c0-0.7,0.4-1.1,1.2-1.1C94.5,188.9,94.8,189.3,94.8,190.2z
		 M93.6,190.5c0.2,0,0.3,0,0.5,0v-0.1c0-0.8-0.1-1-0.5-1s-0.5,0.2-0.5,0.5l0,0C93.1,190.3,93.3,190.5,93.6,190.5z"/>
</g>
<circle class="st2" cx="25.5" cy="204.7" r="3.5"/>
<g class="st3">
	<path class="st4" d="M23.2,205.8H24v-2.1l0,0l-0.7,0.2l-0.1-0.5l1-0.3h0.6v2.8h0.7v0.5h-2.2L23.2,205.8L23.2,205.8z"/>
	<path class="st4" d="M26.1,206.1c-0.2-0.2-0.3-0.6-0.3-1.4v-0.1c0-0.7,0.1-1.1,0.3-1.3c0.2-0.2,0.5-0.3,0.9-0.3
		c0.5,0,0.8,0.1,1,0.3c0.2,0.3,0.3,0.6,0.3,1.3v0.1c0,0.8-0.1,1.1-0.3,1.3c-0.2,0.2-0.5,0.3-0.9,0.3
		C26.6,206.4,26.3,206.3,26.1,206.1z M27.4,205.7c0.1-0.2,0.1-0.5,0.1-1v-0.1c0-0.5,0-0.8-0.1-1c-0.1-0.1-0.2-0.1-0.4-0.1
		c-0.2,0-0.4,0-0.4,0.1c-0.1,0.2-0.1,0.5-0.1,1v0.1c0,0.5,0,0.8,0.1,1c0.1,0.1,0.2,0.2,0.4,0.2C27.2,205.8,27.3,205.8,27.4,205.7z"
		/>
</g>
<circle class="st2" cx="36.6" cy="149.2" r="3.5"/>
<g class="st3">
	<path class="st4" d="M34.2,150.3H35v-2.1l0,0l-0.7,0.2l-0.1-0.5l1-0.3h0.6v2.8h0.7v0.5h-2.2L34.2,150.3L34.2,150.3z"/>
	<path class="st4" d="M37,150.3h0.8v-2.1l0,0l-0.7,0.2l-0.1-0.5l1-0.3h0.6v2.8h0.7v0.5H37V150.3z"/>
</g>
<circle class="st2" cx="66.4" cy="142.4" r="3.5"/>
<g class="st3">
	<path class="st4" d="M64,143.5h0.8v-2.1l0,0l-0.7,0.2L64,141l1-0.3h0.6v2.8h0.7v0.5H64V143.5z"/>
	<path class="st4" d="M66.7,143.4c0-0.7,0.2-1,0.7-1.2l0.4-0.1c0.3-0.1,0.4-0.2,0.4-0.5l0,0c0-0.3-0.2-0.4-0.5-0.4s-0.7,0.1-0.8,0.2
		l-0.1-0.5c0.2-0.1,0.6-0.2,1.1-0.2c0.7,0,1.1,0.3,1.1,1v0.1c0,0.6-0.2,0.8-0.7,1l-0.4,0.1c-0.4,0.1-0.5,0.3-0.5,0.5v0.2h1.5v0.5
		h-2.2V143.4z"/>
</g>
<circle class="st2" cx="75" cy="99.4" r="3.5"/>
<g class="st3">
	<path class="st4" d="M72.7,100.5h0.8v-2.1l0,0l-0.7,0.2L72.6,98l1-0.3h0.6v2.8h0.7v0.5h-2.2V100.5z"/>
	<path class="st4" d="M75.3,100.9l0.1-0.5c0.2,0.1,0.6,0.2,0.9,0.2c0.4,0,0.6-0.1,0.6-0.5l0,0c0-0.4-0.2-0.5-0.6-0.5h-0.4V99h0.3
		c0.4,0,0.6-0.1,0.6-0.4l0,0c0-0.3-0.2-0.4-0.5-0.4s-0.6,0.1-0.8,0.2l-0.2-0.5c0.3-0.1,0.7-0.2,1.1-0.2c0.6,0,1.1,0.2,1.1,0.8v0.1
		c0,0.3-0.2,0.6-0.5,0.7l0,0c0.3,0.1,0.6,0.3,0.6,0.8v0.1c0,0.7-0.4,1-1.2,1C75.9,101.1,75.5,101,75.3,100.9z"/>
</g>
<circle class="st2" cx="52.5" cy="86.4" r="3.5"/>
<g class="st3">
	<path class="st4" d="M50.1,87.5h0.8v-2.1l0,0l-0.7,0.2L50.1,85l1-0.3h0.6v2.8h0.7V88h-2.2L50.1,87.5L50.1,87.5z"/>
	<path class="st4" d="M54.2,87.4h-1.6V87l1.1-2.2h0.8l-1.1,2.1h0.8V86h0.7v0.9h0.4v0.6h-0.4V88h-0.7V87.4z"/>
</g>
<circle class="st2" cx="31.2" cy="35.5" r="3.5"/>
<g class="st3">
	<path class="st4" d="M28.9,36.6h0.8v-2.1l0,0L29,34.7l-0.1-0.5l1-0.3h0.6v2.8H31v0.5h-2.2v-0.6H28.9z"/>
	<path class="st4" d="M33.8,36.1L33.8,36.1c0,0.8-0.4,1.1-1.2,1.1c-0.6,0-0.9-0.1-1.2-0.3l0.2-0.5c0.3,0.2,0.6,0.3,0.9,0.3
		c0.4,0,0.6-0.1,0.6-0.5l0,0c0-0.4-0.2-0.5-0.6-0.5c-0.2,0-0.5,0-0.7,0l-0.1-0.2l0.1-1.7h1.8v0.6h-1.3l-0.1,0.7c0.1,0,0.2,0,0.3,0
		C33.4,35.1,33.8,35.3,33.8,36.1z"/>
</g>
<circle class="st2" cx="59" cy="3.5" r="3.5"/>
<g class="st3">
	<path class="st4" d="M56.7,4.6h0.8V2.4l0,0l-0.7,0.2l-0.1-0.5l1-0.3h0.6v2.8H59v0.5h-2.2L56.7,4.6L56.7,4.6z"/>
	<path class="st4" d="M61.7,4L61.7,4c0,0.8-0.4,1.1-1.2,1.1c-1,0-1.2-0.5-1.2-1.6l0,0c0-1.4,0.5-1.7,1.3-1.7c0.3,0,0.6,0.1,0.8,0.1
		l-0.1,0.5c-0.2-0.1-0.4-0.1-0.7-0.1c-0.4,0-0.6,0.1-0.7,0.8c0.2,0,0.4,0,0.6,0C61.3,3,61.7,3.3,61.7,4z M61,4.1
		c0-0.4-0.1-0.5-0.5-0.5c-0.2,0-0.3,0-0.5,0c0,0.7,0.1,1,0.5,1S61,4.4,61,4.1L61,4.1z"/>
</g>
<circle class="st2" cx="57.7" cy="33" r="3.5"/>
<g class="st3">
	<path class="st4" d="M55.4,34.1h0.8V32l0,0l-0.7,0.2l-0.1-0.5l1-0.3H57v2.8h0.7v0.5h-2.2L55.4,34.1L55.4,34.1z"/>
	<path class="st4" d="M59.6,31.9H58v-0.6h2.4v0.5l-1.3,2.9h-0.8L59.6,31.9z"/>
</g>
<line class="st5" x1="78.3" y1="35.9" x2="78.6" y2="44"/>
<rect x="78.1" y="35.9" transform="matrix(0.9995 -3.019094e-02 3.019094e-02 0.9995 -1.1718 2.3867)" class="st6" width="0.7" height="8.2"/>
<path class="st7" d="M82.7,42.6h-8.5l0,0v7.8h8.5V42.6z"/>
<g class="st3">
	<path class="st8" d="M75.8,44.9c0-0.6,0.3-0.9,0.9-0.9h2v0.8H77c-0.1,0-0.2,0.1-0.2,0.2v1h1.8v0.8h-1.8v2h-1V44.9z"/>
	<path class="st8" d="M79.7,48v-4h1v3.8c0,0.1,0,0.1,0.1,0.1h1.4v0.8h-1.8C79.9,48.8,79.7,48.5,79.7,48z"/>
</g>
<rect x="160.3" y="106.5" transform="matrix(0.789 -0.6144 0.6144 0.789 -30.6044 124.543)" class="st8" width="11.4" height="0.7"/>
<path class="st7" d="M176.6,100.7h-8.5l0,0v7.8h8.5V100.7z"/>
<g class="st3">
	<path class="st8" d="M170,102h1v0.9h-1V102z M170.1,103.3h0.9v3.6h-0.9V103.3z"/>
	<path class="st8" d="M172.1,106.1h1.1v-3l0,0l-1,0.3l-0.2-0.8l1.3-0.4h0.9v3.9h1v0.8h-3v-0.8H172.1z"/>
</g>
<rect x="77.6" y="112" transform="matrix(0.1442 -0.9895 0.9895 0.1442 -48.7178 176.8798)" class="st8" width="0.7" height="9.2"/>
<path class="st7" d="M75.4,112.2h-8.5l0,0v7.8h8.5V112.2z"/>
<g class="st3">
	<path class="st8" d="M68.8,113.4h1v0.9h-1V113.4z M68.9,114.8h0.9v3.6h-0.9V114.8z"/>
	<path class="st8" d="M70.6,118.1l0.1-0.8c0.3,0.2,0.8,0.3,1.3,0.3c0.6,0,0.9-0.2,0.9-0.7v-0.1c0-0.5-0.3-0.7-0.8-0.7h-0.6v-0.8H72
		c0.6,0,0.8-0.1,0.8-0.6v-0.1c0-0.4-0.3-0.5-0.7-0.5c-0.5,0-0.9,0.1-1.2,0.3l-0.2-0.8c0.4-0.2,0.9-0.3,1.5-0.3
		c0.8,0,1.5,0.3,1.5,1.2v0.1c0,0.5-0.2,0.9-0.7,1l0,0c0.5,0.1,0.8,0.5,0.8,1.1v0.1c0,1-0.6,1.4-1.8,1.4
		C71.5,118.4,71,118.3,70.6,118.1z"/>
</g>
<rect x="44.7" y="194.8" transform="matrix(0.9606 -0.2778 0.2778 0.9606 -53.8563 20.3948)" class="st8" width="0.7" height="10.9"/>
<path class="st7" d="M50.1,202h-8.5l0,0v7.8h8.5V202z"/>
<g class="st3">
	<path class="st8" d="M43.6,203.2h1v0.9h-1V203.2z M43.6,204.6h0.9v3.6h-0.9V204.6z"/>
	<path class="st8" d="M45.5,207.3c0-1,0.3-1.4,1.1-1.6l0.6-0.2c0.4-0.1,0.6-0.2,0.6-0.7l0,0c0-0.4-0.3-0.6-0.8-0.6s-0.9,0.1-1.2,0.3
		l-0.2-0.8c0.3-0.2,0.9-0.3,1.5-0.3c0.9,0,1.6,0.4,1.6,1.4v0.1c0,0.8-0.3,1.2-1,1.4l-0.6,0.2c-0.5,0.1-0.7,0.4-0.7,0.8v0.2h2.2v0.8
		h-3.1C45.5,208.3,45.5,207.3,45.5,207.3z"/>
</g>
<rect x="136.9" y="32.6" transform="matrix(0.9995 -3.315353e-02 3.315353e-02 0.9995 -1.1314 4.5705)" class="st8" width="0.7" height="7.6"/>
<path class="st8" d="M140.1,27.2h-5.9l0,0v6.5h5.9V27.2z"/>
<g class="st3">
	<path class="st9" d="M135.9,32.2l0.2-0.6c0.3,0.1,0.7,0.2,1,0.2c0.5,0,0.7-0.1,0.7-0.5l0,0c0-0.3-0.1-0.4-0.5-0.5l-0.4-0.1
		c-0.7-0.2-1-0.4-1-1.1v-0.1c0-0.8,0.5-1.1,1.4-1.1c0.4,0,0.9,0.1,1.2,0.2l-0.2,0.7c-0.3-0.1-0.7-0.2-0.9-0.2c-0.4,0-0.6,0-0.6,0.4
		l0,0c0,0.3,0.1,0.4,0.5,0.4l0.5,0.1c0.7,0.1,0.9,0.4,0.9,1.1v0.1c0,0.9-0.5,1.2-1.5,1.2C136.7,32.5,136.1,32.3,135.9,32.2z"/>
</g>
<rect x="73.4" y="45.2" class="st10" width="0.9" height="5.2"/>
<rect x="73.4" y="46" width="0.9" height="0.9"/>
<rect x="73.4" y="47.8" width="0.9" height="0.9"/>
<rect x="73.4" y="49.5" width="0.9" height="0.9"/>
<rect x="72.5" y="45.2" class="st10" width="0.9" height="5.2"/>
<rect x="72.5" y="45.2" width="0.9" height="0.9"/>
<rect x="72.5" y="46.9" width="0.9" height="0.9"/>
<rect x="72.5" y="48.6" width="0.9" height="0.9"/>
<rect x="73.4" y="42.6" class="st10" width="0.9" height="2.6"/>
<rect x="73.4" y="42.6" width="0.9" height="0.9"/>
<rect x="73.4" y="44.3" width="0.9" height="0.9"/>
<rect x="72.5" y="42.6" class="st10" width="0.9" height="2.6"/>
<rect x="72.5" y="43.4" width="0.9" height="0.9"/>
</svg>
