<?xml version="1.0" encoding="utf-8"?>
<!-- Generator: Adobe Illustrator 28.0.0, SVG Export Plug-In . SVG Version: 6.00 Build 0)  -->
<svg version="1.1" id="Capa_1" xmlns="http://www.w3.org/2000/svg" xmlns:xlink="http://www.w3.org/1999/xlink" x="0px" y="0px"
	 viewBox="0 0 210 125" style="enable-background:new 0 0 210 125;" xml:space="preserve">
<style type="text/css">
	.st0{fill:#585E65;}
	.st1{fill:#9E9FA3;}
	.st2{fill:#08161F;}
	.st3{enable-background:new    ;}
	.st4{fill:#9FA0A4;}
	.st5{fill:none;}
	.st6{fill:#E5E5E5;}
	.st7{fill:#C70502;}
	.st8{fill:#ECECEC;}
	.st9{fill:#323232;}
	.st10{fill:#FAFAFA;}
</style>
<path class="st0" d="M87.3,23.7c-1.5-0.4-4.2-0.9-6-1.2c-0.8-0.1-1.4-0.2-1.7-0.3c-1-0.2-2.6-0.8-4.3-2.3c-0.7-0.6-1.6-1.4-2.6-2.2
	c-1.2-1-2.5-2-3.3-2.8s-1.8-2.2-2.1-4.1C67,9.4,67.1,7,69,4.6c2-2.6,5.2-3.5,7.5-3.4c3.3,0.1,7.3,1.7,10.9,3.2
	c1.1,0.4,2.1,0.9,3,1.2l-0.5,1.3c-0.9-0.3-2-0.8-3.1-1.2c-3.4-1.4-7.3-3-10.4-3.1c-1.9,0-4.7,0.6-6.3,2.8c-1.3,1.7-1.7,3.4-1.4,5.2
	c0.3,1.5,1.1,2.7,1.7,3.3c0.8,0.7,2,1.7,3.2,2.7c1,0.8,2,1.6,2.7,2.2c1.5,1.3,2.8,1.8,3.7,2c0.3,0.1,0.9,0.2,1.7,0.3
	c1.8,0.3,4.5,0.8,6.1,1.2L87.3,23.7L87.3,23.7z"/>
<path class="st1" d="M179.3,118.2c-2,0-3.7-0.8-4.6-2.3c-0.9-1.4-1-3.1-0.3-4.5c0.2-0.5,2.1-3.2,6.6-9.9c3.5-5.2,7.9-11.7,8.3-12.5
	c1-2,0.9-3.4-0.6-5.8c-0.4-0.7-2.1-3.7-4.3-7.7c-4.4-8-12.5-22.9-13.6-24c-0.7-0.8-2-1.6-3.7-1.1c-0.7,0.2-9.4,3.5-46.4,18.3
	l-0.4-0.9l0.4,0.9c-8,3.2-15.7,6.3-21.7,8.7c-6.9,2.8-11.5,4.6-12,4.8l-0.3,0.1c-2.2,0.8-4.9,1.9-8.1,0.8c-1.7-0.6-3.4-2.4-4.9-4
	c-0.3-0.4-0.7-0.7-1-1s-0.7-0.8-1.2-1.3c-1.6-1.8-3.9-4.5-6-4.7c-2.7-0.2-4.3,1.3-5.9,2.9c-0.3,0.3-0.6,0.6-0.9,0.8
	c-1.3,1.2-2.4,2.2-3.4,3.1c-0.9,0.8-1.8,1.6-2.5,2.2c-2.6,2.3-5.7,3.1-9.4,2.4C34.8,81.8,30.8,78,27.1,74
	C23.6,70.1,11,55.6,10.3,54.9c-0.3-0.3-2-2.1-2-4s1.1-3.5,2.9-4.2c0.8-0.3,3.4-0.5,7.5-0.9c0.4,0,0.7,0,0.9-0.1
	c1.7-0.1,3.4,0,4.7,1.6c0.7,0.9,1.4,2.4,2.2,4.2c0.4,0.8,0.7,1.7,1.1,2.5c0,0,2.2,4.8,2.5,5.3c0.2,0.4,0.7,1.5,2,2.3
	c0.9,0.6,2,0.5,3.1,0.5c0.2,0,0.4,0,0.6,0c1.4,0,38.1-1.5,38.4-1.5c0.1,0,5-0.1,10.9-1c5.7-0.8,10.8-1.7,15.3-2.7
	c4.2-0.9,30.7-7.4,31-7.4h0.1c0.1,0,6.1-1.1,7.5-4.9c0-0.1,0.5-1.5-0.5-3.4c-0.9-1.6-3-4-8.5-6.2c-6.1-2.5-46.4-12-46.8-12.1
	c-0.7-0.2-1.4-0.6-2-1.1c-0.5-0.5-2.7-2.6-3.3-3.2c-0.3-0.3-3.3-3.4-3.9-4.2c-1.7-2.4-1.7-4.4-1.5-5.8c0.4-1.8,1.5-3.3,3.1-4.3
	c1.7-1,3.7-1.1,5.1-1.1c4.6,0,11.6,2.8,14.6,4c0.3,0.1,0.6,0.2,0.8,0.3c2.3,0.9,66.3,26.1,67.8,26.7c0.2,0.1,0.5,0.2,0.8,0.3
	c2.2,0.8,5.9,2.3,7.7,3.9c2,1.8,3.1,3.3,4.1,4.8c0.9,1.4,6.2,8.6,7.2,9.9c1.1,1.3,11.6,15.9,12.1,16.6c0.3,0.4,2.8,3.9,3.4,5
	c1.1,2.2,1.8,4.9,2,8c0.2,3.2,1.1,15.5,1.1,15.7c0.1,0.6,0.2,4-0.7,5.5c-1,1.6-2.2,2.8-4.1,4c-2,1.2-11.5,7.1-13.2,8.1
	c-0.3,0.2-0.5,0.3-0.8,0.4C182.3,117.3,180.9,118.1,179.3,118.2C179.4,118.1,179.3,118.1,179.3,118.2L179.3,118.2z M168.1,48.2
	c1.6,0,3,0.6,4.2,1.9c1.2,1.3,7.1,11.8,14,24.5c2.1,3.9,3.8,6.9,4.2,7.6c1.5,2.5,2.2,4.7,0.6,7.8c-0.4,0.9-3.6,5.6-8.4,12.7
	c-2.9,4.3-6.1,9.1-6.4,9.6c-0.4,0.8-0.3,1.7,0.2,2.6c0.7,1.1,1.9,1.3,2.8,1.3c0,0,0,0,0.1,0c0.9,0,2.1-0.7,3.3-1.4
	c0.3-0.2,0.5-0.3,0.8-0.5c1.7-1,11.1-6.8,13.1-8c1.6-1,2.6-2,3.5-3.3c0.4-0.7,0.5-2.9,0.4-4.3c0-0.1-0.8-12.5-1.1-15.7
	c-0.2-2.8-0.8-5.2-1.8-7.2c-0.4-0.8-2.4-3.7-3.2-4.8c-0.1-0.1-11-15.2-12-16.5c-1.1-1.4-6.5-8.8-7.3-10c-0.8-1.1-1.9-2.7-3.8-4.5
	c-1.6-1.4-5.2-2.8-7.1-3.5c-0.3-0.1-0.6-0.2-0.8-0.3c-1.5-0.6-65.5-25.8-67.8-26.7c-0.2-0.1-0.5-0.2-0.8-0.3c-2.6-1.1-9.6-4-13.8-4
	c-1.1,0-2.8,0.1-4.1,0.8c-1.1,0.6-1.9,1.7-2.1,2.9c-0.3,1.3,0.1,2.8,1.1,4.2c0.4,0.5,2.5,2.7,3.7,4c0.6,0.6,2.8,2.7,3.2,3.1
	c0.4,0.3,0.8,0.5,1.1,0.6c0.4,0.1,40.7,9.7,47.1,12.2c4.8,1.9,8,4.3,9.5,7.1c1.4,2.7,0.8,4.7,0.6,5.1c-1.8,4.8-8.5,6.1-9.1,6.2
	c-1,0.2-26.9,6.5-31,7.4c-4.6,1-9.8,2-15.5,2.8c-6,0.8-11,1-11.1,1c-1.5,0.1-37.1,1.5-38.5,1.5c-0.2,0-0.4,0-0.6,0
	c-1.2,0.1-2.8,0.2-4.3-0.8c-1.1-0.7-2.1-1.8-2.7-3.1c-0.3-0.6-2.4-5.2-2.5-5.3c-0.4-0.9-0.8-1.8-1.2-2.6c-0.7-1.6-1.4-3.1-1.9-3.8
	c-0.6-0.7-1.4-1-3-0.8c-0.2,0-0.6,0-0.9,0.1c-1.7,0.1-6.3,0.5-7,0.7c-1,0.4-1.6,1.2-1.6,2.2s1.1,2.2,1.4,2.6l0.1,0.1
	c0.1,0.2,13.2,15.1,16.7,19c3.6,3.9,7.2,7.3,15.3,8.8c3,0.6,5.5-0.1,7.7-1.9c0.7-0.6,1.5-1.4,2.5-2.2c1-0.9,2.1-1.9,3.4-3.1
	c0.3-0.2,0.5-0.5,0.8-0.8c1.7-1.6,3.9-3.7,7.5-3.4c2.9,0.3,5.6,3.3,7.3,5.4c0.4,0.5,0.8,0.9,1.1,1.2c0.3,0.3,0.7,0.7,1,1.1
	c1.2,1.3,2.8,3,4.1,3.4c2.5,0.9,4.6,0.1,6.7-0.7l0.3-0.1c0.5-0.2,5.3-2.1,12-4.8c6-2.4,13.7-5.5,21.7-8.7l0,0
	c40.3-16.1,45.9-18.2,46.7-18.4C167.1,48.3,167.5,48.2,168.1,48.2L168.1,48.2z"/>
<circle class="st2" cx="77.9" cy="88.6" r="3.5"/>
<g class="st3">
	<path class="st4" d="M76.9,89.7h0.8v-2.2l0,0L77,87.8l-0.1-0.6l1-0.3h0.6v2.8h0.7v0.6H77L76.9,89.7L76.9,89.7z"/>
</g>
<circle class="st2" cx="64.9" cy="77.8" r="3.5"/>
<g class="st3">
	<path class="st4" d="M63.8,78.9c0-0.7,0.2-1,0.8-1.2l0.4-0.1c0.3-0.1,0.4-0.2,0.4-0.5l0,0c0-0.3-0.2-0.4-0.5-0.4s-0.7,0.1-0.8,0.2
		L64,76.4c0.2-0.1,0.6-0.2,1.1-0.2c0.7,0,1.1,0.3,1.1,1v0.1c0,0.6-0.2,0.8-0.7,1L65,78.2c-0.4,0.1-0.5,0.3-0.5,0.5v0.2H66v0.6h-2.2
		V78.9z"/>
</g>
<circle class="st2" cx="41.5" cy="88.7" r="3.5"/>
<g class="st3">
	<path class="st4" d="M40.3,90.2l0.1-0.6c0.2,0.1,0.6,0.2,0.9,0.2c0.4,0,0.6-0.1,0.6-0.5l0,0c0-0.4-0.2-0.5-0.6-0.5h-0.4v-0.6h0.3
		c0.4,0,0.6-0.1,0.6-0.4l0,0c0-0.3-0.2-0.4-0.5-0.4s-0.6,0.1-0.8,0.2L40.3,87c0.3-0.1,0.7-0.2,1.1-0.2c0.6,0,1.1,0.2,1.1,0.8v0.1
		c0,0.3-0.2,0.6-0.5,0.7l0,0c0.3,0.1,0.6,0.3,0.6,0.8v0.1c0,0.7-0.5,1-1.3,1C40.9,90.4,40.5,90.3,40.3,90.2z"/>
</g>
<circle class="st2" cx="3.5" cy="47" r="3.5"/>
<g class="st3">
	<path class="st4" d="M3.8,48H2.2v-0.4l1.1-2.3h0.8L3,47.5h0.8v-1h0.7v1h0.4V48H4.5v0.7H3.8V48z"/>
</g>
<circle class="st2" cx="26.2" cy="41.6" r="3.5"/>
<g class="st3">
	<path class="st4" d="M27.5,42.2L27.5,42.2c0,0.8-0.4,1.1-1.2,1.1c-0.6,0-0.9-0.1-1.2-0.3l0.2-0.5c0.3,0.2,0.6,0.3,0.9,0.3
		c0.4,0,0.6-0.1,0.6-0.5l0,0c0-0.4-0.2-0.5-0.6-0.5c-0.2,0-0.5,0-0.7,0l-0.2-0.2l0.1-1.7h1.9v0.6H26l-0.1,0.7c0.1,0,0.2,0,0.3,0
		C27,41.1,27.5,41.4,27.5,42.2z"/>
</g>
<circle class="st2" cx="28.6" cy="66.4" r="3.5"/>
<g class="st3">
	<path class="st4" d="M29.9,67L29.9,67c0,0.8-0.4,1.1-1.2,1.1c-1,0-1.2-0.5-1.2-1.6v-0.1c0-1.4,0.6-1.7,1.3-1.7
		c0.3,0,0.7,0.1,0.8,0.1l-0.1,0.6c-0.2-0.1-0.4-0.1-0.7-0.1c-0.4,0-0.7,0.1-0.7,0.8c0.2,0,0.4,0,0.6,0C29.4,66,29.9,66.2,29.9,67z
		 M29.2,67c0-0.4-0.1-0.5-0.5-0.5c-0.2,0-0.3,0-0.5,0c0,0.7,0.1,1,0.5,1C29,67.6,29.2,67.4,29.2,67L29.2,67z"/>
</g>
<circle class="st2" cx="82.6" cy="54.4" r="3.5"/>
<g class="st3">
	<path class="st4" d="M83.1,53.2h-1.6v-0.6h2.4v0.5L82.5,56h-0.8L83.1,53.2z"/>
</g>
<circle class="st2" cx="133.2" cy="43.2" r="3.5"/>
<g class="st3">
	<path class="st4" d="M134.5,43.9L134.5,43.9c0,0.7-0.4,1-1.2,1c-0.9,0-1.2-0.3-1.2-1l0,0c0-0.4,0.2-0.6,0.5-0.8
		c-0.2-0.1-0.4-0.4-0.4-0.7l0,0c0-0.6,0.4-0.9,1.2-0.9c0.7,0,1.1,0.3,1.1,0.9l0,0c0,0.3-0.1,0.6-0.4,0.7
		C134.4,43.3,134.5,43.5,134.5,43.9z M133.8,43.9c0-0.3-0.1-0.5-0.5-0.5l0,0c-0.3,0-0.5,0.1-0.5,0.5l0,0c0,0.3,0.1,0.5,0.5,0.5
		S133.8,44.3,133.8,43.9L133.8,43.9z M132.8,42.5c0,0.3,0.1,0.4,0.4,0.4l0,0c0.3,0,0.4-0.2,0.4-0.4l0,0c0-0.3-0.1-0.4-0.4-0.4
		C133,42,132.8,42.2,132.8,42.5L132.8,42.5z"/>
</g>
<circle class="st2" cx="80.2" cy="27.7" r="3.5"/>
<g class="st3">
	<path class="st4" d="M81.5,27.2v0.7c0,0.9-0.2,1.5-1.2,1.5c-0.4,0-0.7-0.1-1-0.1l0.1-0.6c0.2,0.1,0.6,0.1,0.8,0.1
		c0.4,0,0.6-0.2,0.6-0.7c-0.2,0-0.4,0-0.6,0c-0.8,0-1.1-0.3-1.1-1.1l0,0c0-0.7,0.4-1.1,1.2-1.1S81.5,26.3,81.5,27.2z M80.3,27.6
		c0.2,0,0.4,0,0.5,0v-0.1c0-0.8-0.1-1-0.5-1s-0.5,0.2-0.5,0.5l0,0C79.8,27.4,79.9,27.6,80.3,27.6z"/>
</g>
<circle class="st2" cx="62.9" cy="3.8" r="3.5"/>
<g class="st3">
	<path class="st4" d="M60.5,4.9h0.8V2.7l0,0l-0.7,0.2l-0.1-0.6l1-0.3H62v2.8h0.7v0.6h-2.2V4.9z"/>
	<path class="st4" d="M63.5,5.2c-0.2-0.2-0.3-0.6-0.3-1.4V3.7c0-0.7,0.1-1.1,0.3-1.4C63.7,2.1,63.9,2,64.4,2s0.8,0.1,1,0.3
		c0.2,0.3,0.3,0.6,0.3,1.3v0.1c0,0.8-0.1,1.1-0.3,1.4c-0.2,0.2-0.5,0.3-0.9,0.3C64,5.5,63.7,5.4,63.5,5.2z M64.8,4.8
		c0.1-0.2,0.2-0.5,0.2-1V3.7c0-0.5,0-0.8-0.1-1c-0.1-0.1-0.2-0.1-0.4-0.1c-0.2,0-0.4,0-0.4,0.1C64,2.9,64,3.2,64,3.7v0.1
		c0,0.5,0,0.8,0.1,1C64.2,4.9,64.3,5,64.5,5C64.6,4.9,64.7,4.9,64.8,4.8z"/>
</g>
<circle class="st2" cx="175.6" cy="33.7" r="3.5"/>
<g class="st3">
	<path class="st4" d="M173.2,34.8h0.8v-2.2l0,0l-0.7,0.2l-0.1-0.6l1-0.3h0.6v2.8h0.7v0.6h-2.2v-0.5H173.2z"/>
	<path class="st4" d="M176,34.8h0.8v-2.2l0,0l-0.7,0.2l-0.1-0.6l1-0.3h0.6v2.8h0.7v0.6H176V34.8z"/>
</g>
<circle class="st2" cx="205.5" cy="74.1" r="3.5"/>
<g class="st3">
	<path class="st4" d="M203.1,75.2h0.8V73l0,0l-0.7,0.2l-0.1-0.6l1-0.3h0.6v2.8h0.7v0.6h-2.2v-0.5H203.1z"/>
	<path class="st4" d="M205.8,75.2c0-0.7,0.2-1,0.8-1.2l0.4-0.1c0.3-0.1,0.4-0.2,0.4-0.5l0,0c0-0.3-0.2-0.4-0.5-0.4s-0.7,0.1-0.8,0.2
		l-0.1-0.5c0.2-0.1,0.6-0.2,1.1-0.2c0.7,0,1.1,0.3,1.1,1v0.1c0,0.6-0.2,0.8-0.7,1l-0.4,0.1c-0.4,0.1-0.5,0.3-0.5,0.5v0.2h1.5V76
		h-2.2v-0.8H205.8z"/>
</g>
<circle class="st2" cx="206.5" cy="107.1" r="3.5"/>
<g class="st3">
	<path class="st4" d="M204.1,108.2h0.8V106l0,0l-0.7,0.2l-0.1-0.6l1-0.3h0.6v2.8h0.7v0.6h-2.2v-0.5H204.1z"/>
	<path class="st4" d="M206.7,108.6l0.1-0.6c0.2,0.1,0.6,0.2,0.9,0.2c0.4,0,0.6-0.1,0.6-0.5l0,0c0-0.4-0.2-0.5-0.6-0.5h-0.4v-0.6h0.3
		c0.4,0,0.6-0.1,0.6-0.4l0,0c0-0.3-0.2-0.4-0.5-0.4s-0.6,0.1-0.8,0.2l-0.2-0.6c0.3-0.1,0.7-0.2,1.1-0.2c0.6,0,1.1,0.2,1.1,0.8v0.1
		c0,0.3-0.2,0.6-0.5,0.7l0,0c0.3,0.1,0.6,0.3,0.6,0.8v0.1c0,0.7-0.5,1-1.3,1C207.4,108.8,207,108.8,206.7,108.6z"/>
</g>
<circle class="st2" cx="170.6" cy="119.8" r="3.5"/>
<g class="st3">
	<path class="st4" d="M168.2,120.9h0.8v-2.2l0,0l-0.7,0.2l-0.1-0.6l1-0.3h0.6v2.8h0.7v0.6h-2.2v-0.5H168.2z"/>
	<path class="st4" d="M172.3,120.8h-1.6v-0.4l1.1-2.3h0.8l-1.1,2.1h0.8v-1h0.7v1h0.4v0.6H173v0.7h-0.7V120.8z"/>
</g>
<circle class="st2" cx="184.2" cy="86.6" r="3.5"/>
<g class="st3">
	<path class="st4" d="M181.8,87.7h0.8v-2.2l0,0l-0.7,0.2l-0.1-0.6l1-0.3h0.6v2.8h0.7v0.6h-2.2v-0.5H181.8z"/>
	<path class="st4" d="M186.8,87.2L186.8,87.2c0,0.8-0.4,1.1-1.2,1.1c-0.6,0-0.9-0.1-1.2-0.3l0.2-0.5c0.3,0.2,0.6,0.3,0.9,0.3
		c0.4,0,0.6-0.1,0.6-0.5l0,0c0-0.4-0.2-0.5-0.6-0.5c-0.2,0-0.5,0-0.7,0l-0.2-0.2l0.1-1.7h1.9v0.6h-1.3l-0.1,0.7c0.1,0,0.2,0,0.3,0
		C186.4,86.1,186.8,86.4,186.8,87.2z"/>
</g>
<circle class="st2" cx="167.3" cy="56.3" r="3.5"/>
<g class="st3">
	<path class="st4" d="M164.9,57.4h0.8v-2.2l0,0l-0.7,0.2l-0.1-0.6l1-0.3h0.6v2.8h0.7V58H165v-0.6H164.9z"/>
	<path class="st4" d="M170,56.9L170,56.9c0,0.8-0.4,1.1-1.2,1.1c-1,0-1.2-0.5-1.2-1.6v-0.1c0-1.4,0.6-1.7,1.3-1.7
		c0.3,0,0.7,0.1,0.8,0.1l-0.1,0.6c-0.2-0.1-0.4-0.1-0.7-0.1c-0.4,0-0.7,0.1-0.7,0.8c0.2,0,0.4,0,0.6,0C169.5,55.8,170,56.1,170,56.9
		z M169.3,56.9c0-0.4-0.1-0.5-0.5-0.5c-0.2,0-0.3,0-0.5,0c0,0.7,0.1,1,0.5,1C169.1,57.5,169.3,57.3,169.3,56.9L169.3,56.9z"/>
</g>
<line class="st5" x1="119" y1="64.7" x2="122.8" y2="73.5"/>
<rect x="120.5" y="64.3" transform="matrix(0.9175 -0.3978 0.3978 0.9175 -17.5186 53.7775)" class="st6" width="0.7" height="9.6"/>
<path class="st7" d="M126.6,71.9H118l0,0v7.8h8.6V71.9L126.6,71.9z"/>
<g class="st3">
	<path class="st8" d="M119.6,74.2c0-0.6,0.3-0.9,0.9-0.9h2.1v0.8h-1.7c-0.1,0-0.2,0.1-0.2,0.2v0.9h1.8V76h-1.8v2h-1v-3.8H119.6z"/>
	<path class="st8" d="M123.5,77.4v-4h1v3.8c0,0.1,0,0.1,0.1,0.1h1.4v0.8h-1.8C123.7,78.1,123.5,77.9,123.5,77.4z"/>
</g>
<rect x="25.2" y="57" transform="matrix(0.912 -0.4101 0.4101 0.912 -20.9281 17.172)" class="st8" width="8.7" height="0.7"/>
<path class="st7" d="M40.7,51.5h-8.6l0,0v7.8h8.6L40.7,51.5L40.7,51.5z"/>
<g class="st3">
	<path class="st8" d="M34.1,52.7h1v1h-1V52.7z M34.1,54.1H35v3.6h-0.9V54.1z"/>
	<path class="st8" d="M36.3,56.9h1.1v-3l0,0l-1,0.3l-0.2-0.8l1.4-0.4h0.9v4h1v0.8h-3.1v-0.9H36.3z"/>
</g>
<rect x="185.8" y="111" transform="matrix(0.8483 -0.5295 0.5295 0.8483 -33.5532 116.2554)" class="st8" width="0.7" height="11.4"/>
<path class="st7" d="M196,116.7h-8.6l0,0v7.8h8.6V116.7L196,116.7z"/>
<g class="st3">
	<path class="st8" d="M189.4,117.9h1v1h-1V117.9z M189.5,119.3h0.9v3.6h-0.9V119.3z"/>
	<path class="st8" d="M191.3,122.7l0.1-0.8c0.3,0.2,0.8,0.3,1.3,0.3c0.6,0,0.9-0.2,0.9-0.7v-0.1c0-0.5-0.3-0.7-0.8-0.7h-0.6V120h0.4
		c0.6,0,0.8-0.1,0.8-0.6v-0.1c0-0.4-0.3-0.5-0.7-0.5c-0.5,0-0.9,0.1-1.2,0.3l-0.2-0.8c0.4-0.2,0.9-0.3,1.6-0.3
		c0.9,0,1.6,0.3,1.6,1.2v0.1c0,0.5-0.2,0.9-0.7,1l0,0c0.5,0.1,0.8,0.5,0.8,1.1v0.1c0,1-0.6,1.4-1.8,1.4
		C192.2,123,191.7,122.9,191.3,122.7z"/>
</g>
<rect x="85.8" y="24.3" transform="matrix(0.245 -0.9695 0.9695 0.245 44.2262 106.0449)" class="st8" width="8.8" height="0.7"/>
<path class="st7" d="M93.9,27.7h-8.6l0,0v7.8h8.6V27.7L93.9,27.7z"/>
<g class="st3">
	<path class="st8" d="M87.3,29h1v1h-1V29z M87.4,30.4h0.9V34h-0.9V30.4z"/>
	<path class="st8" d="M89.4,33.1c0-1,0.3-1.4,1.1-1.6l0.6-0.2c0.4-0.1,0.6-0.2,0.6-0.7l0,0c0-0.4-0.3-0.6-0.8-0.6s-0.9,0.1-1.2,0.3
		l-0.2-0.8c0.4-0.2,0.9-0.3,1.5-0.3c0.9,0,1.6,0.4,1.6,1.4v0.1c0,0.8-0.3,1.2-1,1.4L91,32.2c-0.5,0.1-0.7,0.4-0.7,0.8v0.2h2.2V34
		h-3.1V33.1z"/>
</g>
<rect x="140.5" y="26.8" transform="matrix(0.3176 -0.9482 0.9482 0.3176 72.5121 155.0401)" class="st8" width="6.9" height="0.7"/>
<path class="st8" d="M148.1,17.5h-6l0,0V24h6V17.5L148.1,17.5z"/>
<g class="st3">
	<path class="st9" d="M143.9,22.5l0.2-0.6c0.3,0.1,0.7,0.2,1,0.2c0.5,0,0.7-0.1,0.7-0.5l0,0c0-0.3-0.1-0.4-0.5-0.5l-0.4-0.1
		c-0.7-0.2-1-0.4-1-1.1v-0.1c0-0.9,0.5-1.1,1.4-1.1c0.4,0,0.9,0.1,1.2,0.2l-0.2,0.7c-0.3-0.1-0.7-0.2-1-0.2c-0.4,0-0.6,0-0.6,0.4
		l0,0c0,0.3,0.1,0.4,0.5,0.4l0.5,0.1c0.7,0.1,0.9,0.4,0.9,1.1v0.1c0,0.9-0.5,1.2-1.5,1.2C144.7,22.8,144.1,22.7,143.9,22.5z"/>
</g>
<rect x="117.1" y="74.5" class="st10" width="0.9" height="5.2"/>
<rect x="117.1" y="75.3" width="0.9" height="0.9"/>
<rect x="117.1" y="77.1" width="0.9" height="0.9"/>
<rect x="117.1" y="78.8" width="0.9" height="0.9"/>
<rect x="116.2" y="74.5" class="st10" width="0.9" height="5.2"/>
<rect x="116.2" y="74.5" width="0.9" height="0.9"/>
<rect x="116.2" y="76.2" width="0.9" height="0.9"/>
<rect x="116.2" y="78" width="0.9" height="0.9"/>
<rect x="117.1" y="71.9" class="st10" width="0.9" height="2.6"/>
<rect x="117.1" y="71.9" width="0.9" height="0.9"/>
<rect x="117.1" y="73.6" width="0.9" height="0.9"/>
<rect x="116.2" y="71.9" class="st10" width="0.9" height="2.6"/>
<rect x="116.2" y="72.7" width="0.9" height="0.9"/>
</svg>
