<?xml version="1.0" encoding="utf-8"?>
<!-- Generator: Adobe Illustrator 28.0.0, SVG Export Plug-In . SVG Version: 6.00 Build 0)  -->
<svg version="1.1" id="Capa_1" xmlns="http://www.w3.org/2000/svg" xmlns:xlink="http://www.w3.org/1999/xlink" x="0px" y="0px"
	 viewBox="0 0 210 210" style="enable-background:new 0 0 210 210;" xml:space="preserve">
<style type="text/css">
	.st0{fill:#585E65;}
	.st1{fill:#9E9FA3;}
	.st2{fill:#08161F;}
	.st3{enable-background:new    ;}
	.st4{fill:#E5E5E5;}
	.st5{fill:#C70502;}
	.st6{fill:#ECECEC;}
	.st7{fill:#323232;}
	.st8{fill:#FAFAFA;}
</style>
<path class="st0" d="M102.5,167.3l-0.1-1.4c0.1,0,11-0.9,16.1-1.2c4.9-0.3,10.1-0.9,12.5-2.6c1-0.7,2.5-2.9,1-8.9
	c-0.9-3.4-3-9.4-4.6-11.6c-2.3-3.3-7.8-4.6-15.3-3.6l-0.2-1.4c8.1-1.1,14,0.4,16.7,4.2c1.7,2.4,3.9,8.6,4.8,12.1
	c0.8,2.9,1.6,8.2-1.6,10.4c-2.7,1.9-8,2.5-13.3,2.9C113.5,166.4,102.6,167.3,102.5,167.3L102.5,167.3z"/>
<path class="st1" d="M131.9,199.1c-0.2,0-0.4,0-0.7,0c-2.2-0.1-36.4-0.2-65.4-0.3c-15.4,0-35-0.1-40.7,0.1
	c-5.6,0.1-9.2-0.7-11.5-2.5c-1.9-1.5-3.9-4.3-3.9-7.7v-3.2c0-2,0.5-4.1,1.4-5.9c1.1-2,2.6-3.5,4.4-4.2c2.6-1,4.7-1.3,8.6-1.8
	c0.5-0.1,0.9-0.1,1.4-0.2c4.5-0.6,18.1-2.1,41.3-4.4c32-3.2,53.9-5.3,54.1-5.3l0,0c0,0,4-0.3,5.7-2.6c0.7-1,0.9-2.2,0.5-3.6
	l-2.4-9.6c-1-4-4.8-7.8-8.8-8.9c-2.5-0.6-5.2-0.4-10.3,0.8c-1.5,0.4-3.1,0.8-5.2,1.2c-6,1.5-15.1,3.7-33.9,8
	c-12.2,2.8-23.5,5.8-32.5,8.1c-6.9,1.8-12.9,3.4-17.3,4.4c-0.1,0-0.2,0.1-0.4,0.1c-2,0.5-5.8,1.3-9-2.1c-2.9-3.1-0.7-8.5,0.4-10.6
	l13.6-29.7c1.4-2.9,3.9-6.7,6-8.8c5.1-5.1,11.7-7.6,20.3-7.8c6.8-0.1,13.6-0.3,20.2-0.5c6.9-0.2,13.4-0.4,19.5-0.5
	c2.3,0,5.8-0.1,8.6-1.7c3.1-1.8,4.6-5.2,4.7-10.4c0.2-7.3,3-12.8,8-15.5c4.8-2.6,11.2-2.1,16.5,1.3c7.9,5,23,14.1,28.1,17.1
	c0.2,0.1,0.3,0.2,0.5,0.3c1.8,1.1,4.2,2.5,6,2.3c1.4-0.2,2.6-0.8,3.4-1.8c0.9-1.2,1.3-2.9,1-5c-1.8-11.7-11.8-59.4-13.7-67.7
	c-0.9-3.9,0-6.3,0.9-7.7c1-1.5,2.5-2.5,4.3-2.9c4.2-0.8,7.2,1.3,8.4,5.8c0.3,0.9,33.4,139.4,34.8,145.3v0.1c0,0.1,0.4,2.8-1.4,5
	c-1.4,1.6-3.7,2.4-6.7,2.4c-7.8-0.1-19.6-0.2-29.3-0.2c-0.7,0-1.3,0-1.8,0c-2.7,0-3.5,0-4.4,0.7c-2,1.6-5.4,4.8-10,9.1
	c-0.3,0.2-0.6,0.5-0.9,0.8c-1.7,1.6-3.8,3.5-4.1,5.4c-0.2,1.6-0.2,1.8,0.4,3.9c0.2,0.6,0.4,1.3,0.6,2.2c0.5,1.9,0.1,3.8-1.1,5.4
	C139.1,197.4,136.7,199.1,131.9,199.1L131.9,199.1z M65.9,196.7c29.8,0.1,63.2,0.2,65.4,0.3c3.4,0.1,6-0.7,7.3-2.4
	c0.8-1,1.1-2.3,0.7-3.5c-0.2-0.9-0.4-1.6-0.6-2.2c-0.6-2.2-0.8-2.8-0.5-4.8c0.4-2.7,2.8-4.9,4.8-6.6c0.3-0.3,0.6-0.5,0.8-0.8
	c4.6-4.3,8.1-7.5,10.1-9.2c1.5-1.2,3-1.2,5.7-1.2c0.5,0,1.1,0,1.8,0c9.7,0,21.5,0.1,29.4,0.2c2.4,0,4.1-0.5,5.1-1.7
	c1.1-1.3,1-3,0.9-3.3C196,158.1,162.4,17.8,162,16.4c-0.4-1.3-1.4-5.2-6.1-4.3c-1.2,0.2-2.3,0.9-3,2c-1,1.5-1.2,3.6-0.6,6.1
	c1.8,8.3,11.9,56.1,13.7,67.8c0.5,3.3-0.5,5.4-1.4,6.5c-1.1,1.5-2.8,2.4-4.8,2.6c-2.5,0.3-5.1-1.3-7.3-2.6c-0.2-0.1-0.4-0.2-0.5-0.3
	c-5.2-3.1-20.3-12.1-28.2-17.2c-4.7-3-10.2-3.5-14.4-1.2c-4.3,2.3-6.7,7.1-6.9,13.7c-0.1,5.9-2.1,10-5.7,12.1
	c-3.2,1.9-7,1.9-9.6,1.9c-6,0.1-12.5,0.3-19.4,0.5c-6.6,0.2-13.4,0.4-20.3,0.5c-8,0.1-14.2,2.5-18.9,7.2c-1.9,1.9-4.3,5.5-5.6,8.2
	l-13.4,30c-0.7,1.4-2.8,6.1-0.7,8.3c2.4,2.5,5.2,1.9,7,1.5c0.1,0,0.3-0.1,0.4-0.1c4.4-1,10.3-2.5,17.2-4.4c9-2.4,20.3-5.3,32.6-8.2
	c18.8-4.3,27.9-6.6,33.9-8c2.1-0.5,3.7-0.9,5.2-1.3c4.8-1.1,8.1-1.6,11.3-0.8c4.8,1.3,9.1,5.6,10.3,10.4l2.4,9.6
	c0.5,2.1,0.2,3.9-0.8,5.4c-2.2,3-6.8,3.4-7.2,3.4c-0.6,0.1-22.3,2.1-54.1,5.3c-23.2,2.3-36.7,3.8-41.2,4.4c-0.5,0.1-1,0.1-1.4,0.2
	c-3.8,0.5-5.7,0.7-8.1,1.6c-2.2,0.9-4.5,4-4.5,8.1v3.2c0,2.7,1.6,4.9,3.1,6.1c1.9,1.5,5.1,2.1,10.2,2.1
	C30.9,196.6,50.5,196.6,65.9,196.7L65.9,196.7z"/>
<circle class="st2" cx="9.6" cy="200.4" r="3.5"/>
<g class="st3">
	<path class="st1" d="M8.7,201.5h0.8v-2.2l0,0l-0.7,0.2L8.6,199l1-0.3h0.6v2.8h0.7v0.6H8.7V201.5z"/>
</g>
<circle class="st2" cx="7.3" cy="175.2" r="3.5"/>
<g class="st3">
	<path class="st1" d="M6.2,176.2c0-0.7,0.2-1,0.8-1.2l0.4-0.1c0.3-0.1,0.4-0.2,0.4-0.5l0,0c0-0.3-0.2-0.5-0.5-0.5s-0.7,0.1-0.9,0.2
		l-0.1-0.5c0.3-0.1,0.6-0.2,1.1-0.2c0.7,0,1.1,0.3,1.1,1v0.1c0,0.6-0.2,0.8-0.7,1l-0.4,0.1c-0.4,0.1-0.5,0.3-0.5,0.5v0.2h1.6v0.6
		H6.2V176.2z"/>
</g>
<circle class="st2" cx="121.3" cy="157.9" r="3.5"/>
<g class="st3">
	<path class="st1" d="M120.1,159.4l0.1-0.6c0.2,0.1,0.6,0.2,0.9,0.2c0.4,0,0.6-0.1,0.6-0.5l0,0c0-0.4-0.2-0.5-0.6-0.5h-0.4v-0.6h0.3
		c0.4,0,0.6-0.1,0.6-0.4l0,0c0-0.3-0.2-0.4-0.5-0.4s-0.6,0.1-0.8,0.2l-0.2-0.6c0.3-0.1,0.7-0.2,1.1-0.2c0.6,0,1.1,0.2,1.1,0.9v0.1
		c0,0.4-0.2,0.6-0.5,0.7l0,0c0.3,0.1,0.6,0.3,0.6,0.8v0.1c0,0.7-0.5,1-1.3,1C120.8,159.6,120.4,159.5,120.1,159.4z"/>
</g>
<circle class="st2" cx="113.4" cy="144.4" r="3.5"/>
<g class="st3">
	<path class="st1" d="M113.7,145.4h-1.6V145l1.1-2.3h0.8l-1.1,2.2h0.8v-1h0.7v1h0.4v0.6h-0.4v0.7h-0.7
		C113.7,146.2,113.7,145.4,113.7,145.4z"/>
</g>
<circle class="st2" cx="14" cy="154.2" r="3.5"/>
<g class="st3">
	<path class="st1" d="M15.2,154.8L15.2,154.8c0,0.8-0.4,1.1-1.2,1.1c-0.6,0-0.9-0.1-1.2-0.3L13,155c0.3,0.2,0.6,0.3,0.9,0.3
		c0.4,0,0.6-0.1,0.6-0.5l0,0c0-0.4-0.2-0.5-0.6-0.5c-0.2,0-0.5,0-0.7,0l-0.2-0.2l0.1-1.7H15v0.6h-1.3l-0.1,0.7c0.1,0,0.2,0,0.3,0
		C14.8,153.7,15.2,154,15.2,154.8z"/>
</g>
<circle class="st2" cx="31.9" cy="100.4" r="3.5"/>
<g class="st3">
	<path class="st1" d="M33.1,101L33.1,101c0,0.8-0.4,1.1-1.2,1.1c-1,0-1.2-0.5-1.2-1.6v-0.1c0-1.4,0.6-1.7,1.4-1.7
		c0.3,0,0.7,0.1,0.9,0.1l-0.1,0.6c-0.2-0.1-0.4-0.1-0.7-0.1c-0.5,0-0.7,0.1-0.7,0.8c0.2,0,0.4,0,0.6,0C32.7,100,33.1,100.2,33.1,101
		z M32.4,101c0-0.4-0.1-0.5-0.5-0.5c-0.2,0-0.3,0-0.5,0c0,0.7,0.1,1,0.5,1C32.3,101.6,32.4,101.4,32.4,101L32.4,101z"/>
</g>
<circle class="st2" cx="93.4" cy="94.8" r="3.5"/>
<g class="st3">
	<path class="st1" d="M93.9,93.7h-1.6v-0.6h2.4v0.5l-1.3,2.9h-0.8L93.9,93.7z"/>
</g>
<circle class="st2" cx="107.2" cy="68.5" r="3.5"/>
<g class="st3">
	<path class="st1" d="M108.5,69.2L108.5,69.2c0,0.7-0.4,1-1.2,1c-0.9,0-1.3-0.3-1.3-1l0,0c0-0.4,0.2-0.6,0.5-0.8
		c-0.3-0.1-0.4-0.4-0.4-0.7l0,0c0-0.6,0.4-0.9,1.2-0.9c0.7,0,1.1,0.3,1.1,0.9l0,0c0,0.3-0.1,0.6-0.4,0.7
		C108.3,68.6,108.5,68.8,108.5,69.2z M107.8,69.2c0-0.3-0.1-0.5-0.5-0.5l0,0c-0.3,0-0.5,0.1-0.5,0.5l0,0c0,0.3,0.1,0.5,0.5,0.5
		C107.6,69.7,107.8,69.6,107.8,69.2L107.8,69.2z M106.8,67.8c0,0.3,0.1,0.4,0.4,0.4l0,0c0.3,0,0.4-0.2,0.4-0.4l0,0
		c0-0.3-0.1-0.4-0.4-0.4C106.9,67.3,106.8,67.5,106.8,67.8L106.8,67.8z"/>
</g>
<circle class="st2" cx="158.3" cy="88.9" r="3.5"/>
<g class="st3">
	<path class="st1" d="M159.6,88.5v0.7c0,0.9-0.2,1.5-1.3,1.5c-0.4,0-0.8-0.1-1-0.1l0.1-0.6c0.2,0.1,0.6,0.1,0.9,0.1
		c0.4,0,0.6-0.2,0.6-0.7c-0.2,0-0.4,0-0.6,0c-0.8,0-1.1-0.3-1.1-1.1v-0.1c0-0.7,0.4-1.1,1.2-1.1C159.2,87.2,159.6,87.6,159.6,88.5z
		 M158.4,88.8c0.2,0,0.4,0,0.5,0v-0.1c0-0.8-0.1-1-0.5-1s-0.5,0.2-0.5,0.5l0,0C157.8,88.7,158,88.8,158.4,88.8z"/>
</g>
<circle class="st2" cx="154.8" cy="4.5" r="3.5"/>
<g class="st3">
	<path class="st1" d="M152.4,5.6h0.8V3.4l0,0l-0.7,0.2L152.4,3l1-0.3h0.6v2.8h0.7v0.6h-2.2V5.6H152.4z"/>
	<path class="st1" d="M155.4,5.9c-0.3-0.2-0.4-0.6-0.4-1.4V4.4c0-0.7,0.1-1.1,0.3-1.4c0.2-0.2,0.5-0.3,0.9-0.3c0.5,0,0.8,0.1,1,0.3
		c0.2,0.3,0.3,0.6,0.3,1.3v0.1c0,0.8-0.1,1.1-0.3,1.4c-0.2,0.2-0.5,0.3-0.9,0.3C155.9,6.2,155.6,6.1,155.4,5.9z M156.7,5.5
		c0.1-0.2,0.2-0.5,0.2-1V4.4c0-0.5,0-0.8-0.1-1c-0.1-0.1-0.2-0.1-0.4-0.1s-0.4,0-0.4,0.1c-0.1,0.2-0.1,0.5-0.1,1v0.1
		c0,0.5,0,0.8,0.1,1c0.1,0.1,0.2,0.2,0.4,0.2C156.5,5.6,156.6,5.6,156.7,5.5z"/>
</g>
<circle class="st2" cx="202.7" cy="168.9" r="3.5"/>
<g class="st3">
	<path class="st1" d="M200.3,170h0.8v-2.2l0,0l-0.7,0.2l-0.1-0.6l1-0.3h0.6v2.8h0.7v0.6h-2.2V170H200.3z"/>
	<path class="st1" d="M203.2,170h0.8v-2.2l0,0l-0.7,0.2l-0.1-0.6l1-0.3h0.6v2.8h0.7v0.6h-2.2V170H203.2z"/>
</g>
<circle class="st2" cx="158.2" cy="174.2" r="3.5"/>
<g class="st3">
	<path class="st1" d="M155.8,175.3h0.8v-2.2l0,0l-0.7,0.2l-0.1-0.6l1-0.3h0.6v2.8h0.7v0.6h-2.2v-0.5H155.8z"/>
	<path class="st1" d="M158.5,175.3c0-0.7,0.2-1,0.8-1.2l0.4-0.1c0.3-0.1,0.4-0.2,0.4-0.5l0,0c0-0.3-0.2-0.5-0.5-0.5
		s-0.7,0.1-0.9,0.2l-0.1-0.5c0.3-0.1,0.6-0.2,1.1-0.2c0.7,0,1.1,0.3,1.1,1v0.1c0,0.6-0.2,0.8-0.7,1l-0.4,0.1
		c-0.4,0.1-0.5,0.3-0.5,0.5v0.2h1.6v0.6h-2.2v-0.7H158.5z"/>
</g>
<circle class="st2" cx="136.2" cy="176" r="3.5"/>
<g class="st3">
	<path class="st1" d="M133.9,177.1h0.8v-2.2l0,0l-0.7,0.2l-0.1-0.6l1-0.3h0.6v2.8h0.7v0.6H134v-0.5H133.9z"/>
	<path class="st1" d="M136.5,177.5l0.1-0.6c0.2,0.1,0.6,0.2,0.9,0.2c0.4,0,0.6-0.1,0.6-0.5l0,0c0-0.4-0.2-0.5-0.6-0.5h-0.4v-0.6h0.3
		c0.4,0,0.6-0.1,0.6-0.4l0,0c0-0.3-0.2-0.4-0.5-0.4s-0.6,0.1-0.8,0.2l-0.2-0.6c0.3-0.1,0.7-0.2,1.1-0.2c0.6,0,1.1,0.2,1.1,0.9v0.1
		c0,0.4-0.2,0.6-0.5,0.7l0,0c0.3,0.1,0.6,0.3,0.6,0.8v0.1c0,0.7-0.5,1-1.3,1C137.2,177.7,136.8,177.6,136.5,177.5z"/>
</g>
<circle class="st2" cx="145.8" cy="198" r="3.5"/>
<g class="st3">
	<path class="st1" d="M143.4,199.1h0.8V197l0,0l-0.7,0.2l-0.1-0.6l1-0.3h0.6v2.8h0.7v0.6h-2.2v-0.6H143.4z"/>
	<path class="st1" d="M147.6,199H146v-0.4l1.1-2.3h0.8l-1.1,2.2h0.8v-1h0.7v1h0.4v0.6h-0.4v0.7h-0.7V199z"/>
</g>
<rect x="65.7" y="194.5" class="st4" width="0.7" height="8.2"/>
<path class="st5" d="M70.3,200.9h-8.6l0,0v7.9h8.7L70.3,200.9L70.3,200.9z"/>
<g class="st3">
	<path class="st6" d="M63.3,203.3c0-0.6,0.3-0.9,0.9-0.9h2.1v0.8h-1.8c-0.1,0-0.2,0.1-0.2,0.2v0.9h1.8v0.8h-1.8v2h-1
		C63.3,207.1,63.3,203.3,63.3,203.3z"/>
	<path class="st6" d="M67.2,206.5v-4.1h1v3.8c0,0.1,0,0.1,0.1,0.1h1.5v0.8H68C67.4,207.2,67.2,207,67.2,206.5z"/>
</g>
<rect x="93.6" y="138.5" transform="matrix(0.9753 -0.2207 0.2207 0.9753 -29.6179 24.3004)" class="st6" width="0.7" height="12.4"/>
<path class="st5" d="M98.9,146.3h-8.6l0,0v7.9H99L98.9,146.3L98.9,146.3z"/>
<g class="st3">
	<path class="st6" d="M92.2,147.5h1v1h-1V147.5z M92.2,148.9h1v3.6h-1V148.9z"/>
	<path class="st6" d="M94.3,151.8h1.1v-3.1l0,0l-1,0.3l-0.2-0.8l1.4-0.4h0.9v4h1v0.8h-3.1v-0.8H94.3z"/>
</g>
<rect x="164.9" y="37" transform="matrix(0.9726 -0.2326 0.2326 0.9726 -4.0376 40.472)" class="st6" width="9.4" height="0.7"/>
<path class="st5" d="M180.9,32.4h-8.6l0,0v7.9h8.7C180.9,40.3,180.9,32.4,180.9,32.4z"/>
<g class="st3">
	<path class="st6" d="M174.3,33.7h1v1h-1V33.7z M174.3,35.1h1v3.6h-1V35.1z"/>
	<path class="st6" d="M176.1,38.5l0.1-0.8c0.3,0.2,0.8,0.3,1.3,0.3c0.6,0,0.9-0.2,0.9-0.7v-0.1c0-0.5-0.3-0.7-0.8-0.7H177v-0.8h0.4
		c0.6,0,0.8-0.1,0.8-0.6V35c0-0.4-0.3-0.5-0.7-0.5c-0.5,0-0.9,0.1-1.2,0.3l-0.2-0.8c0.4-0.2,0.9-0.3,1.6-0.3c0.9,0,1.6,0.3,1.6,1.2
		V35c0,0.5-0.2,0.9-0.7,1l0,0c0.5,0.1,0.8,0.5,0.8,1.1v0.1c0,1-0.6,1.4-1.8,1.4C177,38.8,176.5,38.7,176.1,38.5z"/>
</g>
<rect x="85.6" y="99.5" class="st6" width="0.7" height="11.2"/>
<path class="st5" d="M90.2,106.9h-8.6l0,0v7.9h8.7L90.2,106.9L90.2,106.9z"/>
<g class="st3">
	<path class="st6" d="M83.5,108.1h1v1h-1V108.1z M83.6,109.5h1v3.6h-1V109.5z"/>
	<path class="st6" d="M85.5,112.3c0-1,0.3-1.4,1.1-1.7l0.6-0.2c0.4-0.1,0.6-0.2,0.6-0.7l0,0c0-0.4-0.3-0.6-0.8-0.6s-0.9,0.1-1.2,0.3
		l-0.2-0.8c0.4-0.2,0.9-0.3,1.6-0.3c0.9,0,1.6,0.4,1.6,1.4v0.1c0,0.8-0.3,1.2-1,1.4l-0.6,0.2c-0.5,0.1-0.7,0.4-0.7,0.8v0.3h2.2v0.8
		h-3.2V112.3z"/>
</g>
<rect x="181.1" y="103.9" transform="matrix(0.9753 -0.2209 0.2209 0.9753 -18.4578 43.4411)" class="st6" width="7.8" height="0.7"/>
<path class="st6" d="M194.6,99.5h-6l0,0v6.6h6.1v-6.6H194.6z"/>
<g class="st3">
	<path class="st7" d="M190.4,104.6l0.2-0.7c0.3,0.1,0.7,0.2,1,0.2c0.5,0,0.7-0.1,0.7-0.5l0,0c0-0.3-0.1-0.4-0.5-0.5l-0.4-0.1
		c-0.7-0.2-1-0.4-1-1.1v-0.1c0-0.9,0.5-1.1,1.4-1.1c0.5,0,0.9,0.1,1.2,0.2l-0.2,0.7c-0.3-0.1-0.7-0.2-1-0.2c-0.4,0-0.6,0-0.6,0.4
		l0,0c0,0.3,0.1,0.4,0.5,0.5l0.5,0.1c0.7,0.1,0.9,0.4,0.9,1.1v0.1c0,0.9-0.5,1.2-1.5,1.2C191.2,104.9,190.6,104.7,190.4,104.6z"/>
</g>
<rect x="60.8" y="203.5" class="st8" width="0.9" height="5.3"/>
<rect x="60.8" y="204.4" width="0.9" height="0.9"/>
<rect x="60.8" y="206.2" width="0.9" height="0.9"/>
<rect x="60.8" y="208" width="0.9" height="0.9"/>
<rect x="59.9" y="203.5" class="st8" width="0.9" height="5.3"/>
<rect x="59.9" y="203.5" width="0.9" height="0.9"/>
<rect x="59.9" y="205.3" width="0.9" height="0.9"/>
<rect x="59.9" y="207.1" width="0.9" height="0.9"/>
<rect x="60.8" y="200.9" class="st8" width="0.9" height="2.6"/>
<rect x="60.8" y="200.9" width="0.9" height="0.9"/>
<rect x="60.8" y="202.7" width="0.9" height="0.9"/>
<rect x="59.9" y="200.9" class="st8" width="0.9" height="2.6"/>
<rect x="59.9" y="201.8" width="0.9" height="0.9"/>
</svg>
