<?xml version="1.0" encoding="utf-8"?>
<!-- Generator: Adobe Illustrator 28.0.0, SVG Export Plug-In . SVG Version: 6.00 Build 0)  -->
<svg version="1.1" id="Capa_1" xmlns="http://www.w3.org/2000/svg" xmlns:xlink="http://www.w3.org/1999/xlink" x="0px" y="0px"
	 viewBox="0 0 210 143" style="enable-background:new 0 0 210 143;" xml:space="preserve">
<style type="text/css">
	.st0{fill:#585E65;}
	.st1{fill:#9FA0A4;}
	.st2{fill:#08161F;}
	.st3{enable-background:new    ;}
	.st4{fill:none;}
	.st5{fill:#E6E6E6;}
	.st6{fill:#C80502;}
	.st7{fill:#EDEDED;}
	.st8{fill:#323232;}
	.st9{fill:#FAFAFA;}
</style>
<path class="st0" d="M130.3,66.8c-2.9,0-6.8-2.4-10.1-4.3c-1.4-0.8-2.6-1.5-3.5-1.9l0.6-1.3c0.9,0.4,2.2,1.2,3.6,2
	c3.3,2,7.9,4.7,10.2,4c2.1-0.7,4.8-4.6,6.1-8.7c1-3.4,0.8-6.2-0.5-7.8c-1.2-1.4-5.9-3.4-11.8-4.3l0.2-1.4c4,0.6,10.6,2.3,12.7,4.8
	c1.6,2,1.9,5.2,0.8,9.1c-1.6,5.4-4.8,9-7,9.7C131.1,66.7,130.7,66.8,130.3,66.8L130.3,66.8z"/>
<path class="st1" d="M155.2,134c-2.1,0-4.1-0.6-5.5-1.3c-2.7-1.3-18.3-11-29.8-18c-4.7-2.9-8.4-5.2-9.7-6c-4.1-2.4-6.5-1-10.1,1.2
	c-1.2,0.7-2.5,1.5-3.9,2.2c-5.2,2.4-9.8-1.2-11.3-2.4c-0.1-0.1-0.2-0.1-0.2-0.2c-0.1,0-0.7-0.5-1.5-1.1C64,94.5,54,87.1,52.7,85.7
	c-1.5-1.6-3-3.2-3.2-7.8c-0.1-3.1-0.1-5.1-0.2-6.6c0-2.7,0-3.6-0.6-6.2c-1.4-6.9-8.3-9.3-16.6-11.5c-1.2-0.3-2.4-0.6-3.5-0.9
	c-4.9-1.3-9.4-2.5-12.4-4.1C9,44.7,6,38.7,7.1,30.8c0.9-6.6,4.5-13.3,6.8-17.7C16.6,8,20.6,6,23.5,5.3c3.1-0.8,5.6-0.5,5.7-0.5
	c0.3,0,29.7,4.2,35.6,4.9c6.4,0.8,7.8,2.4,9.1,4.6c0.9,1.6,1.1,4.4,1.2,7.3c0.1,2.4,0.2,4.8,0.7,6.4c1.3,3.8,5.9,4.9,6.9,5.1
	c0.2,0,38,8.4,42.7,9.7c3.6,1,6.5,3.1,7.9,5.8c1.3,2.4,1.4,5.2,0.4,8.2c-0.9,2.8-2.9,4.7-5.9,5.5c-2.4,0.7-5.2,0.6-7.8-0.2
	c-2.6-0.8-7.1-4.1-10.8-6.7c-1.5-1.1-2.8-2-3.7-2.6c-0.3-0.2-0.6-0.4-0.9-0.6c-2.3-1.5-3.5-2.3-8.5-1.8c-7.5,0.8-9.2-0.1-15.1-4
	c-1.2-0.8-2.6-1.7-4.2-2.8c-10.9-7.2-29.1-19.3-37-24.9c-4.9-3.5-9.1-2.6-10.7-2.1c-4.8,1.6-7,6.2-5.6,11.6
	c1.8,6.8,10.3,10.3,20.1,14.3l0.4,0.2C49.7,45,64.9,50.9,81.1,57c8.9,3.4,18,6.9,25.4,9.7c6.1,2.4,10.4,4,13.1,5.1
	c10.9,4.4,15.8,6.9,24.1,11.5c15.6,8.7,30.9,13.8,41,17.1c6.7,2.2,11.2,3.7,12.9,5.2c3.5,3.1,4.2,6.8,2.1,10.6
	c-1.6,2.9-4.4,4.4-8.6,4.6c-3.6,0.1-8-0.6-13-1.6c-0.9-0.2-1.9-0.3-2.8-0.5c-3.1-0.5-5.4,0-6.8,1.7c-0.9,1-1.3,1.9-1.9,3.1
	c-0.8,1.5-1.7,3.5-3.9,6.5C160.5,133.1,157.8,134,155.2,134L155.2,134z M106.3,105.4c1.5,0,3.2,0.4,5,1.6c1.3,0.8,5.1,3.1,9.8,6
	c10.7,6.6,27,16.7,29.6,17.9c0.7,0.3,6.7,3.1,10.2-1.7c2.1-2.9,3-4.8,3.7-6.2c0.6-1.2,1.1-2.3,2.1-3.5c1.9-2.3,4.9-3.1,8.7-2.4
	c1,0.2,1.9,0.3,2.8,0.5c4.9,0.9,9.2,1.7,12.6,1.5c3.5-0.1,5.6-1.2,6.9-3.5c1.6-3,1.1-5.6-1.7-8.1c-1.4-1.2-6.1-2.8-12.2-4.8
	c-10.2-3.4-25.6-8.5-41.4-17.3c-8.2-4.6-13-7-23.8-11.4c-2.7-1.1-6.9-2.8-13-5.1c-7.4-2.8-16.5-6.3-25.4-9.7
	C64,53,48.7,47.2,43,44.8l-0.4-0.2c-10.3-4.3-19.3-7.9-21.3-15.7c-1.7-6.4,1.1-12.1,6.9-14.1c1.9-0.6,6.8-1.7,12.6,2.4
	c7.8,5.6,26,17.6,36.9,24.9c1.6,1.1,3,2,4.2,2.8c5.6,3.7,6.9,4.4,13.8,3.7c5.8-0.6,7.4,0.5,9.9,2.1c0.3,0.2,0.6,0.4,0.9,0.6
	c0.9,0.6,2.2,1.5,3.8,2.6c3.3,2.4,7.8,5.6,10.2,6.4c2.2,0.7,4.6,0.8,6.6,0.2c1.6-0.5,3.6-1.5,4.5-4.2c0.8-2.5,0.7-4.7-0.3-6.6
	c-1.1-2.2-3.6-3.9-6.6-4.7c-4.6-1.3-42.2-9.6-42.5-9.7c-1.6-0.3-6.8-1.6-8.4-6.4c-0.6-1.9-0.7-4.4-0.8-7c-0.1-2.5-0.2-5.2-0.9-6.3
	c-0.9-1.5-1.7-2.8-7.6-3.6c-6-0.8-35.3-4.9-35.6-4.9c-0.4-0.1-8.7-1.2-13.2,7.2c-2.3,4.3-5.8,10.8-6.6,17c-1,7.1,1.7,12.2,8,15.6
	c2.8,1.5,7.2,2.7,12,3.9c1.2,0.3,2.4,0.6,3.5,0.9c8.6,2.3,16.5,5.1,18.1,13.1c0.5,2.8,0.6,3.8,0.6,6.5c0,1.5,0,3.5,0.2,6.6
	c0.2,3.8,1.3,5,2.7,6.5c0.8,0.9,6.8,5.5,30.2,22.5c1.3,1,1.5,1.1,1.6,1.1c0.1,0.1,0.1,0.1,0.2,0.2c5.1,4.1,8,2.7,9.1,2.2
	c1.4-0.7,2.6-1.4,3.8-2.1C101.3,106.7,103.6,105.4,106.3,105.4L106.3,105.4z"/>
<circle class="st2" cx="206.4" cy="112" r="3.6"/>
<g class="st3">
	<path class="st1" d="M205.5,113.1h0.8v-2.2l0,0l-0.7,0.2l-0.1-0.6l1-0.3h0.6v2.8h0.7v0.6h-2.2v-0.5H205.5z"/>
</g>
<circle class="st2" cx="172.8" cy="124.3" r="3.6"/>
<g class="st3">
	<path class="st1" d="M171.7,125.4c0-0.7,0.2-1,0.8-1.2l0.4-0.1c0.3-0.1,0.4-0.2,0.4-0.5l0,0c0-0.3-0.2-0.5-0.5-0.5
		s-0.7,0.1-0.9,0.2l-0.1-0.6c0.3-0.1,0.6-0.2,1.1-0.2c0.7,0,1.2,0.3,1.2,1v0.1c0,0.6-0.2,0.8-0.7,1l-0.4,0.1
		c-0.4,0.1-0.5,0.3-0.5,0.6v0.2h1.6v0.6h-2.2v-0.7H171.7z"/>
</g>
<circle class="st2" cx="157.1" cy="139.6" r="3.6"/>
<g class="st3">
	<path class="st1" d="M155.9,141.2l0.1-0.6c0.2,0.1,0.6,0.2,0.9,0.2c0.4,0,0.6-0.1,0.6-0.5l0,0c0-0.4-0.2-0.5-0.6-0.5h-0.4v-0.6h0.3
		c0.4,0,0.6-0.1,0.6-0.4l0,0c0-0.3-0.2-0.4-0.5-0.4s-0.6,0.1-0.8,0.2l-0.2-0.6c0.3-0.1,0.7-0.2,1.1-0.2c0.6,0,1.1,0.2,1.1,0.9v0.1
		c0,0.4-0.2,0.6-0.5,0.7l0,0c0.3,0.1,0.6,0.3,0.6,0.8v0.1c0,0.7-0.5,1-1.3,1C156.6,141.4,156.2,141.3,155.9,141.2z"/>
</g>
<circle class="st2" cx="106.1" cy="113" r="3.6"/>
<g class="st3">
	<path class="st1" d="M106.4,114.1h-1.6v-0.4l1.1-2.3h0.8l-1.1,2.2h0.8v-1h0.7v1h0.4v0.6h-0.4v0.7h-0.7
		C106.4,114.9,106.4,114.1,106.4,114.1z"/>
</g>
<circle class="st2" cx="45.8" cy="86" r="3.6"/>
<g class="st3">
	<path class="st1" d="M47.1,86.6L47.1,86.6c0,0.8-0.4,1.2-1.2,1.2c-1,0-1.2-0.5-1.2-1.6V86c0-1.4,0.6-1.7,1.4-1.7
		c0.3,0,0.7,0.1,0.9,0.1L46.9,85c-0.2-0.1-0.4-0.1-0.7-0.1c-0.5,0-0.7,0.1-0.7,0.8c0.2,0,0.4,0,0.6,0C46.6,85.5,47.1,85.8,47.1,86.6
		z M46.4,86.6c0-0.4-0.1-0.5-0.5-0.5c-0.2,0-0.3,0-0.5,0c0,0.7,0.1,1,0.5,1C46.2,87.2,46.4,87,46.4,86.6L46.4,86.6z"/>
</g>
<circle class="st2" cx="42.2" cy="64.4" r="3.6"/>
<g class="st3">
	<path class="st1" d="M42.7,63.3h-1.6v-0.6h2.4v0.5l-1.3,2.9h-0.8L42.7,63.3z"/>
</g>
<circle class="st2" cx="3.6" cy="44.1" r="3.6"/>
<g class="st3">
	<path class="st1" d="M4.9,44.8L4.9,44.8c0,0.7-0.4,1-1.2,1c-0.9,0-1.3-0.3-1.3-1l0,0c0-0.4,0.2-0.7,0.5-0.8
		c-0.3-0.1-0.4-0.4-0.4-0.7l0,0c0-0.6,0.4-0.9,1.2-0.9c0.7,0,1.1,0.3,1.1,0.9l0,0c0,0.3-0.1,0.6-0.4,0.8C4.7,44.1,4.9,44.4,4.9,44.8
		z M4.1,44.7c0-0.3-0.1-0.5-0.5-0.5l0,0c-0.3,0-0.5,0.1-0.5,0.5l0,0c0,0.3,0.1,0.5,0.5,0.5C4,45.3,4.1,45.1,4.1,44.7L4.1,44.7z
		 M3.2,43.3c0,0.3,0.1,0.4,0.4,0.4l0,0c0.3,0,0.4-0.2,0.4-0.4l0,0c0-0.3-0.1-0.4-0.4-0.4C3.3,42.8,3.2,43,3.2,43.3L3.2,43.3z"/>
</g>
<circle class="st2" cx="14.6" cy="3.4" r="3.6"/>
<g class="st3">
	<path class="st1" d="M15.9,3v0.7c0,0.9-0.2,1.5-1.3,1.5c-0.4,0-0.8-0.1-1-0.1l0.1-0.6c0.2,0.1,0.6,0.1,0.9,0.1
		c0.4,0,0.6-0.2,0.6-0.7c-0.2,0-0.4,0-0.6,0c-0.8,0-1.2-0.3-1.2-1.1v0c0-0.7,0.4-1.1,1.2-1.1C15.5,1.7,15.9,2.1,15.9,3z M14.7,3.4
		c0.2,0,0.4,0,0.5,0V3.2c0-0.8-0.1-1-0.5-1s-0.5,0.2-0.5,0.5l0,0C14.1,3.2,14.3,3.4,14.7,3.4z"/>
</g>
<circle class="st2" cx="77.3" cy="9.3" r="3.6"/>
<g class="st3">
	<path class="st1" d="M74.9,10.5h0.8V8.3l0,0L75,8.5l-0.1-0.6l1-0.3h0.6v2.8h0.7V11H75v-0.5H74.9z"/>
	<path class="st1" d="M77.9,10.8c-0.3-0.2-0.4-0.6-0.4-1.4V9.2c0-0.7,0.1-1.1,0.3-1.4c0.2-0.2,0.5-0.3,0.9-0.3c0.5,0,0.8,0.1,1,0.3
		C79.9,8.1,80,8.4,80,9.1v0.1c0,0.8-0.1,1.1-0.3,1.4c-0.2,0.2-0.5,0.3-0.9,0.3C78.4,11.1,78.1,11,77.9,10.8z M79.2,10.3
		c0.1-0.2,0.2-0.5,0.2-1l0,0c0-0.5,0-0.8-0.1-1c-0.1-0.1-0.2-0.1-0.4-0.1c-0.2,0-0.4,0-0.4,0.1c-0.1,0.2-0.1,0.5-0.1,1v0.1
		c0,0.5,0,0.8,0.1,1c0.1,0.1,0.2,0.2,0.4,0.2C79,10.5,79.1,10.4,79.2,10.3z"/>
</g>
<circle class="st2" cx="81.2" cy="25.8" r="3.6"/>
<g class="st3">
	<path class="st1" d="M78.8,26.9h0.8v-2.2l0,0L78.9,25l-0.1-0.6l1-0.3h0.6v2.8H81v0.6h-2.2V26.9z"/>
	<path class="st1" d="M81.7,26.9h0.8v-2.2l0,0L81.7,25l-0.1-0.6l1-0.3h0.6v2.8h0.7v0.6h-2.2V26.9z"/>
</g>
<circle class="st2" cx="144.2" cy="53.6" r="3.6"/>
<g class="st3">
	<path class="st1" d="M141.8,54.7h0.8v-2.2l0,0l-0.7,0.2l-0.1-0.6l1-0.3h0.6v2.8h0.7v0.6h-2.2v-0.5H141.8z"/>
	<path class="st1" d="M144.6,54.7c0-0.7,0.2-1,0.8-1.2l0.4-0.1c0.3-0.1,0.4-0.2,0.4-0.5l0,0c0-0.3-0.2-0.5-0.5-0.5s-0.7,0.1-0.9,0.2
		l-0.1-0.6c0.3-0.1,0.6-0.2,1.1-0.2c0.7,0,1.2,0.3,1.2,1v0.1c0,0.6-0.2,0.8-0.7,1l-0.4,0.1c-0.4,0.1-0.5,0.3-0.5,0.6v0.2h1.6v0.6
		h-2.2v-0.7H144.6z"/>
</g>
<circle class="st2" cx="103.8" cy="44.5" r="3.6"/>
<g class="st3">
	<path class="st1" d="M101.4,45.6h0.8v-2.2l0,0l-0.7,0.2l-0.1-0.6l1-0.3h0.6v2.8h0.7v0.6h-2.2v-0.5H101.4z"/>
	<path class="st1" d="M104,46l0.1-0.6c0.2,0.1,0.6,0.2,0.9,0.2c0.4,0,0.6-0.1,0.6-0.5l0,0c0-0.4-0.2-0.5-0.6-0.5h-0.4V44h0.3
		c0.4,0,0.6-0.1,0.6-0.4l0,0c0-0.3-0.2-0.4-0.5-0.4s-0.6,0.1-0.8,0.2l-0.2-0.6c0.3-0.1,0.7-0.2,1.1-0.2c0.6,0,1.1,0.2,1.1,0.9v0.1
		c0,0.4-0.2,0.6-0.5,0.7l0,0c0.3,0.1,0.6,0.3,0.6,0.8v0.1c0,0.7-0.5,1-1.3,1C104.7,46.2,104.3,46.2,104,46z"/>
</g>
<circle class="st2" cx="90.8" cy="42.9" r="3.6"/>
<g class="st3">
	<path class="st1" d="M88.4,44h0.8v-2.2l0,0L88.4,42l-0.1-0.6l1-0.3h0.6V44h0.7v0.6h-2.2V44z"/>
	<path class="st1" d="M92.6,43.9H91v-0.4l1.1-2.3h0.8l-1.1,2.2h0.8v-1h0.7v1h0.4V44h-0.4v0.7h-0.7C92.6,44.7,92.6,43.9,92.6,43.9z"
		/>
</g>
<circle class="st2" cx="29.7" cy="22.7" r="3.6"/>
<g class="st3">
	<path class="st1" d="M27.3,23.8h0.8v-2.2l0,0l-0.7,0.2l-0.1-0.6l1-0.3h0.6v2.8h0.7v0.6h-2.2L27.3,23.8L27.3,23.8z"/>
	<path class="st1" d="M32.4,23.2L32.4,23.2c0,0.8-0.4,1.1-1.2,1.1c-0.6,0-0.9-0.1-1.2-0.3l0.2-0.6c0.3,0.2,0.6,0.3,0.9,0.3
		c0.4,0,0.6-0.1,0.6-0.5l0,0c0-0.4-0.2-0.5-0.6-0.5c-0.2,0-0.5,0-0.7,0l-0.2-0.2l0.1-1.7h1.9v0.6h-1.3l-0.1,0.7c0.1,0,0.2,0,0.3,0
		C31.9,22.2,32.4,22.5,32.4,23.2z"/>
</g>
<circle class="st2" cx="89.4" cy="118.3" r="3.6"/>
<g class="st3">
	<path class="st1" d="M90.6,118.9L90.6,118.9c0,0.8-0.4,1.1-1.2,1.1c-0.6,0-0.9-0.1-1.2-0.3l0.2-0.6c0.3,0.2,0.6,0.3,0.9,0.3
		c0.4,0,0.6-0.1,0.6-0.5l0,0c0-0.4-0.2-0.5-0.6-0.5c-0.2,0-0.5,0-0.7,0l-0.2-0.2l0.1-1.7h1.9v0.6h-1.3l-0.1,0.7c0.1,0,0.2,0,0.3,0
		C90.1,117.8,90.6,118.1,90.6,118.9z"/>
</g>
<line class="st4" x1="107.2" y1="64.9" x2="104.3" y2="72.6"/>
<rect x="101.6" y="68.4" transform="matrix(0.3491 -0.9371 0.9371 0.3491 4.4301 143.8692)" class="st5" width="8.3" height="0.7"/>
<path class="st6" d="M108.7,72.4H100l0,0v7.9h8.7C108.7,80.4,108.7,72.4,108.7,72.4z"/>
<g class="st3">
	<path class="st7" d="M101.6,74.8c0-0.6,0.3-0.9,0.9-0.9h2.1v0.8h-1.8c-0.1,0-0.2,0.1-0.2,0.2v0.9h1.9v0.8h-1.9v2h-1V74.8z"/>
	<path class="st7" d="M105.5,78v-4.1h1v3.9c0,0.1,0,0.1,0.1,0.1h1.5v0.8h-1.8C105.7,78.7,105.5,78.5,105.5,78z"/>
</g>
<rect x="129.8" y="126.5" transform="matrix(0.5423 -0.8402 0.8402 0.5423 -44.345 172.3953)" class="st7" width="12.5" height="0.7"/>
<path class="st6" d="M137.2,127.8h-8.7l0,0v7.9h8.7C137.2,135.8,137.2,127.8,137.2,127.8z"/>
<g class="st3">
	<path class="st7" d="M130.5,129.1h1v1h-1V129.1z M130.5,130.6h1v3.6h-1V130.6z"/>
	<path class="st7" d="M132.7,133.4h1.1v-3.1l0,0l-1,0.3l-0.2-0.8l1.4-0.4h0.9v4h1v0.8h-3.1L132.7,133.4L132.7,133.4z"/>
</g>
<rect x="102.7" y="52.2" transform="matrix(0.5414 -0.8408 0.8408 0.5414 4.5748 113.4399)" class="st7" width="7.2" height="0.7"/>
<path class="st6" d="M106.9,54.5h-8.7l0,0v8h8.7V54.5z"/>
<g class="st3">
	<path class="st7" d="M100.2,55.8h1v1h-1V55.8z M100.2,57.2h1v3.6h-1V57.2z"/>
	<path class="st7" d="M102.1,60.6l0.1-0.8c0.3,0.2,0.8,0.3,1.3,0.3c0.6,0,0.9-0.2,0.9-0.7v-0.1c0-0.5-0.3-0.7-0.8-0.7H103v-0.8h0.4
		c0.6,0,0.8-0.1,0.8-0.6v-0.1c0-0.4-0.3-0.6-0.7-0.6c-0.5,0-0.9,0.1-1.2,0.3l-0.2-0.8c0.4-0.2,0.9-0.3,1.6-0.3
		c0.9,0,1.6,0.3,1.6,1.2V57c0,0.5-0.2,0.9-0.7,1l0,0c0.5,0.1,0.8,0.5,0.8,1.1v0.1c0,1-0.6,1.4-1.8,1.4
		C103,60.9,102.5,60.8,102.1,60.6z"/>
</g>
<rect x="16" y="51.8" transform="matrix(0.3491 -0.9371 0.9371 0.3491 -34.8152 54.1993)" class="st7" width="11.2" height="0.7"/>
<path class="st6" d="M25.6,54h-8.7l0,0v8h8.7C25.6,62,25.6,54,25.6,54z"/>
<g class="st3">
	<path class="st7" d="M18.8,55.3h1v1h-1V55.3z M18.9,56.7h1v3.6h-1V56.7z"/>
	<path class="st7" d="M20.9,59.5c0-1,0.3-1.5,1.1-1.7l0.6-0.2c0.4-0.1,0.6-0.2,0.6-0.7l0,0c0-0.4-0.3-0.6-0.8-0.6s-1,0.1-1.2,0.3
		L21,55.9c0.4-0.2,0.9-0.3,1.6-0.3c0.9,0,1.6,0.4,1.6,1.4v0c0,0.8-0.3,1.2-1,1.4l-0.6,0.2c-0.5,0.1-0.7,0.4-0.7,0.8v0.3h2.2v0.8
		h-3.2V59.5z"/>
</g>
<rect x="144.2" y="86.1" transform="matrix(0.4631 -0.8863 0.8863 0.4631 2.9027 177.7187)" class="st7" width="7.8" height="0.7"/>
<path class="st7" d="M153.3,76.9h-6.1l0,0v6.6h6.1V76.9z"/>
<g class="st3">
	<path class="st8" d="M149.1,82l0.2-0.7c0.3,0.1,0.7,0.2,1,0.2c0.5,0,0.7-0.1,0.7-0.5l0,0c0-0.3-0.1-0.4-0.5-0.5l-0.4-0.1
		c-0.7-0.2-1-0.4-1-1.1v-0.1c0-0.9,0.5-1.1,1.4-1.1c0.5,0,0.9,0.1,1.2,0.2l-0.2,0.7c-0.3-0.1-0.7-0.2-1-0.2c-0.4,0-0.6,0.1-0.6,0.4
		l0,0c0,0.3,0.1,0.4,0.5,0.5l0.5,0.1c0.7,0.1,1,0.4,1,1.1V81c0,0.9-0.5,1.2-1.5,1.2C149.9,82.3,149.3,82.1,149.1,82z"/>
</g>
<rect x="99.1" y="75" class="st9" width="0.9" height="5.3"/>
<rect x="99.1" y="75.9" width="0.9" height="0.9"/>
<rect x="99.1" y="77.7" width="0.9" height="0.9"/>
<rect x="99.1" y="79.5" width="0.9" height="0.9"/>
<rect x="98.2" y="75" class="st9" width="0.9" height="5.3"/>
<rect x="98.2" y="75" width="0.9" height="0.9"/>
<rect x="98.2" y="76.8" width="0.9" height="0.9"/>
<rect x="98.2" y="78.6" width="0.9" height="0.9"/>
<rect x="99.1" y="72.4" class="st9" width="0.9" height="2.7"/>
<rect x="99.1" y="72.4" width="0.9" height="0.9"/>
<rect x="99.1" y="74.2" width="0.9" height="0.9"/>
<rect x="98.2" y="72.4" class="st9" width="0.9" height="2.7"/>
<rect x="98.2" y="73.3" width="0.9" height="0.9"/>
</svg>
