<?xml version="1.0" encoding="utf-8"?>
<!-- Generator: Adobe Illustrator 28.0.0, SVG Export Plug-In . SVG Version: 6.00 Build 0)  -->
<svg version="1.1" id="Capa_1" xmlns="http://www.w3.org/2000/svg" xmlns:xlink="http://www.w3.org/1999/xlink" x="0px" y="0px"
	 viewBox="0 0 210 104" style="enable-background:new 0 0 210 104;" xml:space="preserve">
<style type="text/css">
	.st0{fill:#585E65;}
	.st1{fill:#9FA0A4;}
	.st2{fill:#08161F;}
	.st3{enable-background:new    ;}
	.st4{fill:#E6E6E6;}
	.st5{fill:#C80502;}
	.st6{fill:#EDEDED;}
	.st7{fill:#323232;}
	.st8{fill:#FAFAFA;}
</style>
<path class="st0" d="M170,40.1c-0.2-0.3-5.8-7.2-6.7-8.5c-0.1-0.1-0.2-0.3-0.3-0.4c-0.9-1.2-1.6-2.2-1.4-4.6c0.3-2.8,3-4.9,4.6-5.5
	c0.1,0,0.3-0.1,0.4-0.2c1.6-0.6,4.6-1.9,8.4-1.5c4.3,0.5,8.2,3,10.2,5.3c1.6,1.8,2.8,4.1,3.9,6.1c0.4,0.7,0.7,1.4,1.1,1.9l-1.4,0.8
	c-0.4-0.6-0.7-1.3-1.1-2c-1.1-1.9-2.2-4.1-3.7-5.8c-1.7-2-5.2-4.3-9.1-4.7c-3.4-0.4-6.2,0.8-7.6,1.4c-0.2,0.1-0.3,0.1-0.5,0.2
	c-1.4,0.5-3.4,2.2-3.6,4.2c-0.2,1.8,0.3,2.4,1.1,3.5c0.1,0.1,0.2,0.3,0.3,0.4c0.9,1.3,6.6,8.4,6.6,8.5L170,40.1L170,40.1z"/>
<path class="st1" d="M23.7,90.7c-1.4,0-2.7-0.2-3.7-1c-1.3-1.1-1.7-2.2-2.1-3.5c0-0.1-0.1-0.3-0.2-0.4L11.1,68
	c-0.1-0.3-0.6-1.5-0.6-3c0-1.8,0.6-3.1,0.9-3.6c0.3-0.5,9.7-16.9,10.1-17.6l0,0c0.1-0.2,1-1.5,2.5-1.9s2.9-0.1,3.9,0.7
	c1.1,0.9,1.4,1.6,1.7,3C30,46.8,33,58,33,58s0.8,2.7,3,4.3c2.3,1.7,3.7,1.7,6.5,1.7c2.9,0,66.4,0,67.2,0c1.6,0,3.8-0.4,4.7-3.2
	c1.1-3.3-1.4-5.3-3.1-6l-12.5-5.1c-0.1,0-4.2-1.7-9.1-1.4c-2.5,0.2-7.6,1.2-12.9,2.3c-1.6,0.3-3.2,0.7-4.8,1c-2.3,0.5-4,0.8-5.5,1.2
	c-3.3,0.7-4.8,1-6.2,1c-2.8-0.1-5.8-0.8-8.8-5.5c-1.8-2.7-3.3-5.1-4.4-6.8c-0.8-1.3-1.5-2.2-1.8-2.8l0,0c-1-1.5-2.9-4.5-0.5-7.7
	c2.3-2.9,4.5-2.6,7.7-2.1c0.2,0,0.5,0.1,0.7,0.1c1.3,0.2,9.4,1.3,40.8,5.7l1.8,0.2c0,0,0,0,0.1,0c0.9,0.2,5.4,0.8,9.6-1.5
	c2.9-1.6,4.1-3,6.2-5.4c0.7-0.8,1.5-1.7,2.4-2.7c1.2-1.3,2.8-3,4.4-4.7c3.3-3.6,6.5-6.9,7.2-7.6l0.2-0.2c1.4-1.3,4.7-4.3,9.9-4.6
	c2.5-0.2,3.9-0.1,4.9-0.1c0.1,0,0.3,0,0.4,0c2.1,0,5.4,1.7,5.6,6.1c0.1,4,0.2,15,0.2,20.3c0,1.5,0,2.5,0,2.8c0,0.5,0.1,4.5,2.7,7.9
	c2.4,3.1,4.4,4.2,9.2,6.4c3.9,1.8,10.1,4.6,12.7,5.8c0.6,0.3,1.1,0.5,1.2,0.6l0,0c1.4,0.6,3.4,1.3,4.9-0.4c1.5-1.6,1.5-3.3-0.1-5.6
	c-0.2-0.3-0.9-1.3-1.8-2.6c-3.2-4.7-9.1-13.3-9.5-14c0-0.1-0.1-0.1-0.1-0.2c-0.8-1.2-3.2-4.7-1-8.8c1.1-1.9,2.9-3.4,5.5-4.3
	c1.9-0.6,4.1-0.9,6.2-0.8c4.4,0.3,7.9,2.6,11.1,7.3c0.9,1.3,2.2,3.2,3.7,5.4c4.2,6.2,9.5,13.9,10,14.8l0.1,0.1c2.6,4.2,4,8.5,4.2,13
	c0.3,7.1-1.8,13.6-6.2,18.8c-3.7,4.4-10.5,9.7-21.3,9.7c-3.6,0-24,0-48.9,0c-44.4,0-102.4,0-103.4,0c-0.4,0-0.8,0-1.2,0
	C24.6,90.6,24.1,90.6,23.7,90.7L23.7,90.7z M23.5,44.9C23,45.8,13.7,62,13.4,62.5c-0.1,0.2-0.6,1.2-0.6,2.5c0,1.1,0.4,2,0.4,2.1v0.1
	L19.8,85c0.1,0.2,0.1,0.3,0.2,0.4c0.4,1.1,0.7,1.8,1.5,2.5c0.6,0.6,2.1,0.5,3.5,0.4c0.4,0,0.9,0,1.3,0c1,0,58.9,0,103.4,0l0,0
	c24.8,0,45.3,0,48.9,0c10,0,16.2-4.8,19.6-8.9c4-4.8,6-10.7,5.7-17.2c-0.2-4.1-1.5-8.1-3.9-11.9l-0.1-0.1c-0.6-0.9-6-8.9-10-14.8
	c-1.5-2.1-2.8-4.1-3.7-5.4c-3.6-5.3-7.1-6.1-9.4-6.3c-2.6-0.2-7.6,0.5-9.5,3.9c-1.5,2.8,0.2,5.3,0.9,6.4c0.1,0.1,0.1,0.2,0.2,0.2
	c0.4,0.7,6.6,9.7,9.5,14c0.9,1.3,1.5,2.2,1.8,2.6c2.2,3.2,2.1,6-0.2,8.5c-1.3,1.4-3.7,2.7-7.6,0.9l0,0c-0.2-0.1-0.6-0.3-1.2-0.6
	c-2.6-1.2-8.8-4-12.7-5.8c-5.1-2.3-7.4-3.6-10.1-7.1c-2.9-4-3.2-8.4-3.2-9.2c0-0.3,0-1.3,0-2.8c0-5.3-0.1-16.2-0.2-20.2
	c-0.1-3.8-3.2-3.9-3.3-3.9s-0.3,0-0.4,0c-1,0-2.3-0.1-4.7,0.1c-4.3,0.3-7.1,2.8-8.5,4.1l-0.2,0.2c-0.6,0.6-4,4.2-7,7.4
	c-1.6,1.7-3.2,3.4-4.4,4.7c-0.9,1-1.7,1.9-2.4,2.6c-2.1,2.4-3.6,4.1-6.8,5.9c-4.7,2.6-9.7,2-11.1,1.8l-2-0.4
	c-31.4-4.4-39.5-5.5-40.8-5.7c-0.2,0-0.5-0.1-0.7-0.1c-3-0.4-4.1-0.6-5.6,1.3c-1.4,1.8-0.5,3.3,0.6,5.1l0,0c0.4,0.6,1,1.6,1.8,2.8
	c1.1,1.7,2.6,4,4.4,6.8c2.8,4.4,5.4,4.5,7,4.5c1.2,0,2.6-0.3,5.7-0.9c1.4-0.3,3.2-0.7,5.5-1.2c1.6-0.3,3.2-0.7,4.8-1
	c5.7-1.2,10.6-2.2,13.2-2.4c5.5-0.3,9.9,1.5,10.1,1.6l12.4,5.1c3.1,1.3,5.8,4.5,4.4,8.8c-0.7,2.1-2.5,4.7-6.8,4.8
	c-0.8,0-64.3,0-67.2,0c-3,0-5-0.1-7.8-2.2c-2.9-2.1-3.9-5.4-3.9-5.6c0,0-3-11.2-3.3-12.5c-0.3-1.2-0.4-1.4-1-1.8
	c-0.6-0.5-1.4-0.4-1.9-0.3C24.1,44.2,23.6,44.7,23.5,44.9L23.5,44.9z"/>
<circle class="st2" cx="16.9" cy="95.6" r="3.9"/>
<g class="st3">
	<path class="st1" d="M15.8,96.8h0.9v-2.4l0,0l-0.8,0.2L15.7,94l1.1-0.3h0.7v3.1h0.8v0.6h-2.4L15.8,96.8L15.8,96.8z"/>
</g>
<circle class="st2" cx="3.9" cy="63.8" r="3.9"/>
<g class="st3">
	<path class="st1" d="M2.7,65c0-0.8,0.3-1.1,0.8-1.3L4,63.6c0.3-0.1,0.4-0.2,0.4-0.5l0,0c0-0.3-0.2-0.5-0.6-0.5s-0.7,0.1-0.9,0.2
		l-0.1-0.6C3,62,3.5,61.9,4,61.9c0.7,0,1.3,0.3,1.3,1.1l0,0c0,0.7-0.2,0.9-0.8,1.1L4,64.3c-0.4,0.1-0.5,0.3-0.5,0.6v0.2h1.7v0.6H2.7
		V65z"/>
</g>
<circle class="st2" cx="27.9" cy="35.2" r="3.9"/>
<g class="st3">
	<path class="st1" d="M26.6,36.9l0.1-0.6c0.3,0.1,0.6,0.2,1,0.2c0.5,0,0.7-0.1,0.7-0.5l0,0c0-0.4-0.2-0.5-0.6-0.5h-0.5v-0.6h0.3
		c0.5,0,0.7-0.1,0.7-0.5l0,0c0-0.3-0.2-0.4-0.6-0.4s-0.7,0.1-0.9,0.3l-0.2-0.6c0.3-0.2,0.7-0.3,1.2-0.3c0.7,0,1.2,0.2,1.2,0.9v0.1
		c0,0.4-0.2,0.7-0.5,0.8l0,0c0.4,0.1,0.6,0.4,0.6,0.9V36c0,0.8-0.5,1.1-1.4,1.1C27.3,37.1,26.9,37,26.6,36.9z"/>
</g>
<circle class="st2" cx="40.1" cy="57.3" r="3.9"/>
<g class="st3">
	<path class="st1" d="M40.5,58.4h-1.8v-0.5l1.3-2.5h0.9l-1.2,2.4h0.9v-1.1h0.8v1.1h0.4v0.6h-0.4v0.7h-0.8v-0.7H40.5z"/>
</g>
<circle class="st2" cx="108" cy="59.1" r="3.9"/>
<g class="st3">
	<path class="st1" d="M109.3,59.8L109.3,59.8c0,0.9-0.5,1.3-1.3,1.3c-0.6,0-1-0.2-1.3-0.3l0.2-0.6c0.3,0.2,0.7,0.3,1,0.3
		c0.5,0,0.7-0.2,0.7-0.6l0,0c0-0.4-0.2-0.6-0.7-0.6c-0.3,0-0.6,0-0.8,0l-0.2-0.2l0.1-1.9h2.1v0.6h-1.4l-0.1,0.8c0.1,0,0.2,0,0.3,0
		C108.9,58.6,109.3,58.9,109.3,59.8z"/>
</g>
<circle class="st2" cx="92.3" cy="53.7" r="3.9"/>
<g class="st3">
	<path class="st1" d="M93.7,54.4L93.7,54.4c0,0.8-0.5,1.3-1.3,1.3c-1.1,0-1.4-0.6-1.4-1.8v-0.2c0-1.6,0.6-1.9,1.5-1.9
		c0.4,0,0.7,0.1,0.9,0.2l-0.1,0.6c-0.2-0.1-0.5-0.2-0.8-0.2c-0.5,0-0.7,0.2-0.8,0.9c0.2,0,0.5,0,0.6,0
		C93.2,53.2,93.7,53.5,93.7,54.4z M92.9,54.4c0-0.4-0.2-0.5-0.6-0.5c-0.2,0-0.4,0-0.6,0c0,0.8,0.1,1.1,0.6,1.1S92.9,54.8,92.9,54.4
		L92.9,54.4z"/>
</g>
<circle class="st2" cx="61.1" cy="45.7" r="3.9"/>
<g class="st3">
	<path class="st1" d="M61.6,44.4h-1.8v-0.6h2.7v0.5L61,47.6h-0.9L61.6,44.4z"/>
</g>
<circle class="st2" cx="39.5" cy="26.4" r="3.9"/>
<g class="st3">
	<path class="st1" d="M40.9,27.2L40.9,27.2c0,0.7-0.4,1.1-1.3,1.1c-1,0-1.4-0.4-1.4-1.1l0,0c0-0.5,0.2-0.7,0.5-0.9
		c-0.3-0.2-0.4-0.4-0.4-0.8l0,0c0-0.7,0.4-1,1.3-1c0.8,0,1.3,0.3,1.3,1l0,0c0,0.4-0.1,0.7-0.4,0.8C40.8,26.5,40.9,26.8,40.9,27.2z
		 M40.1,27.2c0-0.4-0.2-0.5-0.5-0.5h-0.1c-0.4,0-0.5,0.2-0.5,0.5l0,0c0,0.4,0.2,0.5,0.6,0.5C40,27.7,40.1,27.6,40.1,27.2L40.1,27.2z
		 M39.1,25.6c0,0.3,0.1,0.5,0.5,0.5l0,0c0.4,0,0.5-0.2,0.5-0.5l0,0c0-0.3-0.1-0.5-0.5-0.5C39.2,25.1,39.1,25.2,39.1,25.6L39.1,25.6z
		"/>
</g>
<circle class="st2" cx="100.4" cy="28.4" r="3.9"/>
<g class="st3">
	<path class="st1" d="M101.9,27.9v0.7c0,1-0.2,1.6-1.4,1.6c-0.5,0-0.8-0.1-1.1-0.2l0.1-0.6c0.3,0.1,0.6,0.2,0.9,0.2
		c0.4,0,0.7-0.2,0.7-0.8c-0.2,0-0.4,0-0.6,0c-0.9,0-1.3-0.4-1.3-1.2v-0.1c0-0.8,0.5-1.2,1.3-1.2C101.5,26.4,101.9,26.9,101.9,27.9z
		 M100.5,28.3c0.2,0,0.4,0,0.5,0v-0.1c0-0.8-0.1-1.1-0.6-1.1c-0.4,0-0.6,0.2-0.6,0.6l0,0C99.9,28.1,100.1,28.3,100.5,28.3z"/>
</g>
<circle class="st2" cx="127.9" cy="4.2" r="3.9"/>
<g class="st3">
	<path class="st1" d="M125.3,5.5h0.9V3.1l0,0l-0.8,0.2l-0.1-0.6l1.1-0.3h0.7v3.1h0.8v0.6h-2.4V5.5H125.3z"/>
	<path class="st1" d="M128.6,5.8c-0.3-0.3-0.4-0.6-0.4-1.5V4.1c0-0.8,0.1-1.2,0.4-1.5c0.2-0.2,0.5-0.3,1-0.3s0.8,0.1,1.1,0.4
		c0.2,0.3,0.3,0.7,0.3,1.5v0.2c0,0.9-0.1,1.2-0.4,1.5c-0.2,0.3-0.6,0.3-1,0.3C129.1,6.1,128.8,6,128.6,5.8z M130,5.3
		c0.2-0.2,0.2-0.5,0.2-1.1v0c0-0.6,0-0.9-0.1-1.1c-0.1-0.1-0.2-0.2-0.5-0.2c-0.2,0-0.4,0-0.5,0.2C129,3.2,129,3.6,129,4.2v0.1
		c0,0.6,0,0.9,0.1,1.1c0.1,0.1,0.2,0.2,0.5,0.2C129.8,5.5,130,5.5,130,5.3z"/>
</g>
<circle class="st2" cx="149.8" cy="5.3" r="3.9"/>
<g class="st3">
	<path class="st1" d="M147.2,6.6h0.9V4.2l0,0l-0.8,0.2l-0.1-0.6l1.1-0.3h0.7v3.1h0.8v0.6h-2.4V6.6H147.2z"/>
	<path class="st1" d="M150.3,6.6h0.9V4.2l0,0l-0.8,0.2l-0.1-0.6l1.1-0.3h0.7v3.1h0.8v0.6h-2.4V6.6H150.3z"/>
</g>
<circle class="st2" cx="140.5" cy="46.4" r="3.9"/>
<g class="st3">
	<path class="st1" d="M137.8,47.6h0.9v-2.4l0,0l-0.8,0.2l-0.1-0.6l1.1-0.3h0.7v3.1h0.8v0.6H138v-0.6H137.8z"/>
	<path class="st1" d="M140.9,47.6c0-0.8,0.3-1.1,0.8-1.3l0.4-0.1c0.3-0.1,0.4-0.2,0.4-0.5l0,0c0-0.3-0.2-0.5-0.6-0.5
		c-0.4,0-0.7,0.1-0.9,0.2l-0.1-0.6c0.3-0.2,0.7-0.3,1.2-0.3c0.7,0,1.3,0.3,1.3,1.1v0.1c0,0.7-0.2,0.9-0.8,1.1l-0.4,0.1
		c-0.4,0.1-0.5,0.3-0.5,0.6v0.2h1.7v0.6h-2.5L140.9,47.6L140.9,47.6z"/>
</g>
<circle class="st2" cx="183.6" cy="64.3" r="3.9"/>
<g class="st3">
	<path class="st1" d="M181,65.6h0.9v-2.4l0,0l-0.8,0.2l-0.1-0.6l1.1-0.3h0.7v3.1h0.8v0.6H181V65.6z"/>
	<path class="st1" d="M183.9,66l0.1-0.6c0.3,0.1,0.6,0.2,1,0.2c0.5,0,0.7-0.1,0.7-0.5l0,0c0-0.4-0.2-0.5-0.6-0.5h-0.5V64h0.3
		c0.5,0,0.7-0.1,0.7-0.5l0,0c0-0.3-0.2-0.4-0.6-0.4c-0.4,0-0.7,0.1-0.9,0.3l-0.2-0.6c0.3-0.2,0.7-0.3,1.2-0.3c0.7,0,1.2,0.2,1.2,0.9
		v0.1c0,0.4-0.2,0.7-0.5,0.8l0,0c0.4,0.1,0.6,0.4,0.6,0.9v0.1c0,0.8-0.5,1.1-1.4,1.1C184.6,66.3,184.2,66.2,183.9,66z"/>
</g>
<circle class="st2" cx="166.3" cy="14.5" r="3.9"/>
<g class="st3">
	<path class="st1" d="M163.7,15.7h0.9v-2.4l0,0l-0.8,0.2l-0.1-0.6l1.1-0.3h0.7v3.1h0.8v0.6h-2.4v-0.6H163.7z"/>
	<path class="st1" d="M168.3,15.6h-1.8v-0.5l1.3-2.5h0.9l-1.2,2.4h0.9v-1.1h0.8V15h0.4v0.6h-0.4v0.7h-0.8L168.3,15.6L168.3,15.6z"/>
</g>
<circle class="st2" cx="206.1" cy="84.3" r="3.9"/>
<g class="st3">
	<path class="st1" d="M203.4,85.5h0.9v-2.4l0,0l-0.8,0.2l-0.1-0.6l1.1-0.3h0.7v3.1h0.8v0.6h-2.4v-0.6H203.4z"/>
	<path class="st1" d="M209,84.9L209,84.9c0,0.9-0.5,1.3-1.3,1.3c-0.6,0-1-0.2-1.3-0.3l0.2-0.6c0.3,0.2,0.7,0.3,1,0.3
		c0.5,0,0.7-0.2,0.7-0.6l0,0c0-0.4-0.2-0.6-0.7-0.6c-0.3,0-0.6,0-0.8,0l-0.2-0.2l0.1-1.9h2.1V83h-1.4l-0.1,0.8c0.1,0,0.2,0,0.3,0
		C208.5,83.8,209,84.1,209,84.9z"/>
</g>
<rect x="129.2" y="86.2" class="st4" width="0.8" height="8.6"/>
<path class="st5" d="M134.4,94h-9.6v8.8h9.6V94z"/>
<g class="st3">
	<path class="st6" d="M126.6,96.7c0-0.6,0.3-1,1-1h2.3v0.9h-2c-0.1,0-0.2,0.1-0.2,0.2v1h2v0.9h-2v2.2h-1.1V96.7z"/>
	<path class="st6" d="M130.9,100.2v-4.5h1.1v4.3c0,0.1,0,0.1,0.1,0.1h1.6v0.9h-2C131.1,101,130.9,100.8,130.9,100.2z"/>
</g>
<rect x="26.9" y="51.1" transform="matrix(0.9172 -0.3984 0.3984 0.9172 -17.7728 17.5077)" class="st6" width="12.7" height="0.8"/>
<path class="st5" d="M44.4,43.4h-9.6l0,0v8.8h9.6V43.4z"/>
<g class="st3">
	<path class="st6" d="M37,44.8h1.1v1.1H37V44.8z M37,46.4h1.1v4H37V46.4z"/>
	<path class="st6" d="M39.3,49.5h1.2v-3.4l0,0l-1.1,0.3l-0.2-0.9l1.5-0.5h1v4.4h1.1v0.9h-3.4L39.3,49.5L39.3,49.5z"/>
</g>
<rect x="141.2" y="37.5" transform="matrix(0.9999 -1.396222e-02 1.396222e-02 0.9999 -0.5147 2.0757)" class="st6" width="14.4" height="0.8"/>
<path class="st5" d="M160.8,33.1h-9.6l0,0v8.8h9.6C160.8,41.9,160.8,33.1,160.8,33.1z"/>
<g class="st3">
	<path class="st6" d="M153.4,34.6h1.1v1.1h-1.1V34.6z M153.4,36.1h1.1v4h-1.1V36.1z"/>
	<path class="st6" d="M155.4,39.9l0.2-0.9c0.4,0.2,0.9,0.3,1.5,0.3c0.7,0,1-0.2,1-0.7v-0.1c0-0.6-0.3-0.7-0.9-0.7h-0.6v-0.9h0.5
		c0.6,0,0.9-0.1,0.9-0.6v-0.1c0-0.5-0.4-0.6-0.8-0.6c-0.5,0-1,0.1-1.3,0.4l-0.2-0.9c0.4-0.2,1-0.4,1.7-0.4c1,0,1.7,0.3,1.7,1.3v0.1
		c0,0.5-0.3,1-0.7,1.1l0,0c0.5,0.1,0.9,0.5,0.9,1.2v0.1c0,1.1-0.7,1.6-2,1.6C156.4,40.2,155.8,40.1,155.4,39.9z"/>
</g>
<rect x="67.4" y="29.7" transform="matrix(0.1231 -0.9924 0.9924 0.1231 34.6136 99.4687)" class="st6" width="12.4" height="0.8"/>
<path class="st5" d="M79.4,18.7h-9.6l0,0v8.8h9.6C79.5,27.5,79.5,18.7,79.4,18.7z"/>
<g class="st3">
	<path class="st6" d="M72,20.1h1.1v1.1H72V20.1z M72.1,21.6h1.1v4h-1.1V21.6z"/>
	<path class="st6" d="M74.2,24.7c0-1.1,0.4-1.6,1.2-1.8l0.6-0.2c0.5-0.1,0.6-0.3,0.6-0.8l0,0c0-0.5-0.3-0.7-0.9-0.7
		c-0.5,0-1.1,0.2-1.3,0.3l-0.2-0.9c0.4-0.2,1-0.4,1.7-0.4c1,0,1.8,0.5,1.8,1.5v0.1c0,0.9-0.3,1.3-1.1,1.6L76,23.6
		c-0.6,0.2-0.7,0.4-0.7,0.9v0.3h2.4v0.9h-3.5V24.7z"/>
</g>
<rect x="80.7" y="86.1" class="st6" width="0.8" height="8.6"/>
<path class="st6" d="M84.5,94.7h-6.7l0,0v7.3h6.7V94.7z"/>
<g class="st3">
	<path class="st7" d="M79.8,100.3l0.2-0.7c0.3,0.1,0.8,0.2,1.1,0.2c0.6,0,0.8-0.1,0.8-0.5v-0.1c0-0.4-0.1-0.4-0.5-0.5l-0.5-0.1
		c-0.8-0.2-1.1-0.5-1.1-1.3v-0.1c0-1,0.6-1.2,1.6-1.2c0.5,0,1,0.1,1.3,0.2L82.4,97c-0.3-0.1-0.8-0.2-1.1-0.2c-0.5,0-0.7,0.1-0.7,0.5
		v0.1c0,0.3,0.1,0.4,0.5,0.5l0.5,0.1c0.8,0.2,1.1,0.4,1.1,1.2v0.1c0,1-0.6,1.3-1.6,1.3C80.7,100.6,80,100.4,79.8,100.3z"/>
</g>
<rect x="123.8" y="97" class="st8" width="1" height="5.9"/>
<rect x="123.8" y="97.9" width="1" height="1"/>
<rect x="123.8" y="99.9" width="1" height="1"/>
<rect x="123.8" y="101.8" width="1" height="1"/>
<rect x="122.9" y="97" class="st8" width="1" height="5.9"/>
<rect x="122.9" y="97" width="1" height="1"/>
<rect x="122.9" y="98.9" width="1" height="1"/>
<rect x="122.9" y="100.9" width="1" height="1"/>
<rect x="123.8" y="94" class="st8" width="1" height="2.9"/>
<rect x="123.8" y="94" width="1" height="1"/>
<rect x="123.8" y="96" width="1" height="1"/>
<rect x="122.9" y="94" class="st8" width="1" height="2.9"/>
<rect x="122.9" y="95" width="1" height="1"/>
</svg>
