<?xml version="1.0" encoding="utf-8"?>
<!-- Generator: Adobe Illustrator 28.0.0, SVG Export Plug-In . SVG Version: 6.00 Build 0)  -->
<svg version="1.1" id="Capa_1" xmlns="http://www.w3.org/2000/svg" xmlns:xlink="http://www.w3.org/1999/xlink" x="0px" y="0px"
	 viewBox="0 0 210 130" style="enable-background:new 0 0 210 130;" xml:space="preserve">
<style type="text/css">
	.st0{fill:#585E65;}
	.st1{fill:#9E9FA3;}
	.st2{fill:#08161F;}
	.st3{enable-background:new    ;}
	.st4{fill:none;}
	.st5{fill:#E5E5E5;}
	.st6{fill:#C70502;}
	.st7{fill:#ECECEC;}
	.st8{fill:#323232;}
	.st9{fill:#FAFAFA;}
</style>
<path class="st0" d="M82.4,123.9c-1.1,0-1.9-0.4-2.6-1.3c-1.4-1.9-1.2-3.7-0.9-6c0.2-1.2,0.3-2.7,0.3-4.4c-0.1-5.2-1.6-9.3-5.2-13.9
	l1.1-0.9c3.7,4.8,5.3,9.2,5.5,14.7c0,1.8-0.1,3.3-0.3,4.6c-0.3,2.2-0.4,3.5,0.6,5c1,1.3,2.4,0.9,7.1-0.8c2.2-0.8,4.9-1.7,8.3-2.8
	l0.4,1.4c-3.4,1-6.1,2-8.3,2.8C85.8,123.2,83.8,123.9,82.4,123.9L82.4,123.9z"/>
<path class="st1" d="M91.5,120.6L91.5,120.6c-2.4,0-3.4-2.2-3.9-3.4c-2.1-4.4-10.2-14.9-12.9-18.3c-1.4-1.8-6.2-8.3-10.2-14.2
	c-3.6-5.4-6.6-10.5-7.1-11.4c-3.5-6-8.2-12.5-10.2-14.6L47,58.5c-1.7-1.8-1.8-2.2-0.8-4.7c0.1-0.2,0.1-0.3,0.2-0.5
	c0.6-1.5,1.2-2.8,1.6-3.8c0.3-0.8,0.7-1.5,0.7-1.8v-0.2c0.2-0.7,0.2-0.8-1-1.9c-1.1-1.1-4.7-4.9-8.5-8.9s-7.8-8.2-8.6-9
	c-1.3-1.2-11-10.4-16.3-15.3c-1.5-1.4-2.6-2.4-3-2.8c-0.5-0.5-1-1-1.6-1.6C9,7.1,8.8,6,9.2,5c0.5-1.4,1.9-2.3,3.9-2.6
	C17.4,1.8,30.7-0.2,44,1.1c9.8,1,21.5,3.1,30.1,4.7c2.3,0.4,4.3,0.8,6,1.1c8.3,1.4,17.7,2.7,29.7,2.8c2.2,0,4.1,0,5.7,0
	c7.8,0,9.9,0.1,11,0.2c1.8,0.2,4.2,1.5,5.2,3.5c0.6,1.2,0.9,3.1-0.8,5.6c-3.3,4.9-4.5,6.4-7.1,8.8c-0.9,0.9-4.5,3.9-9.8,5.8
	c-4.9,1.8-10.1,2.3-15.5,1.5c-12.1-1.8-13.4-2-16.2-2.3h-0.4c-0.3,0-0.8-0.1-1.3-0.2c-1.2-0.2-2.9-0.4-4.4-0.6c-6-0.6-9,2-10.4,4.2
	c-3.9,6.2-1.6,10.2,1.4,15.4c0.4,0.6,0.7,1.3,1.1,1.9c2.7,4.7,4.6,7.9,6.3,10.7c0.5,0.8,1,1.6,1.4,2.4c2,3.3,4.5,5.2,7.7,5.5
	c6.1,0.7,10.1-3.6,11.9-6.3c2.5-3.7,5.3-6.3,8.7-8.3c4-2.3,8.8-3.6,15-4c4-0.3,33.4-1.4,49.2-2.1c5-0.2,8.6-0.3,9.5-0.4
	c0.4,0,0.8,0,1.2-0.1c6.4-0.3,12.4-0.6,15.7,9.8c2.2,6.9,3.6,11.4,4.4,14.1c0.4,1.4,0.7,2.3,0.9,2.8c1.5,4.5,0.9,6.7-5.2,10.4
	c-6.5,3.9-10.6,5.6-23,9.3c-3.9,1.2-9.3,2.8-16,4.7l0,0c-10.5,3-20.6,5.9-20.7,6L97,119.3C96.5,119.5,93.2,120.6,91.5,120.6
	L91.5,120.6z M34.4,2.7c-9.5,0-17.8,1.2-21,1.7c-1.2,0.2-2.1,0.7-2.3,1.3C11,6,11,6.3,11.2,6.6C11.6,7.1,12,7.5,12.6,8
	c0.4,0.4,1.5,1.4,3,2.8c5.3,4.9,15,14.1,16.3,15.4c0.8,0.8,4.7,4.8,8.7,9c3.7,3.8,7.5,7.8,8.5,8.9c1.8,1.8,1.9,2.5,1.5,4v0.2
	c-0.1,0.3-0.4,1-0.8,2c-0.5,1-1,2.3-1.6,3.8c-0.1,0.2-0.1,0.3-0.2,0.5c-0.3,0.7-0.5,1.3-0.5,1.5s0.4,0.6,0.9,1.1l0.2,0.2
	c2,2.2,7,8.9,10.5,15c0.5,0.9,3.5,6,7.1,11.3c4.2,6.3,8.9,12.6,10.1,14c2.1,2.5,10.9,13.7,13.2,18.7c0.9,1.8,1.4,2.2,2.1,2.2
	c1.1,0,3.9-0.9,4.8-1.2h0.1l38.4-11.3c0.1,0,10.2-2.9,20.7-6c6.7-1.9,12-3.5,16-4.7c12.2-3.6,16.2-5.2,22.5-9.1
	c5.8-3.5,5.4-4.9,4.4-8c-0.2-0.6-0.5-1.5-0.9-2.8c-0.8-2.7-2.2-7.2-4.4-14.1c-2.9-8.9-7.4-8.7-13.7-8.4c-0.4,0-0.8,0-1.2,0.1
	c-0.9,0-4.6,0.2-9.5,0.4c-15.8,0.6-45.2,1.8-49.2,2.1c-5.9,0.4-10.4,1.6-14.1,3.7c-3.1,1.8-5.7,4.2-8,7.7
	c-4.8,7.1-10.7,7.6-13.8,7.2c-3.8-0.4-6.8-2.6-9.2-6.5c-0.5-0.8-0.9-1.5-1.4-2.3c-1.7-2.8-3.6-5.9-6.3-10.7
	c-0.4-0.7-0.7-1.3-1.1-1.9c-3.1-5.3-6-10.2-1.4-17.5c2.4-3.9,6.8-5.7,12.4-5.2c1.5,0.1,3.2,0.4,4.5,0.6c0.5,0.1,1,0.1,1.3,0.2h0.4
	c2.8,0.4,4.1,0.5,16.2,2.3c5,0.7,9.9,0.3,14.5-1.4c5-1.8,8.2-4.6,9.1-5.4c2.4-2.2,3.6-3.6,6.8-8.4c0.9-1.3,1.1-2.6,0.6-3.6
	c-0.7-1.5-2.5-2.3-3.5-2.4c-1-0.1-3.3-0.1-10.8-0.1c-1.6,0-3.5,0-5.7,0c-12.2-0.1-21.6-1.4-30-2.8c-1.7-0.3-3.7-0.6-6-1.1
	c-8.5-1.5-20.2-3.7-29.9-4.6C40.6,2.8,37.5,2.7,34.4,2.7L34.4,2.7z"/>
<circle class="st2" cx="94.7" cy="125.7" r="3.5"/>
<g class="st3">
	<path class="st1" d="M93.8,126.8h0.8v-2.1l0,0l-0.7,0.2l-0.1-0.5l1-0.3h0.6v2.8h0.7v0.5h-2.2v-0.6H93.8z"/>
</g>
<circle class="st2" cx="40.5" cy="59.2" r="3.5"/>
<g class="st3">
	<path class="st1" d="M38.3,60.2c0-0.7,0.2-1,0.7-1.2l0.4-0.1c0.3-0.1,0.4-0.2,0.4-0.5l0,0c0-0.3-0.2-0.4-0.5-0.4s-0.7,0.1-0.8,0.2
		l-0.1-0.5c0.2-0.1,0.6-0.2,1.1-0.2c0.7,0,1.1,0.3,1.1,1v0.1c0,0.6-0.2,0.8-0.7,1l-0.4,0.1C39.1,59.8,39,60,39,60.2v0.2h1.5v0.5
		h-2.2V60.2z"/>
</g>
<g class="st3">
	<path class="st1" d="M41,60.2L41,60.2c0-0.7,0.3-0.8,0.9-0.8h0.2c0.1,0,0.2,0,0.2,0v-0.1c0-0.2-0.1-0.3-0.4-0.3
		c-0.2,0-0.4,0-0.6,0.1l-0.1-0.5c0.2-0.1,0.5-0.1,0.8-0.1c0.8,0,0.9,0.4,0.9,0.8v1.6h-0.4v-0.2l0,0c-0.1,0.1-0.2,0.2-0.5,0.2h-0.2
		C41.3,60.9,41,60.6,41,60.2z M42.1,60.4c0.2,0,0.3-0.1,0.3-0.3v-0.3c-0.1,0-0.2,0-0.3,0H42c-0.2,0-0.3,0-0.3,0.3l0,0
		C41.7,60.3,41.8,60.3,42.1,60.4L42.1,60.4L42.1,60.4z"/>
</g>
<circle class="st2" cx="55.8" cy="44.2" r="3.5"/>
<g class="st3">
	<path class="st1" d="M53.5,45.3c0-0.7,0.2-1,0.7-1.2l0.4-0.1c0.3-0.1,0.4-0.2,0.4-0.5l0,0c0-0.3-0.2-0.4-0.5-0.4s-0.7,0.1-0.8,0.2
		l-0.1-0.5c0.2-0.1,0.6-0.2,1.1-0.2c0.7,0,1.1,0.3,1.1,1v0.1c0,0.6-0.2,0.8-0.7,1l-0.4,0.1c-0.4,0.1-0.5,0.3-0.5,0.5v0.2h1.5V46
		h-2.2V45.3z"/>
</g>
<g class="st3">
	<path class="st1" d="M56.3,45.1v-2.4h0.6v1l0,0c0.1-0.1,0.3-0.2,0.5-0.2c0.7,0,0.9,0.4,0.9,1.1v0.2c0,0.8-0.3,1.1-1,1.1
		C56.6,45.9,56.3,45.7,56.3,45.1z M57.7,44.8L57.7,44.8c0-0.5,0-0.7-0.4-0.7c-0.3,0-0.4,0.1-0.4,0.4V45c0,0.3,0.1,0.4,0.4,0.4
		C57.7,45.4,57.7,45.2,57.7,44.8z"/>
</g>
<circle class="st2" cx="3.5" cy="5.5" r="3.5"/>
<g class="st3">
	<path class="st1" d="M2.3,7l0.1-0.5C2.7,6.6,3,6.7,3.3,6.7c0.4,0,0.6-0.1,0.6-0.5l0,0c0-0.4-0.2-0.5-0.6-0.5H3V5.1h0.3
		c0.4,0,0.6-0.1,0.6-0.4l0,0c0-0.3-0.2-0.4-0.5-0.4C3,4.3,2.7,4.4,2.5,4.6L2.4,4C2.6,3.9,3,3.8,3.5,3.8c0.6,0,1.1,0.2,1.1,0.8v0.1
		c0,0.3-0.2,0.6-0.5,0.7l0,0c0.3,0.1,0.6,0.3,0.6,0.8v0.1c0,0.7-0.4,1-1.2,1C3,7.2,2.6,7.1,2.3,7z"/>
</g>
<circle class="st2" cx="137.6" cy="13.6" r="3.5"/>
<g class="st3">
	<path class="st1" d="M137.9,14.6h-1.6v-0.4l1.1-2.2h0.8l-1.1,2.1h0.8v-0.9h0.7V14h0.4v0.6h-0.4v0.6h-0.7V14.6z"/>
</g>
<circle class="st2" cx="114.1" cy="39.5" r="3.5"/>
<g class="st3">
	<path class="st1" d="M115.3,40.1L115.3,40.1c0,0.8-0.4,1.1-1.2,1.1c-0.6,0-0.9-0.1-1.2-0.3l0.2-0.5c0.3,0.2,0.6,0.3,0.9,0.3
		c0.4,0,0.6-0.1,0.6-0.5l0,0c0-0.4-0.2-0.5-0.6-0.5c-0.2,0-0.5,0-0.7,0l-0.1-0.2l0.1-1.7h1.8v0.6h-1.3l-0.1,0.7c0.1,0,0.2,0,0.3,0
		C114.8,39,115.3,39.3,115.3,40.1z"/>
</g>
<circle class="st2" cx="70.6" cy="39" r="3.5"/>
<g class="st3">
	<path class="st1" d="M71.8,39.6L71.8,39.6c0,0.8-0.4,1.1-1.2,1.1c-1,0-1.2-0.5-1.2-1.6V39c0-1.4,0.5-1.7,1.3-1.7
		c0.3,0,0.6,0.1,0.8,0.1l0.1,0.6c-0.2-0.1-0.4-0.1-0.7-0.1c-0.4,0-0.6,0.1-0.7,0.8c0.2,0,0.4,0,0.6,0C71.4,38.6,71.8,38.8,71.8,39.6
		z M71.2,39.6c0-0.4-0.1-0.5-0.5-0.5c-0.2,0-0.3,0-0.5,0c0,0.7,0.1,1,0.5,1C71,40.2,71.2,40,71.2,39.6L71.2,39.6z"/>
</g>
<circle class="st2" cx="86.1" cy="66.4" r="3.5"/>
<g class="st3">
	<path class="st1" d="M86.6,65.3H85v-0.6h2.3v0.5L86,68.1h-0.8L86.6,65.3z"/>
</g>
<circle class="st2" cx="111.7" cy="62.5" r="3.5"/>
<g class="st3">
	<path class="st1" d="M113,63.2L113,63.2c0,0.7-0.4,1-1.2,1c-0.8,0-1.2-0.3-1.2-1l0,0c0-0.4,0.2-0.6,0.5-0.8
		c-0.2-0.1-0.4-0.4-0.4-0.7l0,0c0-0.6,0.4-0.9,1.2-0.9c0.7,0,1.1,0.3,1.1,0.9l0,0c0,0.3-0.1,0.6-0.4,0.7
		C112.8,62.5,113,62.8,113,63.2z M112.3,63.1c0-0.3-0.1-0.5-0.5-0.5l0,0c-0.3,0-0.5,0.1-0.5,0.5l0,0c0,0.3,0.1,0.5,0.5,0.5
		C112.2,63.6,112.3,63.5,112.3,63.1L112.3,63.1z M111.3,61.7c0,0.3,0.1,0.4,0.4,0.4l0,0c0.3,0,0.4-0.2,0.4-0.4l0,0
		c0-0.3-0.1-0.4-0.4-0.4C111.5,61.3,111.3,61.4,111.3,61.7L111.3,61.7z"/>
</g>
<circle class="st2" cx="193.8" cy="48.9" r="3.5"/>
<g class="st3">
	<path class="st1" d="M195.1,48.5v0.6c0,0.9-0.2,1.5-1.2,1.5c-0.4,0-0.7-0.1-1-0.1l0.1-0.6c0.2,0.1,0.6,0.1,0.8,0.1
		c0.4,0,0.6-0.2,0.6-0.7c-0.2,0-0.4,0-0.6,0c-0.8,0-1.1-0.3-1.1-1.1v-0.1c0-0.7,0.4-1.1,1.2-1.1C194.7,47.2,195.1,47.6,195.1,48.5z
		 M193.9,48.9c0.2,0,0.3,0,0.5,0v-0.1c0-0.8-0.1-1-0.5-1s-0.5,0.2-0.5,0.5l0,0C193.4,48.7,193.5,48.9,193.9,48.9z"/>
</g>
<circle class="st2" cx="206.5" cy="82" r="3.5"/>
<g class="st3">
	<path class="st1" d="M204.2,83.1h0.8V81l0,0l-0.7,0.2l-0.1-0.5l1-0.3h0.6v2.8h0.7v0.5h-2.2v-0.6H204.2z"/>
	<path class="st1" d="M207.1,83.4c-0.2-0.2-0.3-0.6-0.3-1.4v-0.1c0-0.7,0.1-1.1,0.3-1.3c0.2-0.2,0.5-0.3,0.9-0.3
		c0.5,0,0.8,0.1,1,0.3c0.2,0.3,0.3,0.6,0.3,1.3V82c0,0.8-0.1,1.1-0.3,1.3c-0.2,0.2-0.5,0.3-0.9,0.3
		C207.6,83.7,207.3,83.6,207.1,83.4z M208.4,83c0.1-0.2,0.1-0.5,0.1-1l0,0c0-0.5,0-0.8-0.1-1c-0.1-0.1-0.2-0.1-0.4-0.1
		s-0.4,0-0.4,0.1c-0.1,0.2-0.1,0.5-0.1,1l0,0c0,0.5,0,0.8,0.1,1c0.1,0.1,0.2,0.2,0.4,0.2C208.2,83.1,208.3,83.1,208.4,83z"/>
</g>
<line class="st4" x1="154.7" y1="98.1" x2="157.2" y2="106.3"/>
<rect x="155.6" y="97.9" transform="matrix(0.9579 -0.287 0.287 0.9579 -22.7705 49.0583)" class="st5" width="0.7" height="8.6"/>
<path class="st6" d="M161.4,105.4h-8.5l0,0v7.8h8.5V105.4z"/>
<g class="st3">
	<path class="st7" d="M154.5,107.8c0-0.6,0.3-0.9,0.9-0.9h2v0.8h-1.7c-0.1,0-0.2,0.1-0.2,0.2v0.9h1.8v0.8h-1.8v2h-1V107.8z"/>
	<path class="st7" d="M158.3,110.9v-4h1v3.8c0,0.1,0,0.1,0.1,0.1h1.4v0.8H159C158.5,111.6,158.3,111.4,158.3,110.9z"/>
</g>
<rect x="34.1" y="39.1" transform="matrix(0.7071 -0.7071 0.7071 0.7071 -16.2631 39.6296)" class="st7" width="11.3" height="0.7"/>
<path class="st6" d="M37.6,39.7h-8.5l0,0v7.8h8.5V39.7z"/>
<g class="st3">
	<path class="st7" d="M31,41h1v0.9h-1V41z M31.1,42.4H32V46h-0.9V42.4z"/>
	<path class="st7" d="M33.2,45.2h1.1v-3l0,0l-1,0.3L33,41.7l1.3-0.4h0.9v3.9h1V46h-3V45.2z"/>
</g>
<rect x="142.4" y="44.6" transform="matrix(0.9992 -3.978333e-02 3.978333e-02 0.9992 -1.9021 5.7192)" class="st7" width="0.7" height="12.1"/>
<path class="st6" d="M146.9,41.1h-8.5l0,0v7.8h8.5V41.1z"/>
<g class="st3">
	<path class="st7" d="M140.4,42.4h1v0.9h-1V42.4z M140.4,43.8h0.9v3.6h-0.9V43.8z"/>
	<path class="st7" d="M142.2,47.1l0.1-0.8c0.3,0.2,0.8,0.3,1.3,0.3c0.6,0,0.9-0.2,0.9-0.7v-0.1c0-0.5-0.3-0.7-0.8-0.7h-0.6v-0.8h0.4
		c0.6,0,0.8-0.1,0.8-0.6v-0.1c0-0.4-0.3-0.5-0.7-0.5c-0.5,0-0.9,0.1-1.2,0.3l-0.2-0.8c0.4-0.2,0.9-0.3,1.5-0.3
		c0.8,0,1.5,0.3,1.5,1.2v0.1c0,0.5-0.2,0.9-0.7,1l0,0c0.5,0.1,0.8,0.5,0.8,1.1V46c0,1-0.6,1.4-1.8,1.4
		C143.1,47.4,142.5,47.3,142.2,47.1z"/>
</g>
<rect x="122.3" y="25.3" transform="matrix(0.8212 -0.5706 0.5706 0.8212 4.0943 75.583)" class="st7" width="0.7" height="11.9"/>
<path class="st6" d="M130,32.9h-8.5l0,0v7.8h8.5V32.9z"/>
<g class="st3">
	<path class="st7" d="M123.4,34.1h1V35h-1V34.1z M123.5,35.5h0.9v3.6h-0.9V35.5z"/>
	<path class="st7" d="M125.4,38.2c0-1,0.3-1.4,1.1-1.6l0.6-0.2c0.4-0.1,0.6-0.2,0.6-0.7l0,0c0-0.4-0.3-0.6-0.8-0.6s-0.9,0.1-1.2,0.3
		l-0.2-0.8c0.3-0.2,0.9-0.3,1.5-0.3c0.9,0,1.6,0.4,1.6,1.4v0.1c0,0.8-0.3,1.2-1,1.4l-0.6,0.2c-0.5,0.1-0.7,0.4-0.7,0.8v0.2h2.2v0.8
		h-3.1L125.4,38.2L125.4,38.2z"/>
</g>
<rect x="124.9" y="106.8" transform="matrix(0.9462 -0.3236 0.3236 0.9462 -29.2127 46.5131)" class="st7" width="0.7" height="8.6"/>
<path class="st7" d="M129.5,114.4h-5.9l0,0v6.5h5.9V114.4L129.5,114.4z"/>
<g class="st3">
	<path class="st8" d="M125.4,119.4l0.2-0.6c0.3,0.1,0.7,0.2,1,0.2c0.5,0,0.7-0.1,0.7-0.5l0,0c0-0.3-0.1-0.4-0.5-0.5l-0.4-0.1
		c-0.7-0.2-1-0.4-1-1.1v-0.1c0-0.8,0.5-1.1,1.4-1.1c0.4,0,0.9,0.1,1.2,0.2l-0.2,0.7c-0.3-0.1-0.7-0.2-1-0.2c-0.4,0-0.6,0-0.6,0.4
		l0,0c0,0.3,0.1,0.4,0.5,0.4l0.5,0.1c0.7,0.1,0.9,0.4,0.9,1.1v0.1c0,0.9-0.5,1.2-1.5,1.2C126.2,119.6,125.6,119.5,125.4,119.4z"/>
</g>
<rect x="152" y="108" class="st9" width="0.9" height="5.2"/>
<rect x="152" y="108.9" width="0.9" height="0.9"/>
<rect x="152" y="110.6" width="0.9" height="0.9"/>
<rect x="152" y="112.3" width="0.9" height="0.9"/>
<rect x="151.2" y="108" class="st9" width="0.9" height="5.2"/>
<rect x="151.2" y="108" width="0.9" height="0.9"/>
<rect x="151.2" y="109.7" width="0.9" height="0.9"/>
<rect x="151.2" y="111.5" width="0.9" height="0.9"/>
<rect x="152" y="105.4" class="st9" width="0.9" height="2.6"/>
<rect x="152" y="105.4" width="0.9" height="0.9"/>
<rect x="152" y="107.1" width="0.9" height="0.9"/>
<rect x="151.2" y="105.4" class="st9" width="0.9" height="2.6"/>
<rect x="151.2" y="106.3" width="0.9" height="0.9"/>
</svg>
