<?xml version="1.0" encoding="UTF-8"?>
<svg id="Capa_1" data-name="Capa 1" xmlns="http://www.w3.org/2000/svg" xmlns:xlink="http://www.w3.org/1999/xlink" version="1.1" viewBox="0 0 210 145">
  <defs>
    <style>
      .cls-1 {
        fill: #08161f;
      }

      .cls-1, .cls-2, .cls-3, .cls-4, .cls-5, .cls-6 {
        stroke-width: 0px;
      }

      .cls-7 {
        letter-spacing: 0em;
      }

      .cls-2 {
        fill: #c80502;
      }

      .cls-8 {
        clip-path: url(#clippath);
      }

      .cls-3, .cls-9, .cls-10, .cls-11, .cls-12 {
        fill: none;
      }

      .cls-9 {
        stroke: #585e65;
        stroke-width: 1.4px;
      }

      .cls-9, .cls-10, .cls-11, .cls-12 {
        stroke-miterlimit: 10;
      }

      .cls-4 {
        fill: #fafafa;
      }

      .cls-13 {
        fill: #323232;
        font-size: 6.1px;
      }

      .cls-13, .cls-14 {
        font-family: MotoGPDisplay-Bold, 'MotoGP Display';
      }

      .cls-13, .cls-14, .cls-15 {
        font-weight: 700;
      }

      .cls-10 {
        stroke: #9fa0a4;
        stroke-width: 2.1px;
      }

      .cls-16 {
        clip-path: url(#clippath-4);
      }

      .cls-17 {
        clip-path: url(#clippath-3);
      }

      .cls-18 {
        clip-path: url(#clippath-7);
      }

      .cls-19 {
        clip-path: url(#clippath-8);
      }

      .cls-20 {
        clip-path: url(#clippath-6);
      }

      .cls-21 {
        clip-path: url(#clippath-5);
      }

      .cls-22 {
        clip-path: url(#clippath-9);
      }

      .cls-5 {
        fill: #000;
      }

      .cls-23 {
        clip-path: url(#clippath-20);
      }

      .cls-24 {
        clip-path: url(#clippath-21);
      }

      .cls-25 {
        clip-path: url(#clippath-23);
      }

      .cls-26 {
        clip-path: url(#clippath-22);
      }

      .cls-27 {
        clip-path: url(#clippath-14);
      }

      .cls-28 {
        clip-path: url(#clippath-13);
      }

      .cls-29 {
        clip-path: url(#clippath-12);
      }

      .cls-30 {
        clip-path: url(#clippath-10);
      }

      .cls-31 {
        clip-path: url(#clippath-15);
      }

      .cls-32 {
        clip-path: url(#clippath-17);
      }

      .cls-33 {
        clip-path: url(#clippath-16);
      }

      .cls-34 {
        clip-path: url(#clippath-19);
      }

      .cls-35 {
        clip-path: url(#clippath-11);
      }

      .cls-36 {
        clip-path: url(#clippath-18);
      }

      .cls-6, .cls-14 {
        fill: #ededed;
      }

      .cls-11 {
        stroke: #e6e6e6;
      }

      .cls-11, .cls-12 {
        stroke-width: .7px;
      }

      .cls-14 {
        font-size: 7.4px;
      }

      .cls-37 {
        letter-spacing: 0em;
      }

      .cls-15 {
        fill: #9fa0a4;
        font-family: MotoGPText-Bold, 'MotoGP Text';
        font-size: 5.2px;
      }

      .cls-12 {
        stroke: #ededed;
      }
    </style>
    <clipPath id="clippath">
      <rect class="cls-3" x="-11.3" y="-37.8" width="226.2" height="221.7"/>
    </clipPath>
    <clipPath id="clippath-3">
      <rect class="cls-3" x="-11.3" y="-37.8" width="226.2" height="221.7"/>
    </clipPath>
    <clipPath id="clippath-4">
      <rect class="cls-3" x="-11.3" y="-37.8" width="226.2" height="221.7"/>
    </clipPath>
    <clipPath id="clippath-5">
      <rect class="cls-3" x="-11.3" y="-37.8" width="226.2" height="221.7"/>
    </clipPath>
    <clipPath id="clippath-6">
      <rect class="cls-3" x="-11.3" y="-37.8" width="226.2" height="221.7"/>
    </clipPath>
    <clipPath id="clippath-7">
      <rect class="cls-3" x="-11.3" y="-37.8" width="226.2" height="221.7"/>
    </clipPath>
    <clipPath id="clippath-8">
      <rect class="cls-3" x="-11.3" y="-37.8" width="226.2" height="221.7"/>
    </clipPath>
    <clipPath id="clippath-9">
      <rect class="cls-3" x="-11.3" y="-37.8" width="226.2" height="221.7"/>
    </clipPath>
    <clipPath id="clippath-10">
      <rect class="cls-3" x="-11.3" y="-37.8" width="226.2" height="221.7"/>
    </clipPath>
    <clipPath id="clippath-11">
      <rect class="cls-3" x="-11.3" y="-37.8" width="226.2" height="221.7"/>
    </clipPath>
    <clipPath id="clippath-12">
      <rect class="cls-3" x="-11.3" y="-37.8" width="226.2" height="221.7"/>
    </clipPath>
    <clipPath id="clippath-13">
      <rect class="cls-3" x="-11.3" y="-37.8" width="226.2" height="221.7"/>
    </clipPath>
    <clipPath id="clippath-14">
      <rect class="cls-3" x="-11.3" y="-37.8" width="226.2" height="221.7"/>
    </clipPath>
    <clipPath id="clippath-15">
      <rect class="cls-3" x="-11.3" y="-37.8" width="226.2" height="221.7"/>
    </clipPath>
    <clipPath id="clippath-16">
      <rect class="cls-3" x="-11.3" y="-37.8" width="226.2" height="221.7"/>
    </clipPath>
    <clipPath id="clippath-17">
      <rect class="cls-3" x="-11.3" y="-37.8" width="226.2" height="221.7"/>
    </clipPath>
    <clipPath id="clippath-18">
      <rect class="cls-3" x="-11.3" y="-37.8" width="226.2" height="221.7"/>
    </clipPath>
    <clipPath id="clippath-19">
      <rect class="cls-3" x="-11.3" y="-37.8" width="226.2" height="221.7"/>
    </clipPath>
    <clipPath id="clippath-20">
      <rect class="cls-3" x="-11.3" y="-37.8" width="226.2" height="221.7"/>
    </clipPath>
    <clipPath id="clippath-21">
      <rect class="cls-3" x="-11.3" y="-37.8" width="226.2" height="221.7"/>
    </clipPath>
    <clipPath id="clippath-22">
      <rect class="cls-3" x="-11.3" y="-37.8" width="226.2" height="221.7"/>
    </clipPath>
    <clipPath id="clippath-23">
      <rect class="cls-3" x="-11.3" y="-37.8" width="226.2" height="221.7"/>
    </clipPath>
  </defs>
  <g class="cls-8">
    <g class="cls-17">
      <path class="cls-9" d="M8.7,70.8c-.6,3.6-1.8,8.4-2.1,10.4-.5,3.1-.9,6,.3,8,1.2,2.1,3.6,3,5.1,3.2,4,.7,9.3-3.2,15.4-7"/>
    </g>
    <g class="cls-16">
      <path class="cls-10" d="M53.2,77.6s53.1-15.5,62.8-18.4c9.7-2.8,31.6-8.9,35.6-9.8,4.4-1,7.3-1.6,11,.2s5.1,4.7,4,8.5c-1,3.6-2.9,4.7-5,5.8-2.1,1.1-13,5.3-14,18.6-.5,6,1.8,9.6,4.7,11.9,3.1,2.4,5.8,3.2,8.1,7.9,2.3,4.7,2,12-3.7,14.4-5.7,2.4-11.7,0-13.1-5.9-.5-2.3-.2-5.2.3-8.6.5-3.6.3-6.4-1.5-9.5-1.8-3.1-3.6-6.7-7.1-9.7-3.5-3-6.1-3.8-9.8-3-3.7.7-9.5,2.8-10.1,3-.5.2-3.7,1.5-4.9,4.4-1.2,2.9-1,4.5-.8,7.8.2,3.3,1,12.1,1.3,14.3,1.2,8.2,5.9,19.3,19.3,23.1,8.7,2.5,17.1-.6,20.4-1.8,2.9-1,25.5-10.2,28.1-11.6,4.1-2.3,15.5-8.8,16.4-9.3.9-.5,2.8-1.7,3.7-5,.8-3.3,1.6-5.6,1.7-8.6,0-3,.3-6.9-.5-10.8-.9-3.9-6.6-23.6-6.9-24.7-.3-1.1-.7-3.1-2.7-4.9-2-1.8-12.8-11.1-14.4-12.4-1.6-1.3-3.7-3.6-6.7-4-3-.4-4.7,0-7.7.5-3,.5-22.6,5.3-26.5,6.4-3.9,1.1-6.2,1.9-8.8,1.8-2.6,0-4.1-.3-7.6-1.5-1.6-.6-17.7-6.2-33.9-12.9-19-7.8-38.3-17.3-47.4-21-2.1-.9-7.7-2.1-12.5-.9-5.2,1.3-9.1,4.7-10.9,8.2-1.5,2.9-1.9,8.2-2.2,10.9-.2,2.7-3.4,40.6-3.6,42.7s-1,8,.5,10.2c1.5,2.2,2.5,3.4,5.3,4.3,2.7.9,3.9-.2,9.8-1.8,5.9-1.6,29.2-8.7,29.2-8.7Z"/>
    </g>
    <g class="cls-21">
      <path class="cls-1" d="M163.6,56.4c0,1.9-1.6,3.5-3.5,3.5s-3.5-1.6-3.5-3.5,1.6-3.5,3.5-3.5,3.5,1.6,3.5,3.5"/>
    </g>
    <text class="cls-15" transform="translate(158.7 58)"><tspan x="0" y="0">1</tspan></text>
    <g class="cls-20">
      <path class="cls-1" d="M146.4,73.3c0,1.9-1.6,3.5-3.5,3.5s-3.5-1.6-3.5-3.5,1.6-3.5,3.5-3.5,3.5,1.6,3.5,3.5"/>
    </g>
    <text class="cls-15" transform="translate(141.5 75)"><tspan x="0" y="0">2</tspan></text>
    <g class="cls-18">
      <path class="cls-1" d="M157.1,110.8c0,1.9-1.6,3.5-3.5,3.5s-3.5-1.6-3.5-3.5,1.6-3.5,3.5-3.5,3.5,1.6,3.5,3.5"/>
    </g>
    <text class="cls-15" transform="translate(152.2 112.4)"><tspan x="0" y="0">3</tspan></text>
    <g class="cls-19">
      <path class="cls-1" d="M140.6,102.3c0,1.9-1.6,3.5-3.5,3.5s-3.5-1.6-3.5-3.5,1.6-3.5,3.5-3.5,3.5,1.6,3.5,3.5"/>
    </g>
    <text class="cls-15" transform="translate(135.7 103.9)"><tspan x="0" y="0">4</tspan></text>
    <g class="cls-22">
      <path class="cls-1" d="M130.1,73.1c0,1.9-1.6,3.5-3.5,3.5s-3.5-1.6-3.5-3.5,1.6-3.5,3.5-3.5,3.5,1.6,3.5,3.5"/>
    </g>
    <text class="cls-15" transform="translate(125.2 74.7)"><tspan x="0" y="0">5</tspan></text>
    <g class="cls-30">
      <path class="cls-1" d="M111.5,79.9c0,1.9-1.6,3.5-3.5,3.5s-3.5-1.6-3.5-3.5,1.6-3.5,3.5-3.5,3.5,1.6,3.5,3.5"/>
    </g>
    <text class="cls-15" transform="translate(106.7 81.5)"><tspan x="0" y="0">6</tspan></text>
    <g class="cls-35">
      <path class="cls-1" d="M136.9,140.2c0,1.9-1.6,3.5-3.5,3.5s-3.5-1.6-3.5-3.5,1.6-3.5,3.5-3.5,3.5,1.6,3.5,3.5"/>
    </g>
    <text class="cls-15" transform="translate(132.1 141.9)"><tspan x="0" y="0">7</tspan></text>
    <g class="cls-29">
      <path class="cls-1" d="M200.9,53.7c0,1.9-1.6,3.5-3.5,3.5s-3.5-1.6-3.5-3.5,1.6-3.5,3.5-3.5,3.5,1.6,3.5,3.5"/>
    </g>
    <text class="cls-15" transform="translate(196 55.4)"><tspan x="0" y="0">9</tspan></text>
    <g class="cls-28">
      <path class="cls-1" d="M174.8,33c0,1.9-1.6,3.5-3.5,3.5s-3.5-1.6-3.5-3.5,1.6-3.5,3.5-3.5,3.5,1.6,3.5,3.5"/>
    </g>
    <text class="cls-15" transform="translate(168.5 34.7)"><tspan x="0" y="0">10</tspan></text>
    <g class="cls-27">
      <path class="cls-1" d="M131.3,41.4c0,1.9-1.6,3.5-3.5,3.5s-3.5-1.6-3.5-3.5,1.6-3.5,3.5-3.5,3.5,1.6,3.5,3.5"/>
    </g>
    <text class="cls-15" transform="translate(125 43.1)"><tspan x="0" y="0">11</tspan></text>
    <g class="cls-31">
      <path class="cls-1" d="M26.2,5.5c0,1.9-1.6,3.5-3.5,3.5s-3.5-1.6-3.5-3.5,1.6-3.5,3.5-3.5,3.5,1.6,3.5,3.5"/>
    </g>
    <text class="cls-15" transform="translate(19.9 7.2)"><tspan x="0" y="0">12</tspan></text>
    <g class="cls-33">
      <path class="cls-1" d="M206.8,111.6c0,1.9-1.6,3.5-3.5,3.5s-3.5-1.6-3.5-3.5,1.6-3.5,3.5-3.5,3.5,1.6,3.5,3.5"/>
    </g>
    <text class="cls-15" transform="translate(201.9 113.3)"><tspan x="0" y="0">8</tspan></text>
    <g class="cls-32">
      <path class="cls-1" d="M10.4,97.3c0,1.9-1.6,3.5-3.5,3.5s-3.5-1.6-3.5-3.5,1.6-3.5,3.5-3.5,3.5,1.6,3.5,3.5"/>
    </g>
    <text class="cls-15" transform="translate(4.1 99)"><tspan x="0" y="0">13</tspan></text>
    <line class="cls-6" x1="52" y1="73.5" x2="54.4" y2="81.9"/>
    <line class="cls-11" x1="52" y1="73.5" x2="54.4" y2="81.9"/>
    <g class="cls-36">
      <path class="cls-2" d="M58.7,81.1h-8.6s0,0,0,0v7.9h8.6v-7.9Z"/>
    </g>
    <text class="cls-14" transform="translate(51.1 87.4)"><tspan class="cls-7" x="0" y="0">F</tspan><tspan class="cls-37" x="3.5" y="0">L</tspan></text>
    <g class="cls-34">
      <line class="cls-12" x1="152" y1="98" x2="158.5" y2="88.6"/>
      <path class="cls-2" d="M162.7,83.9h-8.6s0,0,0,0v7.9h8.6v-7.9Z"/>
    </g>
    <text class="cls-14" transform="translate(155.6 90.2)"><tspan class="cls-7" x="0" y="0">i</tspan><tspan x="1.8" y="0">1</tspan></text>
    <g class="cls-23">
      <line class="cls-12" x1="112.2" y1="45.8" x2="116" y2="33.5"/>
      <path class="cls-2" d="M119.8,31.3h-8.6s0,0,0,0v7.9h8.6v-7.9Z"/>
    </g>
    <text class="cls-14" transform="translate(112.8 37.6)"><tspan class="cls-7" x="0" y="0">i</tspan><tspan x="1.8" y="0">3</tspan></text>
    <g class="cls-24">
      <line class="cls-12" x1="155.6" y1="137.1" x2="151.5" y2="126.8"/>
      <path class="cls-2" d="M159,134h-8.6s0,0,0,0v7.9h8.6v-7.9Z"/>
    </g>
    <text class="cls-14" transform="translate(152 140.3)"><tspan class="cls-7" x="0" y="0">i</tspan><tspan x="1.8" y="0">2</tspan></text>
    <g class="cls-26">
      <line class="cls-12" x1="110.8" y1="56.2" x2="112.9" y2="63.6"/>
      <path class="cls-6" d="M116.1,63.4h-6s0,0,0,0v6.5h6v-6.6Z"/>
    </g>
    <text class="cls-13" transform="translate(111.7 68.6)"><tspan x="0" y="0">S</tspan></text>
    <g class="cls-25">
      <rect class="cls-4" x="49.2" y="83.8" width=".9" height="5.3"/>
      <rect class="cls-5" x="49.2" y="84.7" width=".9" height=".9"/>
      <rect class="cls-5" x="49.2" y="86.4" width=".9" height=".9"/>
      <rect class="cls-5" x="49.2" y="88.2" width=".9" height=".9"/>
      <rect class="cls-4" x="48.3" y="83.8" width=".9" height="5.3"/>
      <rect class="cls-5" x="48.3" y="83.8" width=".9" height=".9"/>
      <rect class="cls-5" x="48.3" y="85.5" width=".9" height=".9"/>
      <rect class="cls-5" x="48.3" y="87.3" width=".9" height=".9"/>
      <rect class="cls-4" x="49.2" y="81.1" width=".9" height="2.6"/>
      <rect class="cls-5" x="49.2" y="81.1" width=".9" height=".9"/>
      <rect class="cls-5" x="49.2" y="82.9" width=".9" height=".9"/>
      <rect class="cls-4" x="48.3" y="81.1" width=".9" height="2.6"/>
      <rect class="cls-5" x="48.3" y="82" width=".9" height=".9"/>
    </g>
  </g>
</svg>