<?xml version="1.0" encoding="utf-8"?>
<!-- Generator: Adobe Illustrator 28.0.0, SVG Export Plug-In . SVG Version: 6.00 Build 0)  -->
<svg version="1.1" id="Capa_1" xmlns="http://www.w3.org/2000/svg" xmlns:xlink="http://www.w3.org/1999/xlink" x="0px" y="0px"
	 viewBox="0 0 210 210" style="enable-background:new 0 0 210 210;" xml:space="preserve">
<style type="text/css">
	.st0{fill:none;stroke:#585E65;stroke-width:1.42;stroke-miterlimit:10;}
	.st1{fill:none;stroke:#9E9FA3;stroke-width:2.02;stroke-miterlimit:10;}
	.st2{fill:#08161F;}
	.st3{enable-background:new    ;}
	.st4{fill:#9E9FA3;}
	.st5{fill:none;stroke:#ECECEC;stroke-width:0.71;stroke-miterlimit:10;}
	.st6{fill:#C70502;}
	.st7{fill:#ECECEC;}
	.st8{fill:#323232;}
	.st9{fill:none;stroke:#E5E5E5;stroke-width:0.71;stroke-miterlimit:10;}
	.st10{fill:#F9F9F9;}
</style>
<path class="st0" d="M79.5,41.5c-0.2,3-0.8,5.8-1.4,9c-0.4,2.3-1.5,3.5-4.6,3.9c-2.5,0.3-8.7-1.2-8.4-5.5c0.2-3.6,2.4-7.6,2.4-7.6
	c-0.3,0.8,1.6-2.4,2.6-5"/>
<path class="st1" d="M57.5,145.1c4.4-6.2,24.1-35.1,24.2-35.3c2.8-3.9,4-7,13.1-5.9c10.1,1.2,13.4,2.2,19.3-2.2
	c6.5-4.9,15.2-13.4,15.2-13.4s4.1-4.1,6,1.1c2,5.5,3,10.6,5.2,11.2c2.5,0.6,4.8-6.5,5.3-10.4c1.2-8.6,1.3-9.9-3-13.1
	c-4.5-3.4-41.7-34-51.6-42.1c-2.3-1.8-4.7-2.6-7.6-1.9c-2.2,0.5-4.7,2.1-4.5,5.3c0.4,7.7-1,11.1-5.3,11.7s-6.2-2.3-6.7-4.8
	c-0.2-1.2,0.1-2.4,0.5-3.5c0,0,1.8-3.7,4.2-9.4c3.8-9,9.5-15.2,16-17c2.4-0.6,6-1.1,13.8-2.4c13.9-2.3,31.3-4.5,31.3-4.5
	s8.7-1.6,12.2,6.1c2.9,6.4,4.4,10.8,5.8,17.2c2,8.7,2.8,22.6,3.2,26.4c0.7,6.5,1.9,8.8,4.7,12.4c2,2.6,2.3,4.9,0.1,10.5
	c-5.7,14.5,1.8,14.7,4.2,19.7c1.9,3.9,0.4,8.6-3.7,10.7s-6.9,4.1-9.3,7.5c-3,4.2-23.5,51.5-29.5,62.2c-5.4,9.6-9.2,17-14.9,17.5
	c-7.7,0.6-10.1-6.8-11.6-9.4c-2.6-4.4-8-10.5-11.2-13.6c-2.3-2.4-11-12.1-12.4-12.4c-1.4-0.3-1.8,0.7-3.5,2.4c-2,2.1-4,2.3-5.3,1.6
	s-7.4-6.8-8.3-13.4c-0.4-2.6,1.4-5,3.5-7.7C56.8,146.1,57.1,145.7,57.5,145.1L57.5,145.1z"/>
<g>
	<circle class="st2" cx="130.6" cy="96.4" r="3.5"/>
	<g class="st3">
		<path class="st4" d="M129.4,97.9l0.1-0.5c0.2,0.1,0.6,0.2,0.9,0.2c0.4,0,0.6-0.1,0.6-0.5l0,0c0-0.4-0.2-0.5-0.6-0.5H130V96h0.3
			c0.4,0,0.6-0.1,0.6-0.4l0,0c0-0.3-0.2-0.4-0.5-0.4s-0.6,0.1-0.8,0.2l-0.2-0.5c0.3-0.1,0.7-0.2,1.1-0.2c0.6,0,1.1,0.2,1.1,0.8v0.1
			c0,0.3-0.2,0.6-0.5,0.7l0,0c0.3,0.1,0.6,0.3,0.6,0.8v0.1c0,0.7-0.4,1-1.2,1C130.1,98.1,129.7,98,129.4,97.9z"/>
	</g>
</g>
<g>
	<circle class="st2" cx="150.9" cy="76.1" r="3.5"/>
	<g class="st3">
		<path class="st4" d="M152.1,76.7L152.1,76.7c0,0.8-0.4,1.1-1.2,1.1c-0.6,0-0.9-0.1-1.1-0.3L150,77c0.3,0.2,0.6,0.3,0.9,0.3
			c0.4,0,0.6-0.1,0.6-0.5l0,0c0-0.4-0.2-0.5-0.6-0.5c-0.2,0-0.5,0-0.7,0l-0.1-0.2l0.1-1.6h1.8V75h-1.3l-0.1,0.7c0.1,0,0.2,0,0.3,0
			C151.7,75.7,152.1,75.9,152.1,76.7z"/>
	</g>
</g>
<g>
	<circle class="st2" cx="85.7" cy="39.6" r="3.5"/>
	<g class="st3">
		<path class="st4" d="M87,40.2L87,40.2c0,0.7-0.4,1.1-1.2,1.1c-1,0-1.2-0.5-1.2-1.6v-0.1c0-1.4,0.5-1.7,1.3-1.7
			c0.3,0,0.6,0.1,0.8,0.1l-0.1,0.5c-0.2-0.1-0.4-0.1-0.7-0.1c-0.4,0-0.6,0.1-0.7,0.8c0.2,0,0.4,0,0.6,0C86.6,39.2,87,39.4,87,40.2z
			 M86.3,40.2c0-0.4-0.1-0.5-0.5-0.5c-0.2,0-0.3,0-0.5,0c0,0.7,0.1,1,0.5,1C86.2,40.7,86.3,40.6,86.3,40.2L86.3,40.2z"/>
	</g>
</g>
<g>
	<circle class="st2" cx="67.8" cy="59.5" r="3.5"/>
	<g class="st3">
		<path class="st4" d="M68.2,58.4h-1.6v-0.5H69v0.5l-1.3,2.9h-0.8L68.2,58.4z"/>
	</g>
</g>
<g>
	<circle class="st2" cx="74.7" cy="16.1" r="3.5"/>
	<g class="st3">
		<path class="st4" d="M75.9,16.8L75.9,16.8c0,0.7-0.4,1-1.2,1c-0.8,0-1.2-0.3-1.2-1l0,0c0-0.4,0.2-0.6,0.5-0.8
			c-0.2-0.1-0.4-0.4-0.4-0.7l0,0c0-0.6,0.4-0.9,1.2-0.9c0.7,0,1.1,0.3,1.1,0.9l0,0c0,0.3-0.1,0.6-0.4,0.7
			C75.8,16.1,75.9,16.4,75.9,16.8z M75.2,16.7c0-0.3-0.1-0.5-0.5-0.5l0,0c-0.3,0-0.5,0.1-0.5,0.5l0,0c0,0.3,0.1,0.5,0.5,0.5
			S75.2,17.1,75.2,16.7L75.2,16.7z M74.3,15.3c0,0.3,0.1,0.4,0.4,0.4l0,0c0.3,0,0.4-0.2,0.4-0.4l0,0c0-0.3-0.1-0.4-0.4-0.4
			C74.4,14.9,74.3,15,74.3,15.3L74.3,15.3z"/>
	</g>
</g>
<g>
	<circle class="st2" cx="144.5" cy="4.5" r="3.5"/>
	<g class="st3">
		<path class="st4" d="M145.8,4.1v0.6c0,0.9-0.2,1.5-1.2,1.5c-0.4,0-0.7-0.1-1-0.1l0.1-0.6c0.2,0.1,0.6,0.1,0.8,0.1
			c0.4,0,0.6-0.2,0.6-0.7c-0.2,0-0.4,0-0.6,0c-0.8,0-1.1-0.3-1.1-1.1v0.1c0-0.7,0.4-1.1,1.2-1.1C145.4,2.8,145.8,3.2,145.8,4.1z
			 M144.6,4.4c0.2,0,0.3,0,0.5,0V4.3c0-0.7-0.1-1-0.5-1s-0.5,0.2-0.5,0.5l0,0C144.1,4.3,144.2,4.4,144.6,4.4z"/>
	</g>
</g>
<g>
	<circle class="st2" cx="161.7" cy="63" r="3.5"/>
	<g class="st3">
		<path class="st4" d="M159.4,64h0.8v-2.1l0,0l-0.7,0.2l-0.1-0.5l0.9-0.3h0.6V64h0.7v0.5h-2.1L159.4,64L159.4,64z"/>
		<path class="st4" d="M162.3,64.4c-0.2-0.2-0.3-0.6-0.3-1.4v-0.1c0-0.7,0.1-1.1,0.3-1.3s0.5-0.3,0.9-0.3c0.5,0,0.7,0.1,0.9,0.3
			c0.2,0.3,0.3,0.6,0.3,1.3V63c0,0.8-0.1,1.1-0.3,1.3c-0.2,0.2-0.5,0.3-0.9,0.3C162.8,64.6,162.5,64.6,162.3,64.4z M163.6,63.9
			c0.1-0.2,0.1-0.5,0.1-1v-0.1c0-0.5,0-0.8-0.1-1c-0.1-0.1-0.2-0.1-0.4-0.1s-0.3,0-0.4,0.1c-0.1,0.2-0.1,0.5-0.1,1V63
			c0,0.5,0,0.8,0.1,1c0.1,0.1,0.2,0.2,0.4,0.2C163.4,64.1,163.5,64,163.6,63.9z"/>
	</g>
</g>
<g>
	<circle class="st2" cx="167" cy="74.6" r="3.5"/>
	<g class="st3">
		<path class="st4" d="M164.7,75.7h0.8v-2.1l0,0l-0.7,0.2l-0.1-0.5l0.9-0.3h0.6v2.8h0.7v0.5h-2.1L164.7,75.7L164.7,75.7z"/>
		<path class="st4" d="M167.5,75.7h0.8v-2.1l0,0l-0.7,0.2l-0.1-0.5l0.9-0.3h0.6v2.8h0.7v0.5h-2.1L167.5,75.7L167.5,75.7z"/>
	</g>
</g>
<g>
	<circle class="st2" cx="163.4" cy="91.1" r="3.5"/>
	<g class="st3">
		<path class="st4" d="M161.1,92.2h0.8v-2.1l0,0l-0.7,0.2l-0.1-0.5l0.9-0.3h0.6v2.8h0.7v0.5h-2.1L161.1,92.2L161.1,92.2z"/>
		<path class="st4" d="M163.8,92.2c0-0.7,0.2-1,0.7-1.1l0.4-0.1c0.3-0.1,0.4-0.2,0.4-0.5l0,0c0-0.3-0.2-0.4-0.5-0.4
			s-0.7,0.1-0.8,0.2l-0.1-0.5c0.2-0.1,0.6-0.2,1.1-0.2c0.7,0,1.1,0.3,1.1,1v0.1c0,0.6-0.2,0.8-0.7,1l-0.4,0.1
			c-0.4,0.1-0.5,0.3-0.5,0.5v0.2h1.5V93h-2.2V92.2z"/>
	</g>
</g>
<g>
	<circle class="st2" cx="156.8" cy="121.2" r="3.5"/>
	<g class="st3">
		<path class="st4" d="M154.4,122.2h0.8v-2.1l0,0l-0.7,0.2l-0.1-0.5l0.9-0.3h0.6v2.8h0.7v0.5h-2.1L154.4,122.2L154.4,122.2z"/>
		<path class="st4" d="M158.5,122.1h-1.6v-0.4l1.1-2.2h0.8l-1.1,2.1h0.8v-0.9h0.7v0.9h0.4v0.6h-0.4v0.6h-0.7V122.1z"/>
	</g>
</g>
<g>
	<circle class="st2" cx="104.8" cy="205.5" r="3.5"/>
	<g class="st3">
		<path class="st4" d="M102.5,206.6h0.8v-2.1l0,0l-0.7,0.2l-0.1-0.5l0.9-0.3h0.6v2.8h0.7v0.5h-2.1v-0.6H102.5z"/>
		<path class="st4" d="M107.4,206.1L107.4,206.1c0,0.8-0.4,1.1-1.2,1.1c-0.6,0-0.9-0.1-1.1-0.3l0.2-0.5c0.3,0.2,0.6,0.3,0.9,0.3
			c0.4,0,0.6-0.1,0.6-0.5l0,0c0-0.4-0.2-0.5-0.6-0.5c-0.2,0-0.5,0-0.7,0l-0.1-0.2l0.1-1.6h1.8v0.5H106l-0.1,0.7c0.1,0,0.2,0,0.3,0
			C107,205.1,107.4,205.3,107.4,206.1z"/>
	</g>
</g>
<g>
	<circle class="st2" cx="69.9" cy="172" r="3.5"/>
	<g class="st3">
		<path class="st4" d="M67.5,173.1h0.8V171l0,0l-0.7,0.2l-0.1-0.5l0.9-0.3H69v2.8h0.7v0.5h-2.1L67.5,173.1L67.5,173.1z"/>
		<path class="st4" d="M72.5,172.6L72.5,172.6c0,0.7-0.4,1.1-1.2,1.1c-1,0-1.2-0.5-1.2-1.6V172c0-1.4,0.5-1.7,1.3-1.7
			c0.3,0,0.6,0.1,0.8,0.1l-0.1,0.5c-0.2-0.1-0.4-0.1-0.7-0.1c-0.4,0-0.6,0.1-0.7,0.8c0.2,0,0.4,0,0.6,0
			C72.1,171.6,72.5,171.8,72.5,172.6z M71.8,172.6c0-0.4-0.1-0.5-0.5-0.5c-0.2,0-0.3,0-0.5,0c0,0.7,0.1,1,0.5,1
			C71.7,173.1,71.8,173,71.8,172.6L71.8,172.6z"/>
	</g>
</g>
<g>
	<circle class="st2" cx="56.2" cy="171.8" r="3.5"/>
	<g class="st3">
		<path class="st4" d="M53.9,172.9h0.8v-2.1l0,0L54,171l-0.1-0.5l0.9-0.3h0.6v2.8H56v0.5h-2.1V172.9z"/>
		<path class="st4" d="M58.1,170.6h-1.6v-0.5h2.3v0.5l-1.3,2.9h-0.8L58.1,170.6z"/>
	</g>
</g>
<g>
	<circle class="st2" cx="46.5" cy="154" r="3.5"/>
	<g class="st3">
		<path class="st4" d="M44.1,155h0.8v-2.1l0,0l-0.7,0.2l-0.1-0.5l0.9-0.3h0.6v2.8h0.7v0.5h-2.1V155H44.1z"/>
		<path class="st4" d="M49.1,154.7L49.1,154.7c0,0.7-0.4,1-1.2,1s-1.2-0.3-1.2-1l0,0c0-0.4,0.2-0.6,0.5-0.8
			c-0.2-0.1-0.4-0.4-0.4-0.7l0,0c0-0.6,0.4-0.9,1.2-0.9c0.7,0,1.1,0.3,1.1,0.9l0,0c0,0.3-0.1,0.6-0.4,0.7
			C49,154,49.1,154.2,49.1,154.7z M48.4,154.6c0-0.3-0.1-0.5-0.5-0.5l0,0c-0.3,0-0.5,0.1-0.5,0.5l0,0c0,0.3,0.1,0.5,0.5,0.5
			C48.3,155.1,48.4,155,48.4,154.6L48.4,154.6z M47.5,153.2c0,0.3,0.1,0.4,0.4,0.4l0,0c0.3,0,0.4-0.2,0.4-0.4l0,0
			c0-0.3-0.1-0.4-0.4-0.4S47.5,152.9,47.5,153.2L47.5,153.2z"/>
	</g>
</g>
<g>
	<circle class="st2" cx="106.9" cy="98" r="3.5"/>
	<g class="st3">
		<path class="st4" d="M105.9,99.1c0-0.7,0.2-1,0.7-1.1l0.4-0.1c0.3-0.1,0.4-0.2,0.4-0.5l0,0c0-0.3-0.2-0.4-0.5-0.4
			s-0.7,0.1-0.8,0.2l-0.1-0.5c0.2-0.1,0.6-0.2,1.1-0.2c0.7,0,1.1,0.3,1.1,1v0.1c0,0.6-0.2,0.8-0.7,1l-0.4,0.1
			c-0.4,0.1-0.5,0.3-0.5,0.5v0.2h1.5v0.5h-2.2V99.1z"/>
	</g>
</g>
<g>
	<circle class="st2" cx="138.8" cy="111.2" r="3.5"/>
	<g class="st3">
		<path class="st4" d="M139.1,112.2h-1.6v-0.4l1.1-2.2h0.8l-1.1,2.1h0.8v-0.9h0.7v0.9h0.4v0.6h-0.4v0.6h-0.7V112.2z"/>
	</g>
</g>
<g>
	<circle class="st2" cx="169.6" cy="109.2" r="3.5"/>
	<g class="st3">
		<path class="st4" d="M167.3,110.3h0.8v-2.1l0,0l-0.7,0.2l-0.1-0.5l0.9-0.3h0.6v2.8h0.7v0.5h-2.1L167.3,110.3L167.3,110.3z"/>
		<path class="st4" d="M169.9,110.6l0.1-0.5c0.2,0.1,0.6,0.2,0.9,0.2c0.4,0,0.6-0.1,0.6-0.5l0,0c0-0.4-0.2-0.5-0.6-0.5h-0.4v-0.5
			h0.3c0.4,0,0.6-0.1,0.6-0.4l0,0c0-0.3-0.2-0.4-0.5-0.4s-0.6,0.1-0.8,0.2l-0.2-0.5c0.3-0.1,0.7-0.2,1.1-0.2c0.6,0,1.1,0.2,1.1,0.8
			v0.1c0,0.3-0.2,0.6-0.5,0.7l0,0c0.3,0.1,0.6,0.3,0.6,0.8v0.1c0,0.7-0.4,1-1.2,1C170.5,110.8,170.1,110.8,169.9,110.6z"/>
	</g>
</g>
<g>
	<circle class="st2" cx="83.2" cy="98.8" r="3.5"/>
	<g class="st3">
		<path class="st4" d="M82.2,99.9H83v-2.1l0,0L82.3,98l-0.1-0.5l0.9-0.3h0.6v2.8h0.7v0.5h-2.1v-0.6H82.2z"/>
	</g>
</g>
<line class="st5" x1="157.3" y1="104" x2="165.6" y2="99.2"/>
<g>
	<path class="st6" d="M159.3,99.8h-8.5l0,0v7.7h8.5V99.8L159.3,99.8z"/>
	<g class="st3">
		<path class="st7" d="M152.7,101h1v0.9h-1V101z M152.8,102.4h0.9v3.6h-0.9V102.4z"/>
		<path class="st7" d="M154.6,105.7l0.1-0.8c0.3,0.2,0.8,0.3,1.3,0.3c0.6,0,0.9-0.2,0.9-0.7v-0.1c0-0.5-0.3-0.7-0.8-0.7h-0.6v-0.8
			h0.4c0.6,0,0.8-0.1,0.8-0.6v-0.1c0-0.4-0.3-0.5-0.7-0.5c-0.5,0-0.9,0.1-1.2,0.3l-0.2-0.8c0.4-0.2,0.9-0.3,1.5-0.3
			c0.8,0,1.5,0.3,1.5,1.2v0.1c0,0.5-0.2,0.9-0.7,1l0,0c0.5,0.1,0.8,0.5,0.8,1.1v0.1c0,1-0.6,1.4-1.8,1.4
			C155.5,106,154.9,105.9,154.6,105.7z"/>
	</g>
</g>
<line class="st5" x1="149.6" y1="84.4" x2="137.6" y2="84.5"/>
<path class="st6" d="M141.3,77.7h-8.5l0,0v7.7h8.5V77.7L141.3,77.7z"/>
<g class="st3">
	<path class="st7" d="M134.8,78.9h1v0.9h-1V78.9z M134.8,80.3h0.9v3.6h-0.9V80.3z"/>
	<path class="st7" d="M136.9,83.1h1.1v-3l0,0l-1,0.3l-0.2-0.8l1.3-0.4h0.9v3.9h1v0.8h-3v-0.8H136.9z"/>
</g>
<line class="st5" x1="97.4" y1="8.7" x2="99" y2="16.6"/>
<g>
	<path class="st6" d="M101.1,2.1h-8.5l0,0v7.7h8.5V2.1L101.1,2.1z"/>
	<g class="st3">
		<path class="st7" d="M94.6,3.4h1v0.9h-1V3.4z M94.6,4.8h0.9v3.6h-0.9V4.8z"/>
		<path class="st7" d="M96.5,7.5c0-1,0.3-1.4,1.1-1.6l0.6-0.2c0.4-0.1,0.6-0.2,0.6-0.7l0,0c0-0.4-0.3-0.6-0.8-0.6s-0.9,0.1-1.2,0.3
			l-0.2-0.8c0.3-0.2,0.9-0.3,1.5-0.3C99,3.6,99.7,4,99.7,5v0c0,0.8-0.3,1.2-1,1.4l-0.6,0.2c-0.5,0.1-0.7,0.4-0.7,0.8v0.2h2.2v0.8
			h-3.1V7.5z"/>
	</g>
</g>
<line class="st5" x1="123.8" y1="167.7" x2="131" y2="171.2"/>
<path class="st7" d="M136.7,167.4h-5.9l0,0v6.4h5.9V167.4z"/>
<g class="st3">
	<path class="st8" d="M132.5,172.3l0.2-0.6c0.3,0.1,0.7,0.2,1,0.2c0.5,0,0.7-0.1,0.7-0.5l0,0c0-0.3-0.1-0.4-0.5-0.5l-0.4-0.1
		c-0.7-0.2-1-0.4-1-1.1v-0.1c0-0.8,0.5-1.1,1.4-1.1c0.4,0,0.9,0.1,1.2,0.2l-0.2,0.7c-0.3-0.1-0.7-0.2-0.9-0.2c-0.4,0-0.6,0-0.6,0.4
		l0,0c0,0.3,0.1,0.4,0.5,0.4l0.5,0.1c0.7,0.1,0.9,0.4,0.9,1.1v0.1c0,0.9-0.5,1.2-1.5,1.2C133.3,172.6,132.7,172.5,132.5,172.3z"/>
</g>
<line class="st9" x1="52.8" y1="141.9" x2="60.1" y2="146.9"/>
<path class="st6" d="M54.3,136.5h-8.5l0,0v7.7h8.5V136.5L54.3,136.5z"/>
<g class="st3">
	<path class="st7" d="M47.4,138.9c0-0.6,0.3-0.9,0.9-0.9h2v0.8h-1.7c-0.1,0-0.2,0.1-0.2,0.2v0.9h1.8v0.8h-1.8v1.9h-1V138.9z"/>
	<path class="st7" d="M51.3,142v-4h1v3.8c0,0.1,0,0.1,0.1,0.1h1.4v0.8H52C51.5,142.7,51.3,142.5,51.3,142z"/>
</g>
<g>
	<g>
		<rect x="45" y="139.1" class="st10" width="0.9" height="5.2"/>
		<rect x="45" y="140" width="0.9" height="0.9"/>
		<rect x="45" y="141.7" width="0.9" height="0.9"/>
		<rect x="45" y="143.4" width="0.9" height="0.9"/>
		<rect x="44.1" y="139.1" class="st10" width="0.9" height="5.2"/>
		<rect x="44.1" y="139.1" width="0.9" height="0.9"/>
		<rect x="44.1" y="140.8" width="0.9" height="0.9"/>
		<rect x="44.1" y="142.6" width="0.9" height="0.9"/>
	</g>
	<g>
		<rect x="45" y="136.5" class="st10" width="0.9" height="2.6"/>
		<rect x="45" y="136.5" width="0.9" height="0.9"/>
		<rect x="45" y="138.3" width="0.9" height="0.9"/>
		<rect x="44.1" y="136.5" class="st10" width="0.9" height="2.6"/>
		<rect x="44.1" y="137.4" width="0.9" height="0.9"/>
	</g>
</g>
</svg>
